<svg width="24" height="24" viewBox="0 0 24 24" fill="none" xmlns="http://www.w3.org/2000/svg">
<g id="Icons / hand">
<path id="Icon" d="M8 11.5V14M8 11.5V5.5C8 4.67157 8.67157 4 9.5 4C10.3284 4 11 4.67157 11 5.5M8 11.5C8 10.6716 7.32843 10 6.5 10C5.67157 10 5 10.6716 5 11.5V13.5C5 17.6421 8.35786 21 12.5 21C16.6421 21 20 17.6421 20 13.5V8.5C20 7.67157 19.3284 7 18.5 7C17.6716 7 17 7.67157 17 8.5M11 5.5V11M11 5.5V4.5C11 3.67157 11.6716 3 12.5 3C13.3284 3 14 3.67157 14 4.5V5.5M14 5.5V11M14 5.5C14 4.67157 14.6716 4 15.5 4C16.3284 4 17 4.67157 17 5.5V8.5M17 8.5V11" stroke="#2B2B2E" stroke-width="2" stroke-linecap="round" stroke-linejoin="round"/>
</g>
</svg>
