<svg width="40" height="40" viewBox="0 0 40 40" fill="none" xmlns="http://www.w3.org/2000/svg">
<g id="Icons/image">
<path id="Vector" d="M34.9997 24.9993L26.6663 16.666L8.33301 34.9993" stroke="#2B2B2E" stroke-width="2" stroke-linecap="round" stroke-linejoin="round"/>
<path id="Vector_2" d="M14.167 16.666C15.5477 16.666 16.667 15.5467 16.667 14.166C16.667 12.7853 15.5477 11.666 14.167 11.666C12.7863 11.666 11.667 12.7853 11.667 14.166C11.667 15.5467 12.7863 16.666 14.167 16.666Z" stroke="#2B2B2E" stroke-width="2" stroke-linecap="round" stroke-linejoin="round"/>
<path id="Vector_3" d="M31.6667 5H8.33333C6.49238 5 5 6.49238 5 8.33333V31.6667C5 33.5076 6.49238 35 8.33333 35H31.6667C33.5076 35 35 33.5076 35 31.6667V8.33333C35 6.49238 33.5076 5 31.6667 5Z" stroke="#2B2B2E" stroke-width="2" stroke-linecap="round" stroke-linejoin="round"/>
</g>
</svg>
