<svg width="304" height="200" viewBox="0 0 304 200" fill="none" xmlns="http://www.w3.org/2000/svg">
<g clip-path="url(#clip0_1031_3356)">
<rect y="200" width="200" height="304" rx="12" transform="rotate(-90 0 200)" fill="white"/>
<path opacity="0.2" d="M95.3056 172.768V165.207H99.9899V165.937H95.6757L96.1198 165.387V172.768H95.3056ZM102.009 172.937C101.481 172.937 101.008 172.817 100.593 172.577C100.177 172.338 99.8488 172.01 99.6091 171.594C99.3765 171.178 99.2602 170.702 99.2602 170.166C99.2602 169.631 99.3765 169.155 99.6091 168.739C99.8488 168.323 100.177 167.995 100.593 167.756C101.008 167.516 101.481 167.396 102.009 167.396C102.545 167.396 103.017 167.516 103.426 167.756C103.842 167.995 104.167 168.323 104.399 168.739C104.639 169.155 104.759 169.631 104.759 170.166C104.759 170.702 104.639 171.178 104.399 171.594C104.167 172.01 103.842 172.338 103.426 172.577C103.017 172.817 102.545 172.937 102.009 172.937ZM102.009 172.249C102.39 172.249 102.725 172.161 103.014 171.985C103.303 171.809 103.529 171.566 103.691 171.256C103.853 170.938 103.934 170.575 103.934 170.166C103.934 169.758 103.853 169.398 103.691 169.088C103.529 168.771 103.303 168.524 103.014 168.348C102.725 168.171 102.39 168.083 102.009 168.083C101.629 168.083 101.294 168.171 101.005 168.348C100.716 168.524 100.49 168.771 100.328 169.088C100.166 169.398 100.085 169.758 100.085 170.166C100.085 170.575 100.166 170.938 100.328 171.256C100.49 171.566 100.716 171.809 101.005 171.985C101.294 172.161 101.629 172.249 102.009 172.249ZM105.197 172.556V172.101H105.409C105.55 172.101 105.659 172.07 105.736 172.006C105.821 171.936 105.885 171.823 105.927 171.668C105.976 171.513 106.015 171.301 106.043 171.033L106.456 167.565H110.051V172.45H109.268V167.724L109.818 168.231H106.572L107.206 167.724L106.783 171.097C106.741 171.456 106.674 171.742 106.582 171.953C106.491 172.165 106.36 172.32 106.191 172.419C106.029 172.51 105.803 172.556 105.514 172.556H105.197ZM104.986 174.121V172.101H110.791V174.121H110.051V172.207L110.6 172.768H105.419L105.726 172.207V174.121H104.986Z" fill="#959596"/>
<path d="M132.442 177.75H72.9634V179.072H132.442V177.75Z" fill="#959596" mask="url(#path-3-inside-1_1031_3356)"/>
<path opacity="0.2" d="M181.041 172.768V165.207H187.047V172.768H186.233V165.387L186.677 165.937H181.411L181.855 165.387V172.768H181.041ZM191.018 172.937C190.489 172.937 190.017 172.817 189.601 172.577C189.185 172.338 188.857 172.01 188.618 171.594C188.385 171.178 188.269 170.702 188.269 170.166C188.269 169.631 188.385 169.155 188.618 168.739C188.857 168.323 189.185 167.995 189.601 167.756C190.017 167.516 190.489 167.396 191.018 167.396C191.554 167.396 192.026 167.516 192.435 167.756C192.851 167.995 193.175 168.323 193.408 168.739C193.647 169.155 193.767 169.631 193.767 170.166C193.767 170.702 193.647 171.178 193.408 171.594C193.175 172.01 192.851 172.338 192.435 172.577C192.026 172.817 191.554 172.937 191.018 172.937ZM191.018 172.249C191.399 172.249 191.733 172.161 192.022 171.985C192.311 171.809 192.537 171.566 192.699 171.256C192.861 170.938 192.942 170.575 192.942 170.166C192.942 169.758 192.861 169.398 192.699 169.088C192.537 168.771 192.311 168.524 192.022 168.348C191.733 168.171 191.399 168.083 191.018 168.083C190.637 168.083 190.302 168.171 190.013 168.348C189.724 168.524 189.499 168.771 189.337 169.088C189.174 169.398 189.093 169.758 189.093 170.166C189.093 170.575 189.174 170.938 189.337 171.256C189.499 171.566 189.724 171.809 190.013 171.985C190.302 172.161 190.637 172.249 191.018 172.249ZM194.206 172.556V172.101H194.417C194.558 172.101 194.667 172.07 194.745 172.006C194.83 171.936 194.893 171.823 194.935 171.668C194.985 171.513 195.023 171.301 195.052 171.033L195.464 167.565H199.059V172.45H198.277V167.724L198.826 168.231H195.58L196.215 167.724L195.792 171.097C195.749 171.456 195.682 171.742 195.591 171.953C195.499 172.165 195.369 172.32 195.2 172.419C195.037 172.51 194.812 172.556 194.523 172.556H194.206ZM193.994 174.121V172.101H199.799V174.121H199.059V172.207L199.609 172.768H194.428L194.734 172.207V174.121H193.994ZM200.887 172.768V167.565H205.487V172.768H204.705V167.724L205.254 168.231H201.014L201.67 167.724V172.768H200.887ZM206.898 172.768V167.565H207.681V171.721L207.596 171.689L210.98 167.565H211.657V172.768H210.874V168.612L210.959 168.644L207.575 172.768H206.898ZM217.04 171.414L217.6 171.932C217.361 172.242 217.058 172.489 216.691 172.672C216.331 172.849 215.923 172.937 215.464 172.937C214.936 172.937 214.463 172.817 214.048 172.577C213.639 172.338 213.314 172.01 213.075 171.594C212.842 171.178 212.726 170.702 212.726 170.166C212.726 169.631 212.842 169.155 213.075 168.739C213.314 168.323 213.642 167.995 214.058 167.756C214.474 167.516 214.946 167.396 215.475 167.396C215.933 167.396 216.342 167.488 216.702 167.671C217.061 167.847 217.361 168.09 217.6 168.401L217.04 168.919C216.871 168.665 216.659 168.464 216.406 168.316C216.152 168.161 215.842 168.083 215.475 168.083C215.094 168.083 214.759 168.171 214.47 168.348C214.181 168.524 213.956 168.771 213.794 169.088C213.632 169.398 213.551 169.758 213.551 170.166C213.551 170.575 213.632 170.938 213.794 171.256C213.956 171.566 214.181 171.809 214.47 171.985C214.759 172.161 215.094 172.249 215.475 172.249C215.842 172.249 216.152 172.175 216.406 172.027C216.659 171.872 216.871 171.668 217.04 171.414ZM218.559 172.768V167.565H219.342V172.641L218.855 172.101H221.044C221.396 172.101 221.668 172.017 221.858 171.848C222.056 171.671 222.154 171.432 222.154 171.129C222.154 170.833 222.056 170.6 221.858 170.431C221.668 170.262 221.396 170.177 221.044 170.177H218.908V169.511H221.044C221.615 169.511 222.077 169.662 222.429 169.965C222.789 170.262 222.968 170.649 222.968 171.129C222.968 171.439 222.884 171.717 222.715 171.964C222.545 172.211 222.316 172.408 222.027 172.556C221.738 172.697 221.411 172.768 221.044 172.768H218.559Z" fill="#959596"/>
<path d="M231.572 177.75H171.711V179.072H231.572V177.75Z" fill="#959596" mask="url(#path-6-inside-2_1031_3356)"/>
<path d="M99.7419 105.881V94.5403H100.963V105.104H100.249L107.45 94.5403H108.814V105.881H107.593V95.3968H108.227L101.058 105.881H99.7419ZM111.585 105.881V98.0773H112.95L116.185 104.104H115.931L119.167 98.0773H120.594V105.881H119.437V98.4738H120.103L116.518 105.167H115.519L111.966 98.4738H112.712V105.881H111.585ZM128.216 105.881V98.2676L128.946 99.0765H125.869C125.425 99.0765 125.033 99.1823 124.695 99.3938C124.367 99.5947 124.203 99.9436 124.203 100.441C124.203 100.864 124.346 101.197 124.632 101.44C124.928 101.683 125.34 101.805 125.869 101.805H128.867V102.804H125.869C125.002 102.804 124.304 102.587 123.775 102.154C123.246 101.72 122.982 101.149 122.982 100.441C122.982 99.9965 123.109 99.6 123.363 99.251C123.617 98.8915 123.96 98.606 124.394 98.3945C124.838 98.1831 125.33 98.0773 125.869 98.0773H129.39V105.881H128.216ZM122.649 105.881L125.504 102.233H126.836L124.077 105.881H122.649ZM140.604 104.707C138.647 104.707 137.162 104.326 136.147 103.565C135.132 102.793 134.624 101.672 134.624 100.203C134.624 98.7329 135.132 97.6173 136.147 96.856C137.162 96.0947 138.647 95.714 140.604 95.714C142.56 95.714 144.04 96.0947 145.045 96.856C146.06 97.6173 146.567 98.7329 146.567 100.203C146.567 101.672 146.06 102.793 145.045 103.565C144.04 104.326 142.56 104.707 140.604 104.707ZM140.604 103.597C142.168 103.597 143.342 103.317 144.125 102.756C144.907 102.196 145.298 101.345 145.298 100.203C145.298 99.0713 144.902 98.2253 144.109 97.6649C143.326 97.1045 142.158 96.8243 140.604 96.8243C139.039 96.8243 137.86 97.1045 137.067 97.6649C136.284 98.2148 135.893 99.0607 135.893 100.203C135.893 101.324 136.289 102.169 137.082 102.74C137.875 103.311 139.049 103.597 140.604 103.597ZM139.985 106.357V104.485L140.033 103.787V96.6181L139.985 95.9995V94.0645H141.206V95.9995L141.159 96.6181V103.787L141.206 104.485V106.357H139.985ZM155.168 105.881H154.042V104.358L154.026 103.914V100.996C154.026 100.34 153.815 99.8167 153.392 99.4255C152.969 99.0343 152.398 98.8386 151.679 98.8386C151.161 98.8386 150.69 98.9497 150.267 99.1717C149.855 99.3938 149.49 99.6951 149.173 100.076L148.348 99.2827C148.782 98.8175 149.268 98.458 149.807 98.2042C150.357 97.9504 150.981 97.8235 151.679 97.8235C152.377 97.8235 152.985 97.9557 153.503 98.2201C154.032 98.4738 154.439 98.8333 154.724 99.2986C155.02 99.7639 155.168 100.314 155.168 100.948V105.881ZM151.06 106.135C150.468 106.135 149.945 106.029 149.49 105.817C149.046 105.595 148.697 105.299 148.443 104.929C148.2 104.559 148.078 104.136 148.078 103.66C148.078 103.11 148.232 102.645 148.538 102.265C148.845 101.873 149.263 101.577 149.791 101.376C150.331 101.175 150.939 101.075 151.615 101.075H154.185V102.027H151.774C151.066 102.027 150.473 102.159 149.998 102.423C149.532 102.677 149.3 103.079 149.3 103.629C149.3 104.094 149.474 104.464 149.823 104.739C150.172 105.014 150.632 105.151 151.203 105.151C151.753 105.151 152.25 105.046 152.694 104.834C153.138 104.612 153.492 104.305 153.757 103.914C154.032 103.523 154.185 103.073 154.217 102.566L154.692 102.836C154.692 103.47 154.534 104.036 154.217 104.533C153.91 105.03 153.482 105.421 152.932 105.706C152.382 105.992 151.758 106.135 151.06 106.135ZM157.433 105.881V98.0773H158.797L162.033 104.104H161.779L165.015 98.0773H166.442V105.881H165.284V98.4738H165.951L162.366 105.167H161.367L157.814 98.4738H158.559V105.881H157.433ZM168.973 105.881V98.0773H170.146V104.311L170.02 104.263L175.095 98.0773H176.11V105.881H174.936V99.6475L175.063 99.6951L169.988 105.881H168.973ZM177.702 105.881V104.866H178.336C178.622 104.866 178.838 104.792 178.986 104.644C179.135 104.485 179.224 104.2 179.256 103.787L179.748 98.0773H185.299V105.881H184.125V98.3152L184.95 99.0765H180.002L180.906 98.3152L180.382 103.978C180.319 104.675 180.134 105.167 179.827 105.453C179.531 105.738 179.087 105.881 178.495 105.881H177.702ZM187.838 105.881V98.0773H189.012V104.311L188.885 104.263L193.961 98.0773H194.976V105.881H193.802V99.6475L193.929 99.6951L188.854 105.881H187.838ZM202.61 105.881V98.2676L203.34 99.0765H200.263C199.819 99.0765 199.428 99.1823 199.089 99.3938C198.762 99.5947 198.598 99.9436 198.598 100.441C198.598 100.864 198.74 101.197 199.026 101.44C199.322 101.683 199.734 101.805 200.263 101.805H203.261V102.804H200.263C199.396 102.804 198.698 102.587 198.169 102.154C197.641 101.72 197.376 101.149 197.376 100.441C197.376 99.9965 197.503 99.6 197.757 99.251C198.011 98.8915 198.354 98.606 198.788 98.3945C199.232 98.1831 199.724 98.0773 200.263 98.0773H203.784V105.881H202.61ZM197.043 105.881L199.898 102.233H201.231L198.471 105.881H197.043Z" fill="#2B2B2E"/>
<path d="M103.022 79.4473V68.1067H107.732C108.483 68.1067 109.139 68.2283 109.699 68.4715C110.26 68.7147 110.693 69.0584 111 69.5025C111.306 69.9466 111.46 70.47 111.46 71.0727C111.46 71.6226 111.306 72.1143 111 72.5478C110.693 72.9707 110.26 73.3038 109.699 73.547C109.139 73.7902 108.483 73.9118 107.732 73.9118H105.322V73.1029H107.875C108.689 73.1029 109.398 73.2298 110.001 73.4836C110.614 73.7268 111.09 74.081 111.428 74.5463C111.777 75.0009 111.951 75.5455 111.951 76.1799C111.951 76.8249 111.782 77.3959 111.444 77.8929C111.106 78.3899 110.63 78.7758 110.016 79.0507C109.403 79.3151 108.689 79.4473 107.875 79.4473H103.022ZM105.163 77.655H107.891C108.473 77.655 108.933 77.5175 109.271 77.2426C109.609 76.9571 109.779 76.5606 109.779 76.053C109.779 75.5666 109.609 75.1913 109.271 74.9269C108.933 74.652 108.473 74.5145 107.891 74.5145H105.004V72.754H107.621C108.14 72.754 108.547 72.6271 108.843 72.3733C109.149 72.109 109.303 71.7495 109.303 71.2948C109.303 70.8507 109.149 70.507 108.843 70.2638C108.547 70.0206 108.14 69.899 107.621 69.899H105.163V77.655ZM116.349 79.4473H114.208V68.1067H118.808C119.622 68.1067 120.331 68.2548 120.933 68.5508C121.547 68.8363 122.022 69.2382 122.361 69.7563C122.71 70.2744 122.884 70.8771 122.884 71.5644C122.884 72.2517 122.71 72.8597 122.361 73.3884C122.022 73.9065 121.547 74.3136 120.933 74.6097C120.331 74.8952 119.622 75.0379 118.808 75.0379H116.191V73.2298H118.808C119.4 73.2298 119.865 73.0818 120.204 72.7857C120.542 72.4896 120.711 72.0825 120.711 71.5644C120.711 71.0569 120.542 70.6551 120.204 70.359C119.865 70.0629 119.4 69.9149 118.808 69.9149H116.349V79.4473ZM124.584 79.4473V77.6391H126.059C126.429 77.6391 126.741 77.581 126.995 77.4647C127.259 77.3483 127.492 77.1527 127.693 76.8778C127.904 76.6029 128.121 76.2222 128.343 75.7358L131.912 68.1067H134.101L129.739 77.0364C129.453 77.6074 129.147 78.0727 128.819 78.4322C128.491 78.7811 128.11 79.0402 127.677 79.2094C127.254 79.368 126.752 79.4473 126.17 79.4473H124.584ZM128.105 76.9095L123.664 68.1067H125.853L129.691 75.9579L128.105 76.9095ZM139.357 75.4345C138.098 75.4345 137.115 75.1225 136.406 74.4987C135.709 73.8748 135.36 73.0025 135.36 71.8816V68.1067H137.501V71.6279C137.501 72.294 137.686 72.791 138.056 73.1188C138.437 73.436 138.997 73.5946 139.737 73.5946C140.234 73.5946 140.715 73.5259 141.181 73.3884C141.656 73.251 142.058 73.0712 142.386 72.8491L142.957 74.1656C142.534 74.578 142.011 74.8952 141.387 75.1172C140.763 75.3287 140.086 75.4345 139.357 75.4345ZM142.243 79.4473V68.1067H144.384V79.4473H142.243ZM155.438 76.9571H148.713V75.149H155.438V76.9571ZM157.754 79.4473H155.454L151.743 69.6135H152.377L148.666 79.4473H146.445L150.918 68.1067H153.281L157.754 79.4473ZM167.815 79.4473H159.837V68.1067H167.815V69.9149H161.978V77.6391H167.815V79.4473ZM167.514 74.6097H161.82V72.8016H167.514V74.6097ZM174.978 79.4473H172.837V69.7721H174.978V79.4473ZM178.531 69.9307H169.284V68.1067H178.531V69.9307ZM188.654 76.1482L190.065 77.5757C189.568 78.2101 188.913 78.723 188.099 79.1142C187.295 79.5054 186.412 79.701 185.45 79.701C184.572 79.701 183.769 79.5583 183.039 79.2728C182.31 78.9767 181.675 78.5643 181.136 78.0356C180.607 77.4964 180.195 76.8672 179.899 76.1482C179.613 75.4292 179.47 74.6361 179.47 73.7691C179.47 72.9232 179.618 72.1407 179.915 71.4217C180.221 70.6921 180.644 70.0629 181.183 69.5342C181.723 68.995 182.357 68.5826 183.087 68.2971C183.827 68.001 184.63 67.853 185.498 67.853C186.46 67.853 187.337 68.0486 188.13 68.4398C188.923 68.8311 189.568 69.3439 190.065 69.9783L188.654 71.4058C188.305 70.8983 187.856 70.4964 187.306 70.2004C186.766 69.8937 186.164 69.7404 185.498 69.7404C184.779 69.7404 184.134 69.9149 183.563 70.2638C183.002 70.6128 182.558 71.0886 182.23 71.6913C181.902 72.294 181.739 72.9866 181.739 73.7691C181.739 74.5515 181.902 75.2494 182.23 75.8627C182.558 76.4654 183.002 76.9412 183.563 77.2902C184.134 77.6391 184.779 77.8136 185.498 77.8136C186.164 77.8136 186.766 77.6656 187.306 77.3695C187.856 77.0628 188.305 76.6558 188.654 76.1482ZM198.285 79.4473V69.9149H195.827C195.235 69.9149 194.77 70.0629 194.431 70.359C194.093 70.6551 193.924 71.0569 193.924 71.5644C193.924 72.0825 194.093 72.4896 194.431 72.7857C194.77 73.0818 195.235 73.2298 195.827 73.2298H198.444V75.0379H195.827C195.013 75.0379 194.299 74.8952 193.686 74.6097C193.083 74.3136 192.607 73.9065 192.258 73.3884C191.92 72.8597 191.751 72.2517 191.751 71.5644C191.751 70.8771 191.92 70.2744 192.258 69.7563C192.607 69.2382 193.083 68.8363 193.686 68.5508C194.299 68.2548 195.013 68.1067 195.827 68.1067H200.427V79.4473H198.285ZM190.91 79.4473L194.701 74.1656H197.08L193.448 79.4473H190.91Z" fill="#2B2B2E"/>
<path d="M93.5031 44.4473V27.4365H104.756V30.1725H94.9782L96.7149 28.1978V44.4473H93.5031ZM110.581 44.4473H107.369V27.4365H114.269C115.49 27.4365 116.553 27.6585 117.457 28.1026C118.377 28.5309 119.09 29.1336 119.598 29.9108C120.121 30.688 120.383 31.592 120.383 32.623C120.383 33.6539 120.121 34.5659 119.598 35.359C119.09 36.1362 118.377 36.7468 117.457 37.1909C116.553 37.6192 115.49 37.8333 114.269 37.8333H110.343V35.1211H114.269C115.157 35.1211 115.855 34.899 116.362 34.4549C116.87 34.0108 117.124 33.4002 117.124 32.623C117.124 31.8617 116.87 31.259 116.362 30.8148C115.855 30.3707 115.157 30.1487 114.269 30.1487H110.581V44.4473ZM133.229 40.712H123.142V37.9998H133.229V40.712ZM136.703 44.4473H133.253L127.686 29.6967H128.638L123.071 44.4473H119.74L126.449 27.4365H129.994L136.703 44.4473ZM150.146 42.6153H147.767L141.129 28.745L142.794 28.7212V44.4473H139.702V27.4365H143.413L149.623 40.4741H148.314L154.524 27.4365H158.187V44.4473H155.047V28.7212L156.784 28.745L150.146 42.6153ZM170.768 44.8279C169.451 44.8279 168.238 44.6059 167.128 44.1618C166.033 43.7177 165.074 43.0991 164.249 42.306C163.424 41.513 162.79 40.5772 162.346 39.4987C161.901 38.4043 161.679 37.2147 161.679 35.93C161.679 34.6452 161.901 33.4636 162.346 32.3851C162.79 31.3065 163.424 30.3707 164.249 29.5777C165.074 28.7847 166.033 28.1661 167.128 27.722C168.238 27.2779 169.451 27.0558 170.768 27.0558C172.084 27.0558 173.29 27.2779 174.384 27.722C175.494 28.1661 176.462 28.7847 177.286 29.5777C178.111 30.3707 178.746 31.3065 179.19 32.3851C179.634 33.4636 179.856 34.6452 179.856 35.93C179.856 37.2147 179.634 38.4043 179.19 39.4987C178.746 40.5772 178.111 41.513 177.286 42.306C176.462 43.0991 175.494 43.7177 174.384 44.1618C173.29 44.6059 172.084 44.8279 170.768 44.8279ZM170.768 41.9968C171.894 41.9968 172.885 41.7351 173.742 41.2116C174.598 40.6882 175.264 39.9745 175.74 39.0704C176.232 38.1505 176.478 37.1037 176.478 35.93C176.478 34.7563 176.232 33.7174 175.74 32.8133C175.264 31.9092 174.598 31.1955 173.742 30.6721C172.885 30.1487 171.894 29.887 170.768 29.887C169.657 29.887 168.666 30.1487 167.794 30.6721C166.937 31.1955 166.263 31.9092 165.771 32.8133C165.296 33.7174 165.058 34.7563 165.058 35.93C165.058 37.1037 165.296 38.1505 165.771 39.0704C166.263 39.9745 166.937 40.6882 167.794 41.2116C168.666 41.7351 169.657 41.9968 170.768 41.9968ZM189.653 44.4473H186.441V29.9346H189.653V44.4473ZM194.982 30.1725H181.112V27.4365H194.982V30.1725ZM207.35 40.712H197.263V37.9998H207.35V40.712ZM210.824 44.4473H207.374L201.807 29.6967H202.759L197.191 44.4473H193.861L200.57 27.4365H204.115L210.824 44.4473Z" fill="#2B2B2E"/>
<rect y="200" width="200.904" height="58.1565" transform="rotate(-90 0 200)" fill="#C3BEFF"/>
<g filter="url(#filter0_d_1031_3356)">
<path d="M5.11316 51.6136L26.0529 14.9565L28.3702 16.2802L6.38609 56.542L5.11316 51.6136Z" fill="#B7FB96"/>
</g>
<g filter="url(#filter1_d_1031_3356)">
<path d="M30.8876 110.432L51.8273 73.7748L54.1446 75.0985L32.1605 115.36L30.8876 110.432Z" fill="#B7FB96"/>
</g>
<g filter="url(#filter2_d_1031_3356)">
<path d="M1.80945 195.026L22.7492 158.369L25.0665 159.692L3.08238 199.954L1.80945 195.026Z" fill="#B7FB96"/>
</g>
<g filter="url(#filter3_d_1031_3356)">
<path d="M3.30371 127.965H16.5211" stroke="#E9F993" stroke-width="1.98261"/>
</g>
<g filter="url(#filter4_d_1031_3356)">
<path d="M3.30371 104.174L9.91241 94.2608" stroke="#F8C3C3" stroke-width="1.98261"/>
</g>
<g filter="url(#filter5_d_1031_3356)">
<path d="M15.8618 83.6875H29.0792" stroke="#F8C3C3" stroke-width="1.98261"/>
</g>
<g filter="url(#filter6_d_1031_3356)">
<path d="M285.496 200L285.496 -0.904346" stroke="#F8C3C3" stroke-width="1.98261"/>
</g>
<g filter="url(#filter7_d_1031_3356)">
<path d="M18.5044 71.1348L26.4348 58.5782" stroke="#E9F993" stroke-width="1.98261"/>
</g>
<g filter="url(#filter8_d_1031_3356)">
<path d="M35.6875 129.291H48.9049" stroke="#F8C3C3" stroke-width="1.98261"/>
</g>
<g filter="url(#filter9_d_1031_3356)">
<path d="M25.7744 178.854H38.9918" stroke="#E9F993" stroke-width="1.98261"/>
</g>
<g filter="url(#filter10_d_1031_3356)">
<path d="M279.548 200L279.548 -0.904346" stroke="#E9F993" stroke-width="1.98261"/>
</g>
<g filter="url(#filter11_d_1031_3356)">
<path d="M29.0781 158.367L35.6868 148.454" stroke="#F8C3C3" stroke-width="1.98261"/>
</g>
<g filter="url(#filter12_d_1031_3356)">
<path d="M42.2959 48.6621H55.5133" stroke="#F8C3C3" stroke-width="1.98261"/>
</g>
<g filter="url(#filter13_d_1031_3356)">
<path d="M3.30371 7.02734H16.5211" stroke="#E9F993" stroke-width="1.98261"/>
</g>
<g filter="url(#filter14_d_1031_3356)">
<path d="M38.4263 29.5684L46.1655 18.8537" stroke="#F8C3C3" stroke-width="1.98261"/>
</g>
</g>
<rect x="0.5" y="199.5" width="199" height="303" rx="11.5" transform="rotate(-90 0.5 199.5)" stroke="#959596"/>
<defs>
<filter id="filter0_d_1031_3356" x="3.79154" y="14.957" width="25.9003" height="45.5512" filterUnits="userSpaceOnUse" color-interpolation-filters="sRGB">
<feFlood flood-opacity="0" result="BackgroundImageFix"/>
<feColorMatrix in="SourceAlpha" type="matrix" values="0 0 0 0 0 0 0 0 0 0 0 0 0 0 0 0 0 0 127 0" result="hardAlpha"/>
<feOffset dy="2.64348"/>
<feGaussianBlur stdDeviation="0.66087"/>
<feComposite in2="hardAlpha" operator="out"/>
<feColorMatrix type="matrix" values="0 0 0 0 0 0 0 0 0 0 0 0 0 0 0 0 0 0 0.25 0"/>
<feBlend mode="normal" in2="BackgroundImageFix" result="effect1_dropShadow_1031_3356"/>
<feBlend mode="normal" in="SourceGraphic" in2="effect1_dropShadow_1031_3356" result="shape"/>
</filter>
<filter id="filter1_d_1031_3356" x="29.566" y="73.7754" width="25.9003" height="45.5512" filterUnits="userSpaceOnUse" color-interpolation-filters="sRGB">
<feFlood flood-opacity="0" result="BackgroundImageFix"/>
<feColorMatrix in="SourceAlpha" type="matrix" values="0 0 0 0 0 0 0 0 0 0 0 0 0 0 0 0 0 0 127 0" result="hardAlpha"/>
<feOffset dy="2.64348"/>
<feGaussianBlur stdDeviation="0.66087"/>
<feComposite in2="hardAlpha" operator="out"/>
<feColorMatrix type="matrix" values="0 0 0 0 0 0 0 0 0 0 0 0 0 0 0 0 0 0 0.25 0"/>
<feBlend mode="normal" in2="BackgroundImageFix" result="effect1_dropShadow_1031_3356"/>
<feBlend mode="normal" in="SourceGraphic" in2="effect1_dropShadow_1031_3356" result="shape"/>
</filter>
<filter id="filter2_d_1031_3356" x="0.487831" y="158.369" width="25.9003" height="45.5512" filterUnits="userSpaceOnUse" color-interpolation-filters="sRGB">
<feFlood flood-opacity="0" result="BackgroundImageFix"/>
<feColorMatrix in="SourceAlpha" type="matrix" values="0 0 0 0 0 0 0 0 0 0 0 0 0 0 0 0 0 0 127 0" result="hardAlpha"/>
<feOffset dy="2.64348"/>
<feGaussianBlur stdDeviation="0.66087"/>
<feComposite in2="hardAlpha" operator="out"/>
<feColorMatrix type="matrix" values="0 0 0 0 0 0 0 0 0 0 0 0 0 0 0 0 0 0 0.25 0"/>
<feBlend mode="normal" in2="BackgroundImageFix" result="effect1_dropShadow_1031_3356"/>
<feBlend mode="normal" in="SourceGraphic" in2="effect1_dropShadow_1031_3356" result="shape"/>
</filter>
<filter id="filter3_d_1031_3356" x="0.660233" y="126.973" width="18.5042" height="7.27133" filterUnits="userSpaceOnUse" color-interpolation-filters="sRGB">
<feFlood flood-opacity="0" result="BackgroundImageFix"/>
<feColorMatrix in="SourceAlpha" type="matrix" values="0 0 0 0 0 0 0 0 0 0 0 0 0 0 0 0 0 0 127 0" result="hardAlpha"/>
<feOffset dy="2.64348"/>
<feGaussianBlur stdDeviation="1.32174"/>
<feComposite in2="hardAlpha" operator="out"/>
<feColorMatrix type="matrix" values="0 0 0 0 0 0 0 0 0 0 0 0 0 0 0 0 0 0 0.25 0"/>
<feBlend mode="normal" in2="BackgroundImageFix" result="effect1_dropShadow_1031_3356"/>
<feBlend mode="normal" in="SourceGraphic" in2="effect1_dropShadow_1031_3356" result="shape"/>
</filter>
<filter id="filter4_d_1031_3356" x="-0.164474" y="93.7109" width="13.5453" height="16.3006" filterUnits="userSpaceOnUse" color-interpolation-filters="sRGB">
<feFlood flood-opacity="0" result="BackgroundImageFix"/>
<feColorMatrix in="SourceAlpha" type="matrix" values="0 0 0 0 0 0 0 0 0 0 0 0 0 0 0 0 0 0 127 0" result="hardAlpha"/>
<feOffset dy="2.64348"/>
<feGaussianBlur stdDeviation="1.32174"/>
<feComposite in2="hardAlpha" operator="out"/>
<feColorMatrix type="matrix" values="0 0 0 0 0 0 0 0 0 0 0 0 0 0 0 0 0 0 0.25 0"/>
<feBlend mode="normal" in2="BackgroundImageFix" result="effect1_dropShadow_1031_3356"/>
<feBlend mode="normal" in="SourceGraphic" in2="effect1_dropShadow_1031_3356" result="shape"/>
</filter>
<filter id="filter5_d_1031_3356" x="13.2183" y="82.6953" width="18.5042" height="7.27133" filterUnits="userSpaceOnUse" color-interpolation-filters="sRGB">
<feFlood flood-opacity="0" result="BackgroundImageFix"/>
<feColorMatrix in="SourceAlpha" type="matrix" values="0 0 0 0 0 0 0 0 0 0 0 0 0 0 0 0 0 0 127 0" result="hardAlpha"/>
<feOffset dy="2.64348"/>
<feGaussianBlur stdDeviation="1.32174"/>
<feComposite in2="hardAlpha" operator="out"/>
<feColorMatrix type="matrix" values="0 0 0 0 0 0 0 0 0 0 0 0 0 0 0 0 0 0 0.25 0"/>
<feBlend mode="normal" in2="BackgroundImageFix" result="effect1_dropShadow_1031_3356"/>
<feBlend mode="normal" in="SourceGraphic" in2="effect1_dropShadow_1031_3356" result="shape"/>
</filter>
<filter id="filter6_d_1031_3356" x="281.861" y="-0.904297" width="7.26938" height="206.191" filterUnits="userSpaceOnUse" color-interpolation-filters="sRGB">
<feFlood flood-opacity="0" result="BackgroundImageFix"/>
<feColorMatrix in="SourceAlpha" type="matrix" values="0 0 0 0 0 0 0 0 0 0 0 0 0 0 0 0 0 0 127 0" result="hardAlpha"/>
<feOffset dy="2.64348"/>
<feGaussianBlur stdDeviation="1.32174"/>
<feComposite in2="hardAlpha" operator="out"/>
<feColorMatrix type="matrix" values="0 0 0 0 0 0 0 0 0 0 0 0 0 0 0 0 0 0 0.25 0"/>
<feBlend mode="normal" in2="BackgroundImageFix" result="effect1_dropShadow_1031_3356"/>
<feBlend mode="normal" in="SourceGraphic" in2="effect1_dropShadow_1031_3356" result="shape"/>
</filter>
<filter id="filter7_d_1031_3356" x="15.0225" y="58.0488" width="14.8939" height="18.9022" filterUnits="userSpaceOnUse" color-interpolation-filters="sRGB">
<feFlood flood-opacity="0" result="BackgroundImageFix"/>
<feColorMatrix in="SourceAlpha" type="matrix" values="0 0 0 0 0 0 0 0 0 0 0 0 0 0 0 0 0 0 127 0" result="hardAlpha"/>
<feOffset dy="2.64348"/>
<feGaussianBlur stdDeviation="1.32174"/>
<feComposite in2="hardAlpha" operator="out"/>
<feColorMatrix type="matrix" values="0 0 0 0 0 0 0 0 0 0 0 0 0 0 0 0 0 0 0.25 0"/>
<feBlend mode="normal" in2="BackgroundImageFix" result="effect1_dropShadow_1031_3356"/>
<feBlend mode="normal" in="SourceGraphic" in2="effect1_dropShadow_1031_3356" result="shape"/>
</filter>
<filter id="filter8_d_1031_3356" x="33.044" y="128.299" width="18.5042" height="7.27133" filterUnits="userSpaceOnUse" color-interpolation-filters="sRGB">
<feFlood flood-opacity="0" result="BackgroundImageFix"/>
<feColorMatrix in="SourceAlpha" type="matrix" values="0 0 0 0 0 0 0 0 0 0 0 0 0 0 0 0 0 0 127 0" result="hardAlpha"/>
<feOffset dy="2.64348"/>
<feGaussianBlur stdDeviation="1.32174"/>
<feComposite in2="hardAlpha" operator="out"/>
<feColorMatrix type="matrix" values="0 0 0 0 0 0 0 0 0 0 0 0 0 0 0 0 0 0 0.25 0"/>
<feBlend mode="normal" in2="BackgroundImageFix" result="effect1_dropShadow_1031_3356"/>
<feBlend mode="normal" in="SourceGraphic" in2="effect1_dropShadow_1031_3356" result="shape"/>
</filter>
<filter id="filter9_d_1031_3356" x="23.1309" y="177.861" width="18.5042" height="7.27133" filterUnits="userSpaceOnUse" color-interpolation-filters="sRGB">
<feFlood flood-opacity="0" result="BackgroundImageFix"/>
<feColorMatrix in="SourceAlpha" type="matrix" values="0 0 0 0 0 0 0 0 0 0 0 0 0 0 0 0 0 0 127 0" result="hardAlpha"/>
<feOffset dy="2.64348"/>
<feGaussianBlur stdDeviation="1.32174"/>
<feComposite in2="hardAlpha" operator="out"/>
<feColorMatrix type="matrix" values="0 0 0 0 0 0 0 0 0 0 0 0 0 0 0 0 0 0 0.25 0"/>
<feBlend mode="normal" in2="BackgroundImageFix" result="effect1_dropShadow_1031_3356"/>
<feBlend mode="normal" in="SourceGraphic" in2="effect1_dropShadow_1031_3356" result="shape"/>
</filter>
<filter id="filter10_d_1031_3356" x="275.913" y="-0.904297" width="7.26938" height="206.191" filterUnits="userSpaceOnUse" color-interpolation-filters="sRGB">
<feFlood flood-opacity="0" result="BackgroundImageFix"/>
<feColorMatrix in="SourceAlpha" type="matrix" values="0 0 0 0 0 0 0 0 0 0 0 0 0 0 0 0 0 0 127 0" result="hardAlpha"/>
<feOffset dy="2.64348"/>
<feGaussianBlur stdDeviation="1.32174"/>
<feComposite in2="hardAlpha" operator="out"/>
<feColorMatrix type="matrix" values="0 0 0 0 0 0 0 0 0 0 0 0 0 0 0 0 0 0 0.25 0"/>
<feBlend mode="normal" in2="BackgroundImageFix" result="effect1_dropShadow_1031_3356"/>
<feBlend mode="normal" in="SourceGraphic" in2="effect1_dropShadow_1031_3356" result="shape"/>
</filter>
<filter id="filter11_d_1031_3356" x="25.6099" y="147.904" width="13.5453" height="16.3006" filterUnits="userSpaceOnUse" color-interpolation-filters="sRGB">
<feFlood flood-opacity="0" result="BackgroundImageFix"/>
<feColorMatrix in="SourceAlpha" type="matrix" values="0 0 0 0 0 0 0 0 0 0 0 0 0 0 0 0 0 0 127 0" result="hardAlpha"/>
<feOffset dy="2.64348"/>
<feGaussianBlur stdDeviation="1.32174"/>
<feComposite in2="hardAlpha" operator="out"/>
<feColorMatrix type="matrix" values="0 0 0 0 0 0 0 0 0 0 0 0 0 0 0 0 0 0 0.25 0"/>
<feBlend mode="normal" in2="BackgroundImageFix" result="effect1_dropShadow_1031_3356"/>
<feBlend mode="normal" in="SourceGraphic" in2="effect1_dropShadow_1031_3356" result="shape"/>
</filter>
<filter id="filter12_d_1031_3356" x="39.6524" y="47.6699" width="18.5042" height="7.27133" filterUnits="userSpaceOnUse" color-interpolation-filters="sRGB">
<feFlood flood-opacity="0" result="BackgroundImageFix"/>
<feColorMatrix in="SourceAlpha" type="matrix" values="0 0 0 0 0 0 0 0 0 0 0 0 0 0 0 0 0 0 127 0" result="hardAlpha"/>
<feOffset dy="2.64348"/>
<feGaussianBlur stdDeviation="1.32174"/>
<feComposite in2="hardAlpha" operator="out"/>
<feColorMatrix type="matrix" values="0 0 0 0 0 0 0 0 0 0 0 0 0 0 0 0 0 0 0.25 0"/>
<feBlend mode="normal" in2="BackgroundImageFix" result="effect1_dropShadow_1031_3356"/>
<feBlend mode="normal" in="SourceGraphic" in2="effect1_dropShadow_1031_3356" result="shape"/>
</filter>
<filter id="filter13_d_1031_3356" x="0.660233" y="6.03516" width="18.5042" height="7.27133" filterUnits="userSpaceOnUse" color-interpolation-filters="sRGB">
<feFlood flood-opacity="0" result="BackgroundImageFix"/>
<feColorMatrix in="SourceAlpha" type="matrix" values="0 0 0 0 0 0 0 0 0 0 0 0 0 0 0 0 0 0 127 0" result="hardAlpha"/>
<feOffset dy="2.64348"/>
<feGaussianBlur stdDeviation="1.32174"/>
<feComposite in2="hardAlpha" operator="out"/>
<feColorMatrix type="matrix" values="0 0 0 0 0 0 0 0 0 0 0 0 0 0 0 0 0 0 0.25 0"/>
<feBlend mode="normal" in2="BackgroundImageFix" result="effect1_dropShadow_1031_3356"/>
<feBlend mode="normal" in="SourceGraphic" in2="effect1_dropShadow_1031_3356" result="shape"/>
</filter>
<filter id="filter14_d_1031_3356" x="34.9791" y="18.2734" width="14.6336" height="17.162" filterUnits="userSpaceOnUse" color-interpolation-filters="sRGB">
<feFlood flood-opacity="0" result="BackgroundImageFix"/>
<feColorMatrix in="SourceAlpha" type="matrix" values="0 0 0 0 0 0 0 0 0 0 0 0 0 0 0 0 0 0 127 0" result="hardAlpha"/>
<feOffset dy="2.64348"/>
<feGaussianBlur stdDeviation="1.32174"/>
<feComposite in2="hardAlpha" operator="out"/>
<feColorMatrix type="matrix" values="0 0 0 0 0 0 0 0 0 0 0 0 0 0 0 0 0 0 0.25 0"/>
<feBlend mode="normal" in2="BackgroundImageFix" result="effect1_dropShadow_1031_3356"/>
<feBlend mode="normal" in="SourceGraphic" in2="effect1_dropShadow_1031_3356" result="shape"/>
</filter>
<clipPath id="clip0_1031_3356">
<rect y="200" width="200" height="304" rx="12" transform="rotate(-90 0 200)" fill="white"/>
</clipPath>
</defs>
</svg>
