<svg width="304" height="199" viewBox="0 0 304 199" fill="none" xmlns="http://www.w3.org/2000/svg">
<g clip-path="url(#clip0_1031_3306)">
<rect y="199" width="199" height="304" rx="12" transform="rotate(-90 0 199)" fill="white"/>
<rect x="220" y="19.7305" width="4" height="4" rx="2" fill="#667080" fill-opacity="0.62"/>
<rect x="220" y="31.7305" width="4" height="4" rx="2" fill="#667080" fill-opacity="0.62"/>
<rect x="220" y="43.7285" width="4" height="4" rx="2" fill="#667080" fill-opacity="0.62"/>
<rect x="220" y="55.7285" width="4" height="4" rx="2" fill="#667080" fill-opacity="0.62"/>
<rect x="220" y="67.7305" width="4" height="4" rx="2" fill="#667080" fill-opacity="0.62"/>
<rect x="220" y="79.7305" width="4" height="4" rx="2" fill="#667080" fill-opacity="0.62"/>
<rect x="232.001" y="19.7305" width="4" height="4" rx="2" fill="#667080" fill-opacity="0.62"/>
<rect x="232.001" y="31.7305" width="4" height="4" rx="2" fill="#667080" fill-opacity="0.62"/>
<rect x="232.001" y="43.7285" width="4" height="4" rx="2" fill="#667080" fill-opacity="0.62"/>
<rect x="232.001" y="55.7285" width="4" height="4" rx="2" fill="#667080" fill-opacity="0.62"/>
<rect x="232.001" y="67.7305" width="4" height="4" rx="2" fill="#667080" fill-opacity="0.62"/>
<rect x="232.001" y="79.7305" width="4" height="4" rx="2" fill="#667080" fill-opacity="0.62"/>
<rect x="244" y="19.7305" width="4" height="4" rx="2" fill="#667080" fill-opacity="0.62"/>
<rect x="244" y="31.7305" width="4" height="4" rx="2" fill="#667080" fill-opacity="0.62"/>
<rect x="244" y="43.7285" width="4" height="4" rx="2" fill="#667080" fill-opacity="0.62"/>
<rect x="244" y="55.7285" width="4" height="4" rx="2" fill="#667080" fill-opacity="0.62"/>
<rect x="244" y="67.7305" width="4" height="4" rx="2" fill="#667080" fill-opacity="0.62"/>
<rect x="244" y="79.7305" width="4" height="4" rx="2" fill="#667080" fill-opacity="0.62"/>
<rect x="256" y="19.7305" width="4" height="4" rx="2" fill="#667080" fill-opacity="0.62"/>
<rect x="256" y="31.7305" width="4" height="4" rx="2" fill="#667080" fill-opacity="0.62"/>
<rect x="256" y="43.7285" width="4" height="4" rx="2" fill="#667080" fill-opacity="0.62"/>
<rect x="256" y="55.7285" width="4" height="4" rx="2" fill="#667080" fill-opacity="0.62"/>
<rect x="256" y="67.7305" width="4" height="4" rx="2" fill="#667080" fill-opacity="0.62"/>
<rect x="256" y="79.7305" width="4" height="4" rx="2" fill="#667080" fill-opacity="0.62"/>
<rect x="268" y="19.7305" width="4" height="4" rx="2" fill="#667080" fill-opacity="0.62"/>
<rect x="268" y="31.7305" width="4" height="4" rx="2" fill="#667080" fill-opacity="0.62"/>
<rect x="268" y="43.7285" width="4" height="4" rx="2" fill="#667080" fill-opacity="0.62"/>
<rect x="268" y="55.7285" width="4" height="4" rx="2" fill="#667080" fill-opacity="0.62"/>
<rect x="268" y="67.7305" width="4" height="4" rx="2" fill="#667080" fill-opacity="0.62"/>
<rect x="268" y="79.7305" width="4" height="4" rx="2" fill="#667080" fill-opacity="0.62"/>
<rect x="280" y="19.7305" width="4" height="4" rx="2" fill="#667080" fill-opacity="0.62"/>
<rect x="280" y="31.7305" width="4" height="4" rx="2" fill="#667080" fill-opacity="0.62"/>
<rect x="280" y="43.7285" width="4" height="4" rx="2" fill="#667080" fill-opacity="0.62"/>
<rect x="280" y="55.7285" width="4" height="4" rx="2" fill="#667080" fill-opacity="0.62"/>
<rect x="280" y="67.7305" width="4" height="4" rx="2" fill="#667080" fill-opacity="0.62"/>
<rect x="280" y="79.7305" width="4" height="4" rx="2" fill="#667080" fill-opacity="0.62"/>
<rect width="304" height="76" transform="translate(0 123)" fill="#ECEFA9"/>
<path opacity="0.2" d="M51.0798 156.852V146.842H57.2818V147.808H51.5698L52.1578 147.08V156.852H51.0798ZM60.0832 157.076C59.3832 157.076 58.7578 156.917 58.2072 156.6C57.6565 156.282 57.2225 155.848 56.9052 155.298C56.5972 154.747 56.4432 154.117 56.4432 153.408C56.4432 152.698 56.5972 152.068 56.9052 151.518C57.2225 150.967 57.6565 150.533 58.2072 150.216C58.7578 149.898 59.3832 149.74 60.0832 149.74C60.7925 149.74 61.4178 149.898 61.9592 150.216C62.5098 150.533 62.9392 150.967 63.2472 151.518C63.5645 152.068 63.7232 152.698 63.7232 153.408C63.7232 154.117 63.5645 154.747 63.2472 155.298C62.9392 155.848 62.5098 156.282 61.9592 156.6C61.4178 156.917 60.7925 157.076 60.0832 157.076ZM60.0832 156.166C60.5872 156.166 61.0305 156.049 61.4132 155.816C61.7958 155.582 62.0945 155.26 62.3092 154.85C62.5238 154.43 62.6312 153.949 62.6312 153.408C62.6312 152.866 62.5238 152.39 62.3092 151.98C62.0945 151.56 61.7958 151.233 61.4132 151C61.0305 150.766 60.5872 150.65 60.0832 150.65C59.5792 150.65 59.1358 150.766 58.7532 151C58.3705 151.233 58.0718 151.56 57.8572 151.98C57.6425 152.39 57.5352 152.866 57.5352 153.408C57.5352 153.949 57.6425 154.43 57.8572 154.85C58.0718 155.26 58.3705 155.582 58.7532 155.816C59.1358 156.049 59.5792 156.166 60.0832 156.166ZM64.4313 156.572V155.97H64.7113C64.898 155.97 65.0427 155.928 65.1453 155.844C65.2573 155.75 65.3413 155.601 65.3973 155.396C65.4627 155.19 65.514 154.91 65.5513 154.556L66.0973 149.964H70.8573V156.432H69.8213V150.174L70.5493 150.846H66.2513L67.0913 150.174L66.5313 154.64C66.4753 155.116 66.3867 155.494 66.2653 155.774C66.144 156.054 65.9713 156.259 65.7473 156.39C65.5327 156.511 65.234 156.572 64.8513 156.572H64.4313ZM64.1513 158.644V155.97H71.8373V158.644H70.8573V156.11L71.5853 156.852H64.7253L65.1313 156.11V158.644H64.1513Z" fill="#2B2B2E"/>
<path d="M102.001 164.352H20.001V165.352H102.001V164.352Z" fill="#2B2B2E" mask="url(#path-39-inside-1_1031_3306)"/>
<path opacity="0.2" d="M191.342 156.852V146.842H199.294V156.852H198.216V147.08L198.804 147.808H191.832L192.42 147.08V156.852H191.342ZM204.679 157.076C203.979 157.076 203.354 156.917 202.803 156.6C202.253 156.282 201.819 155.848 201.501 155.298C201.193 154.747 201.039 154.117 201.039 153.408C201.039 152.698 201.193 152.068 201.501 151.518C201.819 150.967 202.253 150.533 202.803 150.216C203.354 149.898 203.979 149.74 204.679 149.74C205.389 149.74 206.014 149.898 206.555 150.216C207.106 150.533 207.535 150.967 207.843 151.518C208.161 152.068 208.319 152.698 208.319 153.408C208.319 154.117 208.161 154.747 207.843 155.298C207.535 155.848 207.106 156.282 206.555 156.6C206.014 156.917 205.389 157.076 204.679 157.076ZM204.679 156.166C205.183 156.166 205.627 156.049 206.009 155.816C206.392 155.582 206.691 155.26 206.905 154.85C207.12 154.43 207.227 153.949 207.227 153.408C207.227 152.866 207.12 152.39 206.905 151.98C206.691 151.56 206.392 151.233 206.009 151C205.627 150.766 205.183 150.65 204.679 150.65C204.175 150.65 203.732 150.766 203.349 151C202.967 151.233 202.668 151.56 202.453 151.98C202.239 152.39 202.131 152.866 202.131 153.408C202.131 153.949 202.239 154.43 202.453 154.85C202.668 155.26 202.967 155.582 203.349 155.816C203.732 156.049 204.175 156.166 204.679 156.166ZM209.028 156.572V155.97H209.308C209.494 155.97 209.639 155.928 209.742 155.844C209.854 155.75 209.938 155.601 209.994 155.396C210.059 155.19 210.11 154.91 210.148 154.556L210.694 149.964H215.454V156.432H214.418V150.174L215.146 150.846H210.848L211.688 150.174L211.128 154.64C211.072 155.116 210.983 155.494 210.862 155.774C210.74 156.054 210.568 156.259 210.344 156.39C210.129 156.511 209.83 156.572 209.448 156.572H209.028ZM208.748 158.644V155.97H216.434V158.644H215.454V156.11L216.182 156.852H209.322L209.728 156.11V158.644H208.748ZM218.002 156.852V149.964H224.092V156.852H223.056V150.174L223.784 150.846H218.17L219.038 150.174V156.852H218.002ZM226.088 156.852V149.964H227.124V155.466L227.012 155.424L231.492 149.964H232.388V156.852H231.352V151.35L231.464 151.392L226.984 156.852H226.088ZM239.643 155.06L240.385 155.746C240.068 156.156 239.666 156.483 239.181 156.726C238.705 156.959 238.164 157.076 237.557 157.076C236.857 157.076 236.232 156.917 235.681 156.6C235.14 156.282 234.71 155.848 234.393 155.298C234.085 154.747 233.931 154.117 233.931 153.408C233.931 152.698 234.085 152.068 234.393 151.518C234.71 150.967 235.144 150.533 235.695 150.216C236.246 149.898 236.871 149.74 237.571 149.74C238.178 149.74 238.719 149.861 239.195 150.104C239.671 150.337 240.068 150.659 240.385 151.07L239.643 151.756C239.419 151.42 239.139 151.154 238.803 150.958C238.467 150.752 238.056 150.65 237.571 150.65C237.067 150.65 236.624 150.766 236.241 151C235.858 151.233 235.56 151.56 235.345 151.98C235.13 152.39 235.023 152.866 235.023 153.408C235.023 153.949 235.13 154.43 235.345 154.85C235.56 155.26 235.858 155.582 236.241 155.816C236.624 156.049 237.067 156.166 237.571 156.166C238.056 156.166 238.467 156.068 238.803 155.872C239.139 155.666 239.419 155.396 239.643 155.06ZM241.782 156.852V149.964H242.818V156.684L242.174 155.97H245.072C245.539 155.97 245.898 155.858 246.15 155.634C246.411 155.4 246.542 155.083 246.542 154.682C246.542 154.29 246.411 153.982 246.15 153.758C245.898 153.534 245.539 153.422 245.072 153.422H242.244V152.54H245.072C245.828 152.54 246.439 152.74 246.906 153.142C247.382 153.534 247.62 154.047 247.62 154.682C247.62 155.092 247.508 155.461 247.284 155.788C247.06 156.114 246.757 156.376 246.374 156.572C245.991 156.758 245.557 156.852 245.072 156.852H241.782Z" fill="#2B2B2E"/>
<path d="M260.001 164.352H178.001V165.352H260.001V164.352Z" fill="#2B2B2E" mask="url(#path-42-inside-2_1031_3306)"/>
<path d="M35.097 38.7385L37.233 40.8985C36.481 41.8585 35.489 42.6345 34.257 43.2265C33.041 43.8185 31.705 44.1145 30.249 44.1145C28.921 44.1145 27.705 43.8985 26.601 43.4665C25.497 43.0185 24.537 42.3945 23.721 41.5945C22.921 40.7785 22.297 39.8265 21.849 38.7385C21.417 37.6505 21.201 36.4505 21.201 35.1385C21.201 33.8585 21.425 32.6745 21.873 31.5865C22.337 30.4825 22.977 29.5305 23.793 28.7305C24.609 27.9145 25.569 27.2905 26.673 26.8585C27.793 26.4105 29.009 26.1865 30.321 26.1865C31.777 26.1865 33.105 26.4825 34.305 27.0745C35.505 27.6665 36.481 28.4425 37.233 29.4025L35.097 31.5625C34.569 30.7945 33.889 30.1865 33.057 29.7385C32.241 29.2745 31.329 29.0425 30.321 29.0425C29.233 29.0425 28.257 29.3065 27.393 29.8345C26.545 30.3625 25.873 31.0825 25.377 31.9945C24.881 32.9065 24.633 33.9545 24.633 35.1385C24.633 36.3225 24.881 37.3785 25.377 38.3065C25.873 39.2185 26.545 39.9385 27.393 40.4665C28.257 40.9945 29.233 41.2585 30.321 41.2585C31.329 41.2585 32.241 41.0345 33.057 40.5865C33.889 40.1225 34.569 39.5065 35.097 38.7385ZM49.9312 39.9625L51.6112 41.9065C51.0032 42.5945 50.2192 43.1385 49.2592 43.5385C48.3152 43.9225 47.2672 44.1145 46.1152 44.1145C44.7232 44.1145 43.4992 43.8425 42.4432 43.2985C41.3872 42.7545 40.5632 42.0025 39.9712 41.0425C39.3792 40.0825 39.0832 38.9705 39.0832 37.7065C39.0832 36.4425 39.3632 35.3305 39.9232 34.3705C40.4992 33.3945 41.2752 32.6345 42.2512 32.0905C43.2432 31.5465 44.3552 31.2745 45.5872 31.2745C46.7872 31.2745 47.8512 31.5465 48.7792 32.0905C49.7232 32.6185 50.4592 33.3545 50.9872 34.2985C51.5152 35.2425 51.7792 36.3385 51.7792 37.5865V37.7305H48.6832V37.3945C48.6832 36.6585 48.5472 36.0185 48.2752 35.4745C48.0192 34.9305 47.6592 34.5065 47.1952 34.2025C46.7472 33.8985 46.2112 33.7465 45.5872 33.7465C44.9312 33.7465 44.3552 33.9065 43.8592 34.2265C43.3632 34.5305 42.9712 34.9785 42.6832 35.5705C42.4112 36.1465 42.2752 36.8345 42.2752 37.6345C42.2752 38.4825 42.4432 39.2105 42.7792 39.8185C43.1312 40.4105 43.6032 40.8665 44.1952 41.1865C44.8032 41.4905 45.4992 41.6425 46.2832 41.6425C47.7232 41.6425 48.9392 41.0825 49.9312 39.9625ZM51.7792 38.6665H41.1232V36.6505H51.3952L51.7792 37.5865V38.6665ZM57.9756 48.3865H54.8076V31.6585H57.9516V35.4025H57.2796C57.3916 34.6185 57.6556 33.9145 58.0716 33.2905C58.5036 32.6665 59.0636 32.1785 59.7516 31.8265C60.4396 31.4585 61.2236 31.2745 62.1036 31.2745C63.2076 31.2745 64.2156 31.5465 65.1276 32.0905C66.0396 32.6345 66.7596 33.3865 67.2876 34.3465C67.8316 35.3065 68.1036 36.4265 68.1036 37.7065C68.1036 38.9705 67.8316 40.0825 67.2876 41.0425C66.7436 42.0025 66.0156 42.7545 65.1036 43.2985C64.1916 43.8425 63.1676 44.1145 62.0316 44.1145C60.9916 44.1145 60.0956 43.8905 59.3436 43.4425C58.5916 42.9945 58.0236 42.3945 57.6396 41.6425C57.2556 40.8745 57.0876 40.0345 57.1356 39.1225L57.8076 38.6905C57.8876 39.2345 58.0876 39.7225 58.4076 40.1545C58.7276 40.5705 59.1356 40.8985 59.6316 41.1385C60.1436 41.3625 60.6956 41.4745 61.2876 41.4745C61.9916 41.4745 62.6076 41.3145 63.1356 40.9945C63.6636 40.6745 64.0716 40.2265 64.3596 39.6505C64.6636 39.0745 64.8156 38.4265 64.8156 37.7065C64.8156 36.9545 64.6716 36.2985 64.3836 35.7385C64.1116 35.1625 63.7196 34.7145 63.2076 34.3945C62.7116 34.0745 62.1196 33.9145 61.4316 33.9145C60.7596 33.9145 60.1596 34.0745 59.6316 34.3945C59.1196 34.7145 58.7116 35.1625 58.4076 35.7385C58.1196 36.2985 57.9756 36.9785 57.9756 37.7785V48.3865ZM73.5855 43.7305V32.7385H76.7535V43.7305H73.5855ZM69.5055 34.2025V31.6585H80.8335V34.2025H69.5055ZM83.3879 43.7305V31.6585H86.4119V39.6985L86.2439 39.6505L92.2919 31.6585H95.0759V43.7305H92.0519V35.6905L92.2199 35.7385L86.1719 43.7305H83.3879ZM106.208 44.1145C104.544 44.1145 103.096 43.8585 101.864 43.3465C100.648 42.8185 99.7119 42.0745 99.0559 41.1145C98.3999 40.1385 98.0719 39.0025 98.0719 37.7065C98.0719 36.3785 98.3999 35.2345 99.0559 34.2745C99.7119 33.3145 100.648 32.5785 101.864 32.0665C103.096 31.5385 104.544 31.2745 106.208 31.2745H107.432C109.096 31.2745 110.536 31.5385 111.752 32.0665C112.968 32.5785 113.904 33.3145 114.56 34.2745C115.232 35.2345 115.568 36.3785 115.568 37.7065C115.568 39.0025 115.232 40.1385 114.56 41.1145C113.904 42.0745 112.968 42.8185 111.752 43.3465C110.536 43.8585 109.096 44.1145 107.432 44.1145H106.208ZM106.208 41.5225H107.432C109.064 41.5225 110.312 41.1945 111.176 40.5385C112.04 39.8825 112.472 38.9385 112.472 37.7065C112.472 36.4585 112.04 35.5065 111.176 34.8505C110.312 34.1945 109.064 33.8665 107.432 33.8665H106.208C104.56 33.8665 103.304 34.1945 102.44 34.8505C101.592 35.4905 101.168 36.4425 101.168 37.7065C101.168 38.9385 101.592 39.8825 102.44 40.5385C103.304 41.1945 104.56 41.5225 106.208 41.5225ZM105.272 48.6265V42.8425L105.368 42.4585V33.1465L105.272 32.7385V26.4505H108.392V32.7385L108.296 33.1465V42.4585L108.392 42.8425V48.6265H105.272ZM118.554 43.7305V31.6585H121.578V39.6985L121.41 39.6505L127.458 31.6585H130.242V43.7305H127.218V35.6905L127.386 35.7385L121.338 43.7305H118.554ZM142.118 43.7305L136.382 37.4425H136.646L141.83 31.6585H145.622L139.454 38.5225L139.286 36.4105L146.102 43.7305H142.118ZM133.934 43.7305V31.6585H137.102V43.7305H133.934ZM158.851 43.7305H155.971V41.3065L155.827 40.9225V36.3865C155.827 35.5385 155.555 34.8825 155.011 34.4185C154.467 33.9545 153.723 33.7225 152.779 33.7225C152.091 33.7225 151.443 33.8585 150.835 34.1305C150.243 34.3865 149.723 34.7545 149.275 35.2345L147.619 33.3145C148.259 32.6745 149.035 32.1785 149.947 31.8265C150.859 31.4585 151.851 31.2745 152.923 31.2745C154.091 31.2745 155.123 31.4745 156.019 31.8745C156.915 32.2745 157.611 32.8505 158.107 33.6025C158.603 34.3385 158.851 35.2425 158.851 36.3145V43.7305ZM151.867 44.1145C150.939 44.1145 150.123 43.9465 149.419 43.6105C148.715 43.2745 148.163 42.8105 147.763 42.2185C147.379 41.6265 147.187 40.9385 147.187 40.1545C147.187 39.3225 147.427 38.6185 147.907 38.0425C148.387 37.4505 149.067 36.9945 149.947 36.6745C150.843 36.3545 151.875 36.1945 153.043 36.1945H156.139V38.2585H153.283C152.419 38.2585 151.723 38.4105 151.195 38.7145C150.667 39.0185 150.403 39.4585 150.403 40.0345C150.403 40.5625 150.603 40.9785 151.003 41.2825C151.419 41.5865 151.955 41.7385 152.611 41.7385C153.235 41.7385 153.803 41.6105 154.315 41.3545C154.827 41.0825 155.243 40.7145 155.563 40.2505C155.883 39.7865 156.067 39.2585 156.115 38.6665L157.027 39.0985C157.027 40.0905 156.811 40.9625 156.379 41.7145C155.947 42.4665 155.339 43.0585 154.555 43.4905C153.787 43.9065 152.891 44.1145 151.867 44.1145ZM165.092 43.7305V32.7385H168.26V43.7305H165.092ZM161.012 34.2025V31.6585H172.34V34.2025H161.012Z" fill="#2B2B2E"/>
<path d="M21.951 65.7324V54.2924H26.239C26.975 54.2924 27.615 54.4204 28.159 54.6764C28.703 54.9218 29.1243 55.2738 29.423 55.7324C29.7216 56.1804 29.871 56.7084 29.871 57.3164C29.871 57.8711 29.7216 58.3618 29.423 58.7884C29.1243 59.2151 28.703 59.5511 28.159 59.7964C27.615 60.0311 26.975 60.1484 26.239 60.1484H23.343V59.3804H26.607C27.3643 59.3804 28.0256 59.5084 28.591 59.7644C29.1563 60.0204 29.5936 60.3831 29.903 60.8524C30.223 61.3218 30.383 61.8764 30.383 62.5164C30.383 63.1564 30.223 63.7218 29.903 64.2124C29.5936 64.6924 29.1563 65.0658 28.591 65.3324C28.0256 65.5991 27.3643 65.7324 26.607 65.7324H21.951ZM23.183 64.6444H26.607C27.3856 64.6444 27.999 64.4578 28.447 64.0844C28.895 63.7111 29.119 63.1884 29.119 62.5164C29.119 61.8444 28.895 61.3218 28.447 60.9484C27.999 60.5751 27.3856 60.3884 26.607 60.3884H23.023V59.3004H26.239C26.975 59.3004 27.5563 59.1244 27.983 58.7724C28.4096 58.4204 28.623 57.9351 28.623 57.3164C28.623 56.7191 28.4096 56.2498 27.983 55.9084C27.5563 55.5564 26.975 55.3804 26.239 55.3804H23.183V64.6444ZM33.5755 65.7324H32.3435V54.2924H36.7755C37.5328 54.2924 38.1888 54.4258 38.7435 54.6924C39.3088 54.9591 39.7461 55.3324 40.0555 55.8124C40.3755 56.2924 40.5355 56.8524 40.5355 57.4924C40.5355 58.1324 40.3755 58.6924 40.0555 59.1724C39.7461 59.6524 39.3088 60.0258 38.7435 60.2924C38.1888 60.5591 37.5328 60.6924 36.7755 60.6924H33.4155V59.6044H36.7755C37.5541 59.6044 38.1621 59.4178 38.5995 59.0444C39.0475 58.6711 39.2715 58.1538 39.2715 57.4924C39.2715 56.8311 39.0475 56.3138 38.5995 55.9404C38.1621 55.5671 37.5541 55.3804 36.7755 55.3804H33.5755V65.7324ZM41.8237 65.7324V64.6764H43.1197C43.4717 64.6764 43.7651 64.6284 43.9997 64.5324C44.2344 64.4258 44.4424 64.2551 44.6237 64.0204C44.8157 63.7751 45.0131 63.4444 45.2157 63.0284L49.5037 54.2924H50.7997L46.2557 63.3964C45.9571 63.9938 45.6691 64.4631 45.3917 64.8044C45.1144 65.1458 44.7997 65.3858 44.4477 65.5244C44.0957 65.6631 43.6531 65.7324 43.1197 65.7324H41.8237ZM45.4557 63.1564L40.8797 54.2924H42.1757L46.4317 62.5964L45.4557 63.1564ZM55.5502 61.4444C54.2916 61.4444 53.3156 61.1404 52.6222 60.5324C51.9289 59.9138 51.5822 59.0391 51.5822 57.9084V54.2924H52.8142V57.7804C52.8142 58.5911 53.0649 59.2204 53.5662 59.6684C54.0676 60.1058 54.7609 60.3244 55.6462 60.3244C56.2649 60.3244 56.8676 60.2231 57.4542 60.0204C58.0409 59.8071 58.5262 59.5298 58.9102 59.1884L59.4062 60.0524C58.9156 60.5111 58.3396 60.8578 57.6782 61.0924C57.0276 61.3271 56.3182 61.4444 55.5502 61.4444ZM58.7022 65.7324V54.2924H59.9342V65.7324H58.7022ZM69.9122 62.5324H63.6882V61.4444H69.9122V62.5324ZM72.0882 65.7324H70.7922L66.5522 55.0284H67.0962L62.8562 65.7324H61.6082L66.1842 54.2924H67.5122L72.0882 65.7324ZM81.3252 65.7324H73.7572V54.2924H81.3252V55.3804H74.9892V64.6444H81.3252V65.7324ZM81.0212 60.4204H74.8292V59.3324H81.0212V60.4204ZM87.2457 65.7324H86.0137V55.2364H87.2457V65.7324ZM91.0537 55.3964H82.2057V54.2924H91.0537V55.3964ZM100.841 62.9644L101.737 63.8124C101.246 64.4844 100.601 65.0178 99.8011 65.4124C99.0118 65.7964 98.1424 65.9884 97.1931 65.9884C96.3718 65.9884 95.6091 65.8391 94.9051 65.5404C94.2118 65.2418 93.6038 64.8258 93.0811 64.2924C92.5691 63.7484 92.1691 63.1138 91.8811 62.3884C91.5931 61.6631 91.4491 60.8738 91.4491 60.0204C91.4491 59.1671 91.5931 58.3778 91.8811 57.6524C92.1798 56.9164 92.5904 56.2818 93.1131 55.7484C93.6358 55.2044 94.2438 54.7831 94.9371 54.4844C95.6411 54.1858 96.4038 54.0364 97.2251 54.0364C98.1744 54.0364 99.0384 54.2338 99.8171 54.6284C100.606 55.0124 101.246 55.5404 101.737 56.2124L100.841 57.0604C100.446 56.4738 99.9451 56.0098 99.3371 55.6684C98.7291 55.3271 98.0251 55.1564 97.2251 55.1564C96.3718 55.1564 95.6038 55.3698 94.9211 55.7964C94.2491 56.2124 93.7158 56.7884 93.3211 57.5244C92.9264 58.2498 92.7291 59.0818 92.7291 60.0204C92.7291 60.9484 92.9264 61.7804 93.3211 62.5164C93.7158 63.2418 94.2491 63.8178 94.9211 64.2444C95.6038 64.6604 96.3718 64.8684 97.2251 64.8684C98.0251 64.8684 98.7291 64.6978 99.3371 64.3564C99.9451 64.0151 100.446 63.5511 100.841 62.9644ZM109.825 65.7324V55.3804H106.625C105.846 55.3804 105.233 55.5671 104.785 55.9404C104.347 56.3138 104.129 56.8311 104.129 57.4924C104.129 58.1538 104.347 58.6711 104.785 59.0444C105.233 59.4178 105.846 59.6044 106.625 59.6044H109.985V60.6924H106.625C105.878 60.6924 105.222 60.5591 104.657 60.2924C104.091 60.0258 103.649 59.6524 103.329 59.1724C103.019 58.6924 102.865 58.1324 102.865 57.4924C102.865 56.8524 103.019 56.2924 103.329 55.8124C103.649 55.3324 104.091 54.9591 104.657 54.6924C105.222 54.4258 105.878 54.2924 106.625 54.2924H111.057V65.7324H109.825ZM102.225 65.7324L106.129 60.4044H107.505L103.713 65.7324H102.225Z" fill="#2B2B2E"/>
<path d="M25.331 91.7285V81.7185H26.409V91.0425H25.779L32.135 81.7185H33.339V91.7285H32.261V82.4745H32.821L26.493 91.7285H25.331ZM35.545 91.7285V84.8405H36.749L39.605 90.1605H39.381L42.237 84.8405H43.497V91.7285H42.475V85.1905H43.063L39.899 91.0985H39.017L35.881 85.1905H36.539V91.7285H35.545ZM49.9846 91.7285V85.0085L50.6286 85.7225H47.9126C47.5206 85.7225 47.1753 85.8158 46.8766 86.0025C46.5873 86.1798 46.4426 86.4878 46.4426 86.9265C46.4426 87.2998 46.5686 87.5938 46.8206 87.8085C47.0819 88.0232 47.4459 88.1305 47.9126 88.1305H50.5586V89.0125H47.9126C47.1473 89.0125 46.5313 88.8212 46.0646 88.4385C45.5979 88.0558 45.3646 87.5518 45.3646 86.9265C45.3646 86.5345 45.4766 86.1845 45.7006 85.8765C45.9246 85.5592 46.2279 85.3072 46.6106 85.1205C47.0026 84.9338 47.4366 84.8405 47.9126 84.8405H51.0206V91.7285H49.9846ZM45.0706 91.7285L47.5906 88.5085H48.7666L46.3306 91.7285H45.0706ZM60.4386 90.6925C58.7119 90.6925 57.4006 90.3565 56.5046 89.6845C55.6086 89.0032 55.1606 88.0138 55.1606 86.7165C55.1606 85.4192 55.6086 84.4345 56.5046 83.7625C57.4006 83.0905 58.7119 82.7545 60.4386 82.7545C62.1653 82.7545 63.4719 83.0905 64.3586 83.7625C65.2546 84.4345 65.7026 85.4192 65.7026 86.7165C65.7026 88.0138 65.2546 89.0032 64.3586 89.6845C63.4719 90.3565 62.1653 90.6925 60.4386 90.6925ZM60.4386 89.7125C61.8199 89.7125 62.8559 89.4652 63.5466 88.9705C64.2373 88.4758 64.5826 87.7245 64.5826 86.7165C64.5826 85.7178 64.2326 84.9712 63.5326 84.4765C62.8419 83.9818 61.8106 83.7345 60.4386 83.7345C59.0573 83.7345 58.0166 83.9818 57.3166 84.4765C56.6259 84.9618 56.2806 85.7085 56.2806 86.7165C56.2806 87.7058 56.6306 88.4525 57.3306 88.9565C58.0306 89.4605 59.0666 89.7125 60.4386 89.7125ZM59.8926 92.1485V90.4965L59.9346 89.8805V83.5525L59.8926 83.0065V81.2985H60.9706V83.0065L60.9286 83.5525V89.8805L60.9706 90.4965V92.1485H59.8926ZM73.0545 91.7285H72.0605V90.3845L72.0465 89.9925V87.4165C72.0465 86.8378 71.8599 86.3758 71.4865 86.0305C71.1132 85.6852 70.6092 85.5125 69.9745 85.5125C69.5172 85.5125 69.1019 85.6105 68.7285 85.8065C68.3645 86.0025 68.0425 86.2685 67.7625 86.6045L67.0345 85.9045C67.4172 85.4938 67.8465 85.1765 68.3225 84.9525C68.8079 84.7285 69.3585 84.6165 69.9745 84.6165C70.5905 84.6165 71.1272 84.7332 71.5845 84.9665C72.0512 85.1905 72.4105 85.5078 72.6625 85.9185C72.9239 86.3292 73.0545 86.8145 73.0545 87.3745V91.7285ZM69.4285 91.9525C68.9059 91.9525 68.4439 91.8592 68.0425 91.6725C67.6505 91.4765 67.3425 91.2152 67.1185 90.8885C66.9039 90.5618 66.7965 90.1885 66.7965 89.7685C66.7965 89.2832 66.9319 88.8725 67.2025 88.5365C67.4732 88.1912 67.8419 87.9298 68.3085 87.7525C68.7845 87.5752 69.3212 87.4865 69.9185 87.4865H72.1865V88.3265H70.0585C69.4332 88.3265 68.9105 88.4432 68.4905 88.6765C68.0799 88.9005 67.8745 89.2552 67.8745 89.7405C67.8745 90.1512 68.0285 90.4778 68.3365 90.7205C68.6445 90.9632 69.0505 91.0845 69.5545 91.0845C70.0399 91.0845 70.4785 90.9912 70.8705 90.8045C71.2625 90.6085 71.5752 90.3378 71.8085 89.9925C72.0512 89.6472 72.1865 89.2505 72.2145 88.8025L72.6345 89.0405C72.6345 89.6005 72.4945 90.0998 72.2145 90.5385C71.9439 90.9772 71.5659 91.3225 71.0805 91.5745C70.5952 91.8265 70.0445 91.9525 69.4285 91.9525ZM74.8138 91.7285V84.8405H76.0178L78.8738 90.1605H78.6498L81.5058 84.8405H82.7658V91.7285H81.7438V85.1905H82.3318L79.1678 91.0985H78.2858L75.1498 85.1905H75.8078V91.7285H74.8138ZM84.7593 91.7285V84.8405H85.7953V90.3425L85.6833 90.3005L90.1633 84.8405H91.0593V91.7285H90.0233V86.2265L90.1353 86.2685L85.6553 91.7285H84.7593ZM92.2243 91.7285V90.8325H92.7843C93.0363 90.8325 93.2276 90.7672 93.3583 90.6365C93.4889 90.4965 93.5683 90.2445 93.5963 89.8805L94.0303 84.8405H98.9303V91.7285H97.8943V85.0505L98.6223 85.7225H94.2543L95.0523 85.0505L94.5903 90.0485C94.5343 90.6645 94.3709 91.0985 94.1003 91.3505C93.8389 91.6025 93.4469 91.7285 92.9243 91.7285H92.2243ZM100.932 91.7285V84.8405H101.968V90.3425L101.856 90.3005L106.336 84.8405H107.232V91.7285H106.196V86.2265L106.308 86.2685L101.828 91.7285H100.932ZM113.731 91.7285V85.0085L114.375 85.7225H111.659C111.267 85.7225 110.921 85.8158 110.623 86.0025C110.333 86.1798 110.189 86.4878 110.189 86.9265C110.189 87.2998 110.315 87.5938 110.567 87.8085C110.828 88.0232 111.192 88.1305 111.659 88.1305H114.305V89.0125H111.659C110.893 89.0125 110.277 88.8212 109.811 88.4385C109.344 88.0558 109.111 87.5518 109.111 86.9265C109.111 86.5345 109.223 86.1845 109.447 85.8765C109.671 85.5592 109.974 85.3072 110.357 85.1205C110.749 84.9338 111.183 84.8405 111.659 84.8405H114.767V91.7285H113.731ZM108.817 91.7285L111.337 88.5085H112.513L110.077 91.7285H108.817Z" fill="#2B2B2E"/>
<path d="M173.001 97.2285H20.001V98.2285H173.001V97.2285Z" fill="#959596" mask="url(#path-47-inside-3_1031_3306)"/>
</g>
<rect x="0.5" y="198.5" width="198" height="303" rx="11.5" transform="rotate(-90 0.5 198.5)" stroke="#959596"/>
<defs>
<clipPath id="clip0_1031_3306">
<rect y="199" width="199" height="304" rx="12" transform="rotate(-90 0 199)" fill="white"/>
</clipPath>
</defs>
</svg>
