<svg width="48" height="48" viewBox="0 0 48 48" fill="none" xmlns="http://www.w3.org/2000/svg">
<rect width="48" height="48" rx="24" fill="#E9F993"/>
<path d="M33.6844 30C34.6322 29.3523 35.3431 28.4279 35.7137 27.361C36.0843 26.2941 36.0954 25.1402 35.7454 24.0667C35.3954 22.9932 34.7025 22.0561 33.7673 21.3912C32.8321 20.7263 31.7032 20.3684 30.5444 20.3693H29.1706C28.8427 19.1274 28.2292 17.974 27.3762 16.9959C26.5232 16.0179 25.453 15.2406 24.2461 14.7226C23.0393 14.2046 21.7272 13.9594 20.4087 14.0055C19.0902 14.0516 17.7997 14.3877 16.6342 14.9886C15.4688 15.5895 14.4588 16.4395 13.6803 17.4746C12.9018 18.5097 12.3751 19.7029 12.1398 20.9644C11.9045 22.226 11.9668 23.5229 12.322 24.7577C12.6772 25.9924 13.316 27.1328 14.1903 28.0929" stroke="#2B2B2E" stroke-width="1.68202" stroke-linecap="round" stroke-linejoin="round"/>
<path d="M24 24V34" stroke="#2B2B2E" stroke-width="1.68202" stroke-linecap="round" stroke-linejoin="round"/>
<path d="M20 30L24 34L28 30" stroke="#2B2B2E" stroke-width="1.68202" stroke-linecap="round" stroke-linejoin="round"/>
</svg>
