<svg width="48" height="48" viewBox="0 0 48 48" fill="none" xmlns="http://www.w3.org/2000/svg">
<rect width="48" height="48" rx="24" fill="#E9F993"/>
<path d="M29.1298 14.8356C29.3947 14.5707 29.7092 14.3605 30.0553 14.2172C30.4015 14.0738 30.7725 14 31.1471 14C31.5217 14 31.8927 14.0738 32.2389 14.2172C32.585 14.3605 32.8995 14.5707 33.1644 14.8356C33.4293 15.1005 33.6395 15.415 33.7828 15.7611C33.9262 16.1073 34 16.4783 34 16.8529C34 17.2275 33.9262 17.5985 33.7828 17.9447C33.6395 18.2908 33.4293 18.6053 33.1644 18.8702L19.5476 32.487L14 34L15.513 28.4524L29.1298 14.8356Z" stroke="#2B2B2E" stroke-width="1.55367" stroke-linecap="round" stroke-linejoin="round"/>
</svg>
