<svg width="48" height="48" viewBox="0 0 48 48" fill="none" xmlns="http://www.w3.org/2000/svg">
<rect x="0.5" y="0.5" width="47" height="47" rx="23.5" fill="#E9F993"/>
<path d="M31.4745 11.7706C31.8169 11.4204 32.2234 11.1426 32.6708 10.9531C33.1182 10.7636 33.5977 10.666 34.0819 10.666C34.5661 10.666 35.0456 10.7636 35.493 10.9531C35.9404 11.1426 36.3469 11.4204 36.6893 11.7706C37.0317 12.1208 37.3033 12.5365 37.4887 12.9941C37.674 13.4516 37.7693 13.942 37.7693 14.4373C37.7693 14.9325 37.674 15.4229 37.4887 15.8804C37.3033 16.338 37.0317 16.7537 36.6893 17.1039L19.0893 35.1039L11.9189 37.1039L13.8745 29.7706L31.4745 11.7706Z" stroke="#2B2B2E" stroke-width="2" stroke-linecap="round" stroke-linejoin="round"/>
<rect x="0.5" y="0.5" width="47" height="47" rx="23.5" stroke="#959596"/>
</svg>
