<svg width="48" height="48" viewBox="0 0 48 48" fill="none" xmlns="http://www.w3.org/2000/svg">
<rect width="48" height="48" rx="24" fill="#E9F993"/>
<path d="M22 22H21H20" stroke="#2B2B2E" stroke-width="1.65622" stroke-linecap="round" stroke-linejoin="round"/>
<path d="M28 30H20" stroke="#2B2B2E" stroke-width="1.65622" stroke-linecap="round" stroke-linejoin="round"/>
<path d="M28 26H20" stroke="#2B2B2E" stroke-width="1.65622" stroke-linecap="round" stroke-linejoin="round"/>
<path d="M27 14V20H33" stroke="#2B2B2E" stroke-width="1.65622" stroke-linecap="round" stroke-linejoin="round"/>
<path d="M26.625 13H18.125C17.5614 13 17.0209 13.2318 16.6224 13.6444C16.2239 14.0569 16 14.6165 16 15.2V32.8C16 33.3835 16.2239 33.9431 16.6224 34.3556C17.0209 34.7682 17.5614 35 18.125 35H30.875C31.4386 35 31.9791 34.7682 32.3776 34.3556C32.7761 33.9431 33 33.3835 33 32.8V19.6L26.625 13Z" stroke="#2B2B2E" stroke-width="1.65622" stroke-linecap="round" stroke-linejoin="round"/>
</svg>
