<svg width="481" height="304" viewBox="0 0 481 304" fill="none" xmlns="http://www.w3.org/2000/svg">
<g clip-path="url(#clip0_617_1989)">
<rect y="304" width="304" height="481" rx="19" transform="rotate(-90 0 304)" fill="#EDE8E5"/>
<rect x="348.333" y="31.666" width="6.33333" height="6.33333" rx="3.16667" fill="white"/>
<rect x="348.333" y="50.666" width="6.33333" height="6.33333" rx="3.16667" fill="white"/>
<rect x="348.333" y="69.666" width="6.33333" height="6.33333" rx="3.16667" fill="white"/>
<rect x="348.333" y="88.666" width="6.33333" height="6.33333" rx="3.16667" fill="white"/>
<rect x="348.333" y="107.666" width="6.33333" height="6.33333" rx="3.16667" fill="white"/>
<rect x="348.333" y="126.666" width="6.33333" height="6.33333" rx="3.16667" fill="white"/>
<rect x="367.333" y="31.666" width="6.33333" height="6.33333" rx="3.16667" fill="white"/>
<rect x="367.333" y="50.666" width="6.33333" height="6.33333" rx="3.16667" fill="white"/>
<rect x="367.333" y="69.666" width="6.33333" height="6.33333" rx="3.16667" fill="white"/>
<rect x="367.333" y="88.666" width="6.33333" height="6.33333" rx="3.16667" fill="white"/>
<rect x="367.333" y="107.666" width="6.33333" height="6.33333" rx="3.16667" fill="white"/>
<rect x="367.333" y="126.666" width="6.33333" height="6.33333" rx="3.16667" fill="white"/>
<rect x="386.333" y="31.666" width="6.33333" height="6.33333" rx="3.16667" fill="white"/>
<rect x="386.333" y="50.666" width="6.33333" height="6.33333" rx="3.16667" fill="white"/>
<rect x="386.333" y="69.666" width="6.33333" height="6.33333" rx="3.16667" fill="white"/>
<rect x="386.333" y="88.666" width="6.33333" height="6.33333" rx="3.16667" fill="white"/>
<rect x="386.333" y="107.666" width="6.33333" height="6.33333" rx="3.16667" fill="white"/>
<rect x="386.333" y="126.666" width="6.33333" height="6.33333" rx="3.16667" fill="white"/>
<rect x="405.333" y="31.666" width="6.33333" height="6.33333" rx="3.16667" fill="white"/>
<rect x="405.333" y="50.666" width="6.33333" height="6.33333" rx="3.16667" fill="white"/>
<rect x="405.333" y="69.666" width="6.33333" height="6.33333" rx="3.16667" fill="white"/>
<rect x="405.333" y="88.666" width="6.33333" height="6.33333" rx="3.16667" fill="white"/>
<rect x="405.333" y="107.666" width="6.33333" height="6.33333" rx="3.16667" fill="white"/>
<rect x="405.333" y="126.666" width="6.33333" height="6.33333" rx="3.16667" fill="white"/>
<rect x="424.333" y="31.666" width="6.33333" height="6.33333" rx="3.16667" fill="white"/>
<rect x="424.333" y="50.666" width="6.33333" height="6.33333" rx="3.16667" fill="white"/>
<rect x="424.333" y="69.666" width="6.33333" height="6.33333" rx="3.16667" fill="white"/>
<rect x="424.333" y="88.666" width="6.33333" height="6.33333" rx="3.16667" fill="white"/>
<rect x="424.333" y="107.666" width="6.33333" height="6.33333" rx="3.16667" fill="white"/>
<rect x="424.333" y="126.666" width="6.33333" height="6.33333" rx="3.16667" fill="white"/>
<rect x="443.333" y="31.666" width="6.33333" height="6.33333" rx="3.16667" fill="white"/>
<rect x="443.333" y="50.666" width="6.33333" height="6.33333" rx="3.16667" fill="white"/>
<rect x="443.333" y="69.666" width="6.33333" height="6.33333" rx="3.16667" fill="white"/>
<rect x="443.333" y="88.666" width="6.33333" height="6.33333" rx="3.16667" fill="white"/>
<rect x="443.333" y="107.666" width="6.33333" height="6.33333" rx="3.16667" fill="white"/>
<rect x="443.333" y="126.666" width="6.33333" height="6.33333" rx="3.16667" fill="white"/>
<rect width="481.333" height="134.583" transform="translate(0 169.416)" fill="#A5DEE4"/>
<path opacity="0.2" d="M80.8744 223.084V207.235H90.6943V208.764H81.6503L82.5813 207.612V223.084H80.8744ZM95.1298 223.439C94.0215 223.439 93.0313 223.187 92.1595 222.685C91.2876 222.183 90.6004 221.495 90.098 220.623C89.6103 219.752 89.3665 218.754 89.3665 217.631C89.3665 216.508 89.6103 215.51 90.098 214.638C90.6004 213.767 91.2876 213.079 92.1595 212.577C93.0313 212.075 94.0215 211.823 95.1298 211.823C96.2529 211.823 97.243 212.075 98.1001 212.577C98.972 213.079 99.6518 213.767 100.139 214.638C100.642 215.51 100.893 216.508 100.893 217.631C100.893 218.754 100.642 219.752 100.139 220.623C99.6518 221.495 98.972 222.183 98.1001 222.685C97.243 223.187 96.2529 223.439 95.1298 223.439ZM95.1298 221.998C95.9278 221.998 96.6297 221.813 97.2356 221.444C97.8415 221.074 98.3144 220.564 98.6543 219.914C98.9942 219.249 99.1641 218.488 99.1641 217.631C99.1641 216.774 98.9942 216.02 98.6543 215.37C98.3144 214.705 97.8415 214.188 97.2356 213.818C96.6297 213.449 95.9278 213.264 95.1298 213.264C94.3318 213.264 93.6298 213.449 93.024 213.818C92.4181 214.188 91.9452 214.705 91.6053 215.37C91.2654 216.02 91.0955 216.774 91.0955 217.631C91.0955 218.488 91.2654 219.249 91.6053 219.914C91.9452 220.564 92.4181 221.074 93.024 221.444C93.6298 221.813 94.3318 221.998 95.1298 221.998ZM102.014 222.641V221.687H102.458C102.753 221.687 102.982 221.621 103.145 221.488C103.322 221.34 103.455 221.104 103.544 220.779C103.647 220.454 103.729 220.01 103.788 219.449L104.652 212.178H112.189V222.419H110.549V212.51L111.701 213.574H104.896L106.226 212.51L105.339 219.582C105.251 220.335 105.11 220.934 104.918 221.377C104.726 221.82 104.453 222.146 104.098 222.352C103.758 222.545 103.285 222.641 102.679 222.641H102.014ZM101.571 225.921V221.687H113.741V225.921H112.189V221.909L113.342 223.084H102.48L103.123 221.909V225.921H101.571Z" fill="#2B2B2E"/>
<path d="M161.499 234.626H31.666V236.209H161.499V234.626Z" fill="#2B2B2E" mask="url(#path-39-inside-1_617_1989)"/>
<path opacity="0.2" d="M302.957 223.084V207.235H315.547V223.084H313.84V207.612L314.771 208.764H303.732L304.663 207.612V223.084H302.957ZM324.074 223.439C322.966 223.439 321.976 223.187 321.104 222.685C320.232 222.183 319.545 221.495 319.042 220.623C318.555 219.752 318.311 218.754 318.311 217.631C318.311 216.508 318.555 215.51 319.042 214.638C319.545 213.767 320.232 213.079 321.104 212.577C321.976 212.075 322.966 211.823 324.074 211.823C325.197 211.823 326.187 212.075 327.044 212.577C327.916 213.079 328.596 213.767 329.084 214.638C329.586 215.51 329.837 216.508 329.837 217.631C329.837 218.754 329.586 219.752 329.084 220.623C328.596 221.495 327.916 222.183 327.044 222.685C326.187 223.187 325.197 223.439 324.074 223.439ZM324.074 221.998C324.872 221.998 325.574 221.813 326.18 221.444C326.786 221.074 327.259 220.564 327.599 219.914C327.939 219.249 328.108 218.488 328.108 217.631C328.108 216.774 327.939 216.02 327.599 215.37C327.259 214.705 326.786 214.188 326.18 213.818C325.574 213.449 324.872 213.264 324.074 213.264C323.276 213.264 322.574 213.449 321.968 213.818C321.362 214.188 320.89 214.705 320.55 215.37C320.21 216.02 320.04 216.774 320.04 217.631C320.04 218.488 320.21 219.249 320.55 219.914C320.89 220.564 321.362 221.074 321.968 221.444C322.574 221.813 323.276 221.998 324.074 221.998ZM330.959 222.641V221.687H331.402C331.698 221.687 331.927 221.621 332.089 221.488C332.267 221.34 332.4 221.104 332.488 220.779C332.592 220.454 332.673 220.01 332.732 219.449L333.597 212.178H341.133V222.419H339.493V212.51L340.646 213.574H333.84L335.17 212.51L334.284 219.582C334.195 220.335 334.055 220.934 333.863 221.377C333.67 221.82 333.397 222.146 333.042 222.352C332.703 222.545 332.23 222.641 331.624 222.641H330.959ZM330.515 225.921V221.687H342.685V225.921H341.133V221.909L342.286 223.084H331.424L332.067 221.909V225.921H330.515ZM345.168 223.084V212.178H354.811V223.084H353.17V212.51L354.323 213.574H345.434L346.808 212.51V223.084H345.168ZM357.971 223.084V212.178H359.611V220.889L359.434 220.823L366.527 212.178H367.946V223.084H366.306V214.372L366.483 214.439L359.39 223.084H357.971ZM379.433 220.247L380.608 221.333C380.105 221.983 379.47 222.5 378.702 222.884C377.948 223.254 377.091 223.439 376.13 223.439C375.022 223.439 374.032 223.187 373.16 222.685C372.303 222.183 371.623 221.495 371.121 220.623C370.633 219.752 370.389 218.754 370.389 217.631C370.389 216.508 370.633 215.51 371.121 214.638C371.623 213.767 372.31 213.079 373.182 212.577C374.054 212.075 375.044 211.823 376.152 211.823C377.113 211.823 377.97 212.015 378.724 212.4C379.477 212.769 380.105 213.279 380.608 213.929L379.433 215.015C379.078 214.483 378.635 214.062 378.103 213.752C377.571 213.427 376.921 213.264 376.152 213.264C375.354 213.264 374.652 213.449 374.047 213.818C373.441 214.188 372.968 214.705 372.628 215.37C372.288 216.02 372.118 216.774 372.118 217.631C372.118 218.488 372.288 219.249 372.628 219.914C372.968 220.564 373.441 221.074 374.047 221.444C374.652 221.813 375.354 221.998 376.152 221.998C376.921 221.998 377.571 221.843 378.103 221.532C378.635 221.207 379.078 220.779 379.433 220.247ZM382.82 223.084V212.178H384.46V222.818L383.44 221.687H388.029C388.768 221.687 389.337 221.51 389.736 221.155C390.149 220.786 390.356 220.284 390.356 219.648C390.356 219.027 390.149 218.54 389.736 218.185C389.337 217.83 388.768 217.653 388.029 217.653H383.551V216.257H388.029C389.226 216.257 390.194 216.574 390.933 217.21C391.686 217.83 392.063 218.643 392.063 219.648C392.063 220.298 391.886 220.882 391.531 221.399C391.177 221.917 390.696 222.33 390.09 222.641C389.484 222.936 388.797 223.084 388.029 223.084H382.82Z" fill="#2B2B2E"/>
<path d="M411.666 234.626H281.833V236.209H411.666V234.626Z" fill="#2B2B2E" mask="url(#path-42-inside-2_617_1989)"/>
<path d="M55.568 61.512L58.95 64.932C57.7593 66.452 56.1887 67.6807 54.238 68.618C52.3127 69.5553 50.1973 70.024 47.892 70.024C45.7893 70.024 43.864 69.682 42.116 68.998C40.368 68.2887 38.848 67.3007 37.556 66.034C36.2893 64.742 35.3013 63.2347 34.592 61.512C33.908 59.7893 33.566 57.8893 33.566 55.812C33.566 53.7853 33.9207 51.9107 34.63 50.188C35.3647 48.44 36.378 46.9327 37.67 45.666C38.962 44.374 40.482 43.386 42.23 42.702C44.0033 41.9927 45.9287 41.638 48.006 41.638C50.3113 41.638 52.414 42.1067 54.314 43.044C56.214 43.9813 57.7593 45.21 58.95 46.73L55.568 50.15C54.732 48.934 53.6553 47.9713 52.338 47.262C51.046 46.5273 49.602 46.16 48.006 46.16C46.2833 46.16 44.738 46.578 43.37 47.414C42.0273 48.25 40.9633 49.39 40.178 50.834C39.3927 52.278 39 53.9373 39 55.812C39 57.6867 39.3927 59.3587 40.178 60.828C40.9633 62.272 42.0273 63.412 43.37 64.248C44.738 65.084 46.2833 65.502 48.006 65.502C49.602 65.502 51.046 65.1473 52.338 64.438C53.6553 63.7033 54.732 62.728 55.568 61.512ZM79.0555 63.45L81.7155 66.528C80.7528 67.6173 79.5115 68.4787 77.9915 69.112C76.4968 69.72 74.8375 70.024 73.0135 70.024C70.8095 70.024 68.8715 69.5933 67.1995 68.732C65.5275 67.8707 64.2228 66.68 63.2855 65.16C62.3481 63.64 61.8795 61.8793 61.8795 59.878C61.8795 57.8767 62.3228 56.116 63.2095 54.596C64.1215 53.0507 65.3501 51.8473 66.8955 50.986C68.4661 50.1247 70.2268 49.694 72.1775 49.694C74.0775 49.694 75.7621 50.1247 77.2315 50.986C78.7261 51.822 79.8915 52.9873 80.7275 54.482C81.5635 55.9767 81.9815 57.712 81.9815 59.688V59.916H77.0795V59.384C77.0795 58.2187 76.8641 57.2053 76.4335 56.344C76.0281 55.4827 75.4581 54.8113 74.7235 54.33C74.0141 53.8487 73.1655 53.608 72.1775 53.608C71.1388 53.608 70.2268 53.8613 69.4415 54.368C68.6561 54.8493 68.0355 55.5587 67.5795 56.496C67.1488 57.408 66.9335 58.4973 66.9335 59.764C66.9335 61.1067 67.1995 62.2593 67.7315 63.222C68.2888 64.1593 69.0361 64.8813 69.9735 65.388C70.9361 65.8693 72.0381 66.11 73.2795 66.11C75.5595 66.11 77.4848 65.2233 79.0555 63.45ZM81.9815 61.398H65.1095V58.206H81.3735L81.9815 59.688V61.398ZM91.7925 76.788H86.7765V50.302H91.7545V56.23H90.6905C90.8678 54.9887 91.2858 53.874 91.9445 52.886C92.6285 51.898 93.5152 51.1253 94.6045 50.568C95.6938 49.9853 96.9352 49.694 98.3285 49.694C100.077 49.694 101.673 50.1247 103.117 50.986C104.561 51.8473 105.701 53.038 106.537 54.558C107.398 56.078 107.829 57.8513 107.829 59.878C107.829 61.8793 107.398 63.64 106.537 65.16C105.675 66.68 104.523 67.8707 103.079 68.732C101.635 69.5933 100.013 70.024 98.2145 70.024C96.5678 70.024 95.1492 69.6693 93.9585 68.96C92.7678 68.2507 91.8685 67.3007 91.2605 66.11C90.6525 64.894 90.3865 63.564 90.4625 62.12L91.5265 61.436C91.6532 62.2973 91.9698 63.07 92.4765 63.754C92.9832 64.4127 93.6292 64.932 94.4145 65.312C95.2252 65.6667 96.0992 65.844 97.0365 65.844C98.1512 65.844 99.1265 65.5907 99.9625 65.084C100.799 64.5773 101.445 63.868 101.901 62.956C102.382 62.044 102.623 61.018 102.623 59.878C102.623 58.6873 102.395 57.6487 101.939 56.762C101.508 55.85 100.887 55.1407 100.077 54.634C99.2912 54.1273 98.3538 53.874 97.2645 53.874C96.2005 53.874 95.2505 54.1273 94.4145 54.634C93.6038 55.1407 92.9578 55.85 92.4765 56.762C92.0205 57.6487 91.7925 58.7253 91.7925 59.992V76.788ZM116.508 69.416V52.012H121.524V69.416H116.508ZM110.048 54.33V50.302H127.984V54.33H110.048ZM132.029 69.416V50.302H136.817V63.032L136.551 62.956L146.127 50.302H150.535V69.416H145.747V56.686L146.013 56.762L136.437 69.416H132.029ZM168.16 70.024C165.526 70.024 163.233 69.6187 161.282 68.808C159.357 67.972 157.875 66.794 156.836 65.274C155.798 63.7287 155.278 61.93 155.278 59.878C155.278 57.7753 155.798 55.964 156.836 54.444C157.875 52.924 159.357 51.7587 161.282 50.948C163.233 50.112 165.526 49.694 168.16 49.694H170.098C172.733 49.694 175.013 50.112 176.938 50.948C178.864 51.7587 180.346 52.924 181.384 54.444C182.448 55.964 182.98 57.7753 182.98 59.878C182.98 61.93 182.448 63.7287 181.384 65.274C180.346 66.794 178.864 67.972 176.938 68.808C175.013 69.6187 172.733 70.024 170.098 70.024H168.16ZM168.16 65.92H170.098C172.682 65.92 174.658 65.4007 176.026 64.362C177.394 63.3233 178.078 61.8287 178.078 59.878C178.078 57.902 177.394 56.3947 176.026 55.356C174.658 54.3173 172.682 53.798 170.098 53.798H168.16C165.551 53.798 163.562 54.3173 162.194 55.356C160.852 56.3693 160.18 57.8767 160.18 59.878C160.18 61.8287 160.852 63.3233 162.194 64.362C163.562 65.4007 165.551 65.92 168.16 65.92ZM166.678 77.168V68.01L166.83 67.402V52.658L166.678 52.012V42.056H171.618V52.012L171.466 52.658V67.402L171.618 68.01V77.168H166.678ZM187.709 69.416V50.302H192.497V63.032L192.231 62.956L201.807 50.302H206.215V69.416H201.427V56.686L201.693 56.762L192.117 69.416H187.709ZM225.018 69.416L215.936 59.46H216.354L224.562 50.302H230.566L220.8 61.17L220.534 57.826L231.326 69.416H225.018ZM212.06 69.416V50.302H217.076V69.416H212.06ZM251.512 69.416H246.952V65.578L246.724 64.97V57.788C246.724 56.4453 246.293 55.4067 245.432 54.672C244.57 53.9373 243.392 53.57 241.898 53.57C240.808 53.57 239.782 53.7853 238.82 54.216C237.882 54.6213 237.059 55.204 236.35 55.964L233.728 52.924C234.741 51.9107 235.97 51.1253 237.414 50.568C238.858 49.9853 240.428 49.694 242.126 49.694C243.975 49.694 245.609 50.0107 247.028 50.644C248.446 51.2773 249.548 52.1893 250.334 53.38C251.119 54.5453 251.512 55.9767 251.512 57.674V69.416ZM240.454 70.024C238.984 70.024 237.692 69.758 236.578 69.226C235.463 68.694 234.589 67.9593 233.956 67.022C233.348 66.0847 233.044 64.9953 233.044 63.754C233.044 62.4367 233.424 61.322 234.184 60.41C234.944 59.4727 236.02 58.7507 237.414 58.244C238.832 57.7373 240.466 57.484 242.316 57.484H247.218V60.752H242.696C241.328 60.752 240.226 60.9927 239.39 61.474C238.554 61.9553 238.136 62.652 238.136 63.564C238.136 64.4 238.452 65.0587 239.086 65.54C239.744 66.0213 240.593 66.262 241.632 66.262C242.62 66.262 243.519 66.0593 244.33 65.654C245.14 65.2233 245.799 64.6407 246.306 63.906C246.812 63.1713 247.104 62.3353 247.18 61.398L248.624 62.082C248.624 63.6527 248.282 65.0333 247.598 66.224C246.914 67.4147 245.951 68.352 244.71 69.036C243.494 69.6947 242.075 70.024 240.454 70.024ZM261.394 69.416V52.012H266.41V69.416H261.394ZM254.934 54.33V50.302H272.87V54.33H254.934Z" fill="#2B2B2E"/>
<path d="M34.1285 105V86.8867H40.9178C42.0832 86.8867 43.0965 87.0893 43.9578 87.4947C44.8192 87.8831 45.4863 88.4404 45.9592 89.1667C46.4321 89.876 46.6685 90.712 46.6685 91.6747C46.6685 92.5529 46.4321 93.3298 45.9592 94.0053C45.4863 94.6809 44.8192 95.2129 43.9578 95.6013C43.0965 95.9729 42.0832 96.1587 40.9178 96.1587H36.3325V94.9427H41.5005C42.6996 94.9427 43.7467 95.1453 44.6418 95.5507C45.537 95.956 46.2294 96.5302 46.7192 97.2733C47.2258 98.0164 47.4792 98.8947 47.4792 99.908C47.4792 100.921 47.2258 101.816 46.7192 102.593C46.2294 103.353 45.537 103.944 44.6418 104.367C43.7467 104.789 42.6996 105 41.5005 105H34.1285ZM36.0792 103.277H41.5005C42.7334 103.277 43.7045 102.982 44.4138 102.391C45.1232 101.8 45.4778 100.972 45.4778 99.908C45.4778 98.844 45.1232 98.0164 44.4138 97.4253C43.7045 96.8342 42.7334 96.5387 41.5005 96.5387H35.8258V94.816H40.9178C42.0832 94.816 43.0036 94.5373 43.6792 93.98C44.3547 93.4227 44.6925 92.6542 44.6925 91.6747C44.6925 90.7289 44.3547 89.9858 43.6792 89.4453C43.0036 88.888 42.0832 88.6093 40.9178 88.6093H36.0792V103.277ZM52.534 105H50.5833V86.8867H57.6006C58.7998 86.8867 59.8384 87.0978 60.7166 87.52C61.6118 87.9422 62.3042 88.5333 62.794 89.2933C63.3006 90.0533 63.554 90.94 63.554 91.9533C63.554 92.9667 63.3006 93.8533 62.794 94.6133C62.3042 95.3733 61.6118 95.9644 60.7166 96.3867C59.8384 96.8089 58.7998 97.02 57.6006 97.02H52.2806V95.2973H57.6006C58.8335 95.2973 59.7962 95.0018 60.4886 94.4107C61.198 93.8196 61.5526 93.0004 61.5526 91.9533C61.5526 90.9062 61.198 90.0871 60.4886 89.496C59.7962 88.9049 58.8335 88.6093 57.6006 88.6093H52.534V105ZM65.5937 105V103.328H67.6457C68.203 103.328 68.6675 103.252 69.039 103.1C69.4106 102.931 69.7399 102.661 70.027 102.289C70.331 101.901 70.6435 101.377 70.9644 100.719L77.7537 86.8867H79.8057L72.611 101.301C72.1381 102.247 71.6821 102.99 71.243 103.531C70.8039 104.071 70.3057 104.451 69.7484 104.671C69.191 104.89 68.4901 105 67.6457 105H65.5937ZM71.3444 100.921L64.099 86.8867H66.151L72.8897 100.035L71.3444 100.921ZM87.3273 98.2107C85.3344 98.2107 83.7891 97.7293 82.6913 96.7667C81.5936 95.7871 81.0447 94.4022 81.0447 92.612V86.8867H82.9953V92.4093C82.9953 93.6929 83.3922 94.6893 84.186 95.3987C84.9798 96.0911 86.0776 96.4373 87.4793 96.4373C88.4589 96.4373 89.4131 96.2769 90.342 95.956C91.2709 95.6182 92.0393 95.1791 92.6473 94.6387L93.4327 96.0067C92.6558 96.7329 91.7438 97.2818 90.6967 97.6533C89.6664 98.0249 88.5433 98.2107 87.3273 98.2107ZM92.318 105V86.8867H94.2687V105H92.318ZM110.067 99.9333H100.212V98.2107H110.067V99.9333ZM113.512 105H111.46L104.747 88.052H105.608L98.8952 105H96.9192L104.164 86.8867H106.267L113.512 105ZM128.138 105H116.155V86.8867H128.138V88.6093H118.106V103.277H128.138V105ZM127.656 96.5893H117.852V94.8667H127.656V96.5893ZM137.512 105H135.561V88.3813H137.512V105ZM143.541 88.6347H129.532V86.8867H143.541V88.6347ZM159.038 100.617L160.457 101.96C159.68 103.024 158.658 103.868 157.391 104.493C156.141 105.101 154.765 105.405 153.262 105.405C151.961 105.405 150.754 105.169 149.639 104.696C148.541 104.223 147.579 103.564 146.751 102.72C145.941 101.859 145.307 100.854 144.851 99.7053C144.395 98.5569 144.167 97.3071 144.167 95.956C144.167 94.6049 144.395 93.3551 144.851 92.2067C145.324 91.0413 145.974 90.0364 146.802 89.192C147.629 88.3307 148.592 87.6636 149.69 87.1907C150.805 86.7178 152.012 86.4813 153.313 86.4813C154.816 86.4813 156.184 86.7938 157.417 87.4187C158.666 88.0267 159.68 88.8627 160.457 89.9267L159.038 91.2693C158.413 90.3404 157.619 89.6058 156.657 89.0653C155.694 88.5249 154.579 88.2547 153.313 88.2547C151.961 88.2547 150.745 88.5924 149.665 89.268C148.601 89.9267 147.756 90.8387 147.131 92.004C146.506 93.1524 146.194 94.4698 146.194 95.956C146.194 97.4253 146.506 98.7427 147.131 99.908C147.756 101.056 148.601 101.968 149.665 102.644C150.745 103.303 151.961 103.632 153.313 103.632C154.579 103.632 155.694 103.362 156.657 102.821C157.619 102.281 158.413 101.546 159.038 100.617ZM173.262 105V88.6093H168.195C166.962 88.6093 165.991 88.9049 165.282 89.496C164.59 90.0871 164.243 90.9062 164.243 91.9533C164.243 93.0004 164.59 93.8196 165.282 94.4107C165.991 95.0018 166.962 95.2973 168.195 95.2973H173.515V97.02H168.195C167.013 97.02 165.974 96.8089 165.079 96.3867C164.184 95.9644 163.483 95.3733 162.977 94.6133C162.487 93.8533 162.242 92.9667 162.242 91.9533C162.242 90.94 162.487 90.0533 162.977 89.2933C163.483 88.5333 164.184 87.9422 165.079 87.52C165.974 87.0978 167.013 86.8867 168.195 86.8867H175.213V105H173.262ZM161.229 105L167.41 96.564H169.589L163.585 105H161.229Z" fill="#2B2B2E"/>
<path d="M40.1049 145.75V129.901H41.8117V144.664H40.8142L50.8779 129.901H52.7842V145.75H51.0774V131.098H51.964L41.9447 145.75H40.1049ZM56.2771 145.75V134.844H58.1835L62.7055 143.267H62.3508L66.8728 134.844H68.8678V145.75H67.2496V135.398H68.1806L63.171 144.752H61.7745L56.8091 135.398H57.851V145.75H56.2771ZM79.1397 145.75V135.11L80.1594 136.24H75.8591C75.2384 136.24 74.6916 136.388 74.2187 136.684C73.7606 136.965 73.5316 137.452 73.5316 138.147C73.5316 138.738 73.7311 139.203 74.1301 139.543C74.5439 139.883 75.1202 140.053 75.8591 140.053H80.0486V141.45H75.8591C74.6473 141.45 73.672 141.147 72.9331 140.541C72.1942 139.935 71.8247 139.137 71.8247 138.147C71.8247 137.526 72.0021 136.972 72.3567 136.484C72.7114 135.982 73.1917 135.583 73.7976 135.287C74.4182 134.992 75.1054 134.844 75.8591 134.844H80.7801V145.75H79.1397ZM71.3592 145.75L75.3492 140.652H77.2112L73.3542 145.75H71.3592ZM95.6919 144.11C92.958 144.11 90.8817 143.578 89.4631 142.514C88.0444 141.435 87.3351 139.868 87.3351 137.814C87.3351 135.76 88.0444 134.201 89.4631 133.137C90.8817 132.073 92.958 131.541 95.6919 131.541C98.4258 131.541 100.495 132.073 101.899 133.137C103.317 134.201 104.027 135.76 104.027 137.814C104.027 139.868 103.317 141.435 101.899 142.514C100.495 143.578 98.4258 144.11 95.6919 144.11ZM95.6919 142.558C97.879 142.558 99.5194 142.166 100.613 141.383C101.706 140.6 102.253 139.41 102.253 137.814C102.253 136.233 101.699 135.051 100.591 134.268C99.4972 133.484 97.8642 133.093 95.6919 133.093C93.5048 133.093 91.8571 133.484 90.7487 134.268C89.6552 135.036 89.1084 136.218 89.1084 137.814C89.1084 139.381 89.6626 140.563 90.7709 141.361C91.8792 142.159 93.5196 142.558 95.6919 142.558ZM94.8274 146.415V143.799L94.8939 142.824V132.805L94.8274 131.94V129.236H96.5342V131.94L96.4677 132.805V142.824L96.5342 143.799V146.415H94.8274ZM115.667 145.75H114.093V143.622L114.071 143.001V138.923C114.071 138.006 113.776 137.275 113.184 136.728C112.593 136.181 111.795 135.908 110.79 135.908C110.066 135.908 109.409 136.063 108.818 136.373C108.241 136.684 107.731 137.105 107.288 137.637L106.135 136.529C106.741 135.878 107.421 135.376 108.175 135.021C108.943 134.667 109.815 134.489 110.79 134.489C111.766 134.489 112.616 134.674 113.34 135.043C114.079 135.398 114.647 135.901 115.046 136.551C115.46 137.201 115.667 137.969 115.667 138.856V145.75ZM109.926 146.105C109.098 146.105 108.367 145.957 107.731 145.661C107.111 145.351 106.623 144.937 106.268 144.42C105.929 143.903 105.759 143.312 105.759 142.647C105.759 141.878 105.973 141.228 106.401 140.696C106.83 140.149 107.414 139.735 108.153 139.455C108.906 139.174 109.756 139.033 110.702 139.033H114.293V140.363H110.923C109.933 140.363 109.106 140.548 108.441 140.918C107.791 141.272 107.465 141.834 107.465 142.602C107.465 143.253 107.709 143.77 108.197 144.154C108.685 144.538 109.327 144.73 110.125 144.73C110.894 144.73 111.588 144.583 112.209 144.287C112.83 143.977 113.325 143.548 113.694 143.001C114.079 142.455 114.293 141.826 114.337 141.117L115.002 141.494C115.002 142.381 114.78 143.171 114.337 143.866C113.909 144.56 113.31 145.107 112.542 145.506C111.773 145.905 110.901 146.105 109.926 146.105ZM118.453 145.75V134.844H120.359L124.881 143.267H124.526L129.048 134.844H131.043V145.75H129.425V135.398H130.356L125.346 144.752H123.95L118.985 135.398H120.026V145.75H118.453ZM134.2 145.75V134.844H135.84V143.555L135.663 143.489L142.756 134.844H144.175V145.75H142.534V137.038L142.712 137.105L135.618 145.75H134.2ZM146.019 145.75V144.331H146.906C147.305 144.331 147.608 144.228 147.815 144.021C148.022 143.799 148.147 143.4 148.192 142.824L148.879 134.844H156.637V145.75H154.997V135.176L156.149 136.24H149.233L150.497 135.176L149.765 143.09C149.677 144.065 149.418 144.752 148.99 145.151C148.576 145.55 147.955 145.75 147.128 145.75H146.019ZM159.806 145.75V134.844H161.446V143.555L161.269 143.489L168.362 134.844H169.781V145.75H168.141V137.038L168.318 137.105L161.225 145.75H159.806ZM180.071 145.75V135.11L181.091 136.24H176.79C176.17 136.24 175.623 136.388 175.15 136.684C174.692 136.965 174.463 137.452 174.463 138.147C174.463 138.738 174.662 139.203 175.061 139.543C175.475 139.883 176.051 140.053 176.79 140.053H180.98V141.45H176.79C175.578 141.45 174.603 141.147 173.864 140.541C173.125 139.935 172.756 139.137 172.756 138.147C172.756 137.526 172.933 136.972 173.288 136.484C173.643 135.982 174.123 135.583 174.729 135.287C175.349 134.992 176.037 134.844 176.79 134.844H181.711V145.75H180.071ZM172.29 145.75L176.28 140.652H178.142L174.285 145.75H172.29Z" fill="#2B2B2E"/>
<path d="M273.916 154.125H31.666V155.708H273.916V154.125Z" fill="#959596" mask="url(#path-47-inside-3_617_1989)"/>
</g>
<rect x="0.791667" y="303.208" width="302.417" height="479.417" rx="18.2083" transform="rotate(-90 0.791667 303.208)" stroke="#959596" stroke-width="1.58333"/>
<defs>
<clipPath id="clip0_617_1989">
<rect y="304" width="304" height="481" rx="19" transform="rotate(-90 0 304)" fill="white"/>
</clipPath>
</defs>
</svg>
