<svg width="83" height="52" viewBox="0 0 83 52" fill="none" xmlns="http://www.w3.org/2000/svg">
<path d="M0 48L0 1.43051e-05L81.5 6.67572e-06L63.8848 26L81.5 48L0 48Z" fill="#D9EA7D"/>
<g opacity="0.8">
<path d="M8.77 6.186V8.148H6.574V21H4.612V6.186H8.77ZM9.91145 21V6.186H13.9795V8.148H11.8735V12.468H13.2055V14.43H11.8735V19.038H14.0695V21H9.91145ZM18.2135 21V14.43H17.3135V21H15.3515V6.186H17.3135V12.468H18.2135V6.186H20.1575V21H18.2135ZM21.7408 21V6.186H25.8088V8.148H23.7028V12.468H25.0348V14.43H23.7028V19.038H25.8988V21H21.7408ZM30.2589 8.85C30.2589 8.382 30.0309 8.148 29.5749 8.148H29.1429V12.054H29.5929C30.0369 12.054 30.2589 11.826 30.2589 11.37V8.85ZM27.1809 21V6.186H29.5749C30.4749 6.186 31.1349 6.402 31.5549 6.834C31.9749 7.254 32.1849 7.932 32.1849 8.868V11.298C32.1849 12.234 31.9749 12.912 31.5549 13.332C31.1469 13.752 30.4929 13.962 29.5929 13.962H29.1429V21H27.1809ZM36.0569 21L35.8409 18.894H34.4009L34.1489 21H32.2589L34.0589 6.186H36.3269L38.0189 21H36.0569ZM35.6249 17.112C35.5289 16.14 35.4389 15.168 35.3549 14.196C35.2709 13.224 35.1929 12.228 35.1209 11.208C34.9769 13.224 34.7969 15.192 34.5809 17.112H35.6249ZM39.4378 21V8.148H37.9978V6.186H42.8218V8.148H41.3998V21H39.4378ZM43.6041 8.544C43.6041 6.864 44.4081 6.024 46.0161 6.024C47.6241 6.024 48.4281 6.864 48.4281 8.544V18.642C48.4281 20.322 47.6241 21.162 46.0161 21.162C44.4081 21.162 43.6041 20.322 43.6041 18.642V8.544ZM46.4661 8.544C46.4661 8.172 46.3161 7.986 46.0161 7.986C45.7161 7.986 45.5661 8.172 45.5661 8.544V18.642C45.5661 19.014 45.7161 19.2 46.0161 19.2C46.3161 19.2 46.4661 19.014 46.4661 18.642V8.544ZM52.986 8.85C52.986 8.382 52.758 8.148 52.302 8.148H51.87V12.054H52.32C52.764 12.054 52.986 11.826 52.986 11.37V8.85ZM49.908 21V6.186H52.302C53.202 6.186 53.862 6.402 54.282 6.834C54.702 7.254 54.912 7.932 54.912 8.868V11.298C54.912 12.234 54.702 12.912 54.282 13.332C53.874 13.752 53.22 13.962 52.32 13.962H51.87V21H49.908ZM8.77 28.186V30.148H6.574V43H4.612V28.186H8.77ZM12.9895 30.85C12.9895 30.382 12.7615 30.148 12.3055 30.148H11.8735V34.054H12.3235C12.7675 34.054 12.9895 33.826 12.9895 33.37V30.85ZM9.91145 43V28.186H12.3055C13.2055 28.186 13.8655 28.402 14.2855 28.834C14.7055 29.254 14.9155 29.932 14.9155 30.868V33.298C14.9155 34.234 14.7055 34.912 14.2855 35.332C13.8775 35.752 13.2235 35.962 12.3235 35.962H11.8735V43H9.91145ZM18.7874 43L18.5714 40.894H17.1314L16.8794 43H14.9894L16.7894 28.186H19.0574L20.7494 43H18.7874ZM18.3554 39.112C18.2594 38.14 18.1694 37.168 18.0854 36.196C18.0014 35.224 17.9234 34.228 17.8514 33.208C17.7074 35.224 17.5274 37.192 17.3114 39.112H18.3554ZM27.173 43V38.824C27.173 37.996 27.173 37.174 27.173 36.358C27.185 35.542 27.209 34.72 27.245 33.892C27.209 34.3 27.161 34.744 27.101 35.224C27.053 35.692 26.987 36.274 26.903 36.97C26.831 37.654 26.735 38.482 26.615 39.454C26.507 40.414 26.375 41.596 26.219 43H24.563L23.537 33.622C23.609 35.35 23.645 37.09 23.645 38.842V43H21.863V28.186H24.455C24.575 29.518 24.677 30.67 24.761 31.642C24.857 32.614 24.935 33.454 24.995 34.162C25.055 34.858 25.109 35.44 25.157 35.908C25.205 36.376 25.241 36.772 25.265 37.096C25.289 37.408 25.307 37.672 25.319 37.888C25.343 38.104 25.361 38.308 25.373 38.5C25.385 38.308 25.397 38.104 25.409 37.888C25.433 37.672 25.457 37.402 25.481 37.078C25.505 36.754 25.535 36.358 25.571 35.89C25.619 35.422 25.673 34.84 25.733 34.144C25.805 33.436 25.889 32.596 25.985 31.624C26.081 30.652 26.195 29.506 26.327 28.186H28.955V43H27.173ZM30.3952 30.544C30.3952 28.864 31.1992 28.024 32.8072 28.024C34.4152 28.024 35.2192 28.864 35.2192 30.544V40.642C35.2192 42.322 34.4152 43.162 32.8072 43.162C31.1992 43.162 30.3952 42.322 30.3952 40.642V30.544ZM33.2572 30.544C33.2572 30.172 33.1072 29.986 32.8072 29.986C32.5072 29.986 32.3572 30.172 32.3572 30.544V40.642C32.3572 41.014 32.5072 41.2 32.8072 41.2C33.1072 41.2 33.2572 41.014 33.2572 40.642V30.544ZM37.443 43V30.148H36.003V28.186H40.827V30.148H39.405V43H37.443Z" fill="#2B2B2E"/>
</g>
</svg>
