<svg width="80" height="60" viewBox="0 0 80 60" fill="none" xmlns="http://www.w3.org/2000/svg">
<rect x="6" y="1" width="59" height="47" fill="#DBE5F2"/>
<path d="M6 48L48 48" stroke="#959596" stroke-width="0.91134"/>
<path d="M9 32L61 32" stroke="#959596" stroke-width="0.60756"/>
<path d="M9 18L61 18" stroke="#959596" stroke-width="0.60756"/>
<path d="M6 1L65 0.999995" stroke="#959596" stroke-width="0.91134"/>
<path d="M65 24L65 1" stroke="#959596" stroke-width="0.91134"/>
<path d="M52.5664 45.6016L57.8998 48.6846L53.0851 57.0138L52.3935 52.3314L47.7517 53.9308L52.5664 45.6016Z" fill="#8CB5D2"/>
<path d="M59.5993 49.8427L65.4833 46.0578L71.4466 56.0794L66.7381 54.864L65.4833 59.4209L59.5993 49.8427Z" fill="#8CB5D2"/>
<path d="M58.3254 26.61C58.5844 25.194 60.6142 25.194 60.8732 26.61C61.1619 28.1886 63.155 28.7226 64.1943 27.4999C65.1266 26.4031 66.8844 27.418 66.4007 28.7738C65.8615 30.2852 67.3205 31.7443 68.832 31.2051C70.1878 30.7213 71.2027 32.4792 70.1059 33.4115C68.8832 34.4508 69.4172 36.4439 70.9958 36.7326C72.4118 36.9916 72.4118 39.0214 70.9958 39.2804C69.4172 39.5691 68.8832 41.5622 70.1059 42.6015C71.2027 43.5338 70.1878 45.2917 68.832 44.808C67.3205 44.2687 65.8615 45.7278 66.4007 47.2392C66.8844 48.595 65.1266 49.6099 64.1943 48.5131C63.155 47.2904 61.1619 47.8244 60.8732 49.403C60.6142 50.819 58.5844 50.819 58.3254 49.403C58.0367 47.8244 56.0436 47.2904 55.0043 48.5131C54.0719 49.6099 52.3141 48.595 52.7978 47.2392C53.3371 45.7278 51.878 44.2687 50.3666 44.808C49.0108 45.2917 47.9959 43.5338 49.0927 42.6015C50.3154 41.5622 49.7814 39.5691 48.2028 39.2804C46.7868 39.0214 46.7868 36.9916 48.2028 36.7326C49.7814 36.4439 50.3154 34.4508 49.0927 33.4115C47.9959 32.4792 49.0108 30.7213 50.3666 31.2051C51.878 31.7443 53.3371 30.2852 52.7978 28.7738C52.3141 27.418 54.0719 26.4031 55.0043 27.4999C56.0436 28.7226 58.0367 28.1886 58.3254 26.61Z" fill="#C3BEFF" stroke="#C3BEFF" stroke-width="0.60756"/>
<circle cx="59.5984" cy="38.0066" r="7.44261" fill="#C3BEFF" stroke="white" stroke-width="0.30378"/>
<path d="M5.62598 48.043L5.62598 0.653289" stroke="#959596" stroke-width="0.91134"/>
<path d="M10.1404 17V9.85H14.5704V10.54H10.4904L10.9104 10.02V17H10.1404ZM18.2928 15.6L18.8128 16.09C18.5528 16.4233 18.2394 16.6867 17.8728 16.88C17.5061 17.0667 17.0861 17.16 16.6128 17.16C16.0928 17.16 15.6261 17.0467 15.2128 16.82C14.8061 16.5933 14.4861 16.2833 14.2528 15.89C14.0194 15.4967 13.9028 15.0467 13.9028 14.54C13.9028 14.0333 14.0128 13.5833 14.2328 13.19C14.4594 12.7967 14.7694 12.4867 15.1628 12.26C15.5561 12.0333 16.0028 11.92 16.5028 11.92C16.9828 11.92 17.4061 12.0333 17.7728 12.26C18.1461 12.48 18.4394 12.7833 18.6528 13.17C18.8661 13.5567 18.9728 14.0033 18.9728 14.51V14.57H18.2128V14.51C18.2128 14.1233 18.1361 13.7867 17.9828 13.5C17.8361 13.2067 17.6328 12.98 17.3728 12.82C17.1194 12.6533 16.8294 12.57 16.5028 12.57C16.1428 12.57 15.8261 12.6533 15.5528 12.82C15.2794 12.9867 15.0661 13.2167 14.9128 13.51C14.7594 13.8033 14.6828 14.1433 14.6828 14.53C14.6828 14.9167 14.7661 15.26 14.9328 15.56C15.0994 15.86 15.3261 16.0933 15.6128 16.26C15.9061 16.4267 16.2428 16.51 16.6228 16.51C17.3161 16.51 17.8728 16.2067 18.2928 15.6ZM18.9728 14.8H14.5228V14.19H18.8128L18.9728 14.51V14.8ZM23.7986 17V12.08H24.5386V17H23.7986ZM19.9986 17V12.08H20.7386V17H19.9986ZM20.3586 14.73V14.1H24.2086V14.73H20.3586ZM29.9612 15.6L30.4812 16.09C30.2212 16.4233 29.9079 16.6867 29.5412 16.88C29.1745 17.0667 28.7545 17.16 28.2812 17.16C27.7612 17.16 27.2945 17.0467 26.8812 16.82C26.4745 16.5933 26.1545 16.2833 25.9212 15.89C25.6879 15.4967 25.5712 15.0467 25.5712 14.54C25.5712 14.0333 25.6812 13.5833 25.9012 13.19C26.1279 12.7967 26.4379 12.4867 26.8312 12.26C27.2245 12.0333 27.6712 11.92 28.1712 11.92C28.6512 11.92 29.0745 12.0333 29.4412 12.26C29.8145 12.48 30.1079 12.7833 30.3212 13.17C30.5345 13.5567 30.6412 14.0033 30.6412 14.51V14.57H29.8812V14.51C29.8812 14.1233 29.8045 13.7867 29.6512 13.5C29.5045 13.2067 29.3012 12.98 29.0412 12.82C28.7879 12.6533 28.4979 12.57 28.1712 12.57C27.8112 12.57 27.4945 12.6533 27.2212 12.82C26.9479 12.9867 26.7345 13.2167 26.5812 13.51C26.4279 13.8033 26.3512 14.1433 26.3512 14.53C26.3512 14.9167 26.4345 15.26 26.6012 15.56C26.7679 15.86 26.9945 16.0933 27.2812 16.26C27.5745 16.4267 27.9112 16.51 28.2912 16.51C28.9845 16.51 29.5412 16.2067 29.9612 15.6ZM30.6412 14.8H26.1912V14.19H30.4812L30.6412 14.51V14.8ZM32.4071 18.94H31.6671V12.08H32.3971V13.57H32.2171C32.2771 13.2433 32.4071 12.9567 32.6071 12.71C32.8137 12.4633 33.0671 12.27 33.3671 12.13C33.6737 11.99 34.0037 11.92 34.3571 11.92C34.8371 11.92 35.2637 12.0367 35.6371 12.27C36.0104 12.4967 36.3004 12.8067 36.5071 13.2C36.7204 13.5933 36.8271 14.04 36.8271 14.54C36.8271 15.0467 36.7171 15.4967 36.4971 15.89C36.2837 16.2833 35.9837 16.5933 35.5971 16.82C35.2171 17.0467 34.7804 17.16 34.2871 17.16C33.8404 17.16 33.4471 17.07 33.1071 16.89C32.7737 16.7033 32.5204 16.4533 32.3471 16.14C32.1804 15.82 32.1204 15.4633 32.1671 15.07L32.3071 14.87C32.3337 15.1833 32.4337 15.4667 32.6071 15.72C32.7804 15.9667 33.0071 16.16 33.2871 16.3C33.5671 16.44 33.8737 16.51 34.2071 16.51C34.5737 16.51 34.8937 16.4267 35.1671 16.26C35.4404 16.0867 35.6537 15.8533 35.8071 15.56C35.9671 15.26 36.0471 14.92 36.0471 14.54C36.0471 14.16 35.9704 13.8233 35.8171 13.53C35.6704 13.23 35.4637 12.9967 35.1971 12.83C34.9304 12.6567 34.6204 12.57 34.2671 12.57C33.9071 12.57 33.5871 12.66 33.3071 12.84C33.0271 13.02 32.8071 13.27 32.6471 13.59C32.4871 13.9033 32.4071 14.27 32.4071 14.69V18.94ZM41.9229 17H41.2129V16.04L41.2029 15.76V13.92C41.2029 13.5067 41.0695 13.1767 40.8029 12.93C40.5362 12.6833 40.1762 12.56 39.7229 12.56C39.3962 12.56 39.0995 12.63 38.8329 12.77C38.5729 12.91 38.3429 13.1 38.1429 13.34L37.6229 12.84C37.8962 12.5467 38.2029 12.32 38.5429 12.16C38.8895 12 39.2829 11.92 39.7229 11.92C40.1629 11.92 40.5462 12.0033 40.8729 12.17C41.2062 12.33 41.4629 12.5567 41.6429 12.85C41.8295 13.1433 41.9229 13.49 41.9229 13.89V17ZM39.3329 17.16C38.9595 17.16 38.6295 17.0933 38.3429 16.96C38.0629 16.82 37.8429 16.6333 37.6829 16.4C37.5295 16.1667 37.4529 15.9 37.4529 15.6C37.4529 15.2533 37.5495 14.96 37.7429 14.72C37.9362 14.4733 38.1995 14.2867 38.5329 14.16C38.8729 14.0333 39.2562 13.97 39.6829 13.97H41.3029V14.57H39.7829C39.3362 14.57 38.9629 14.6533 38.6629 14.82C38.3695 14.98 38.2229 15.2333 38.2229 15.58C38.2229 15.8733 38.3329 16.1067 38.5529 16.28C38.7729 16.4533 39.0629 16.54 39.4229 16.54C39.7695 16.54 40.0829 16.4733 40.3629 16.34C40.6429 16.2 40.8662 16.0067 41.0329 15.76C41.2062 15.5133 41.3029 15.23 41.3229 14.91L41.6229 15.08C41.6229 15.48 41.5229 15.8367 41.3229 16.15C41.1295 16.4633 40.8595 16.71 40.5129 16.89C40.1662 17.07 39.7729 17.16 39.3329 17.16ZM44.3909 17V12.29H45.1309V17H44.3909ZM42.5609 12.71V12.08H46.9509V12.71H42.5609ZM49.8382 17.16C49.3382 17.16 48.8915 17.0467 48.4982 16.82C48.1048 16.5933 47.7948 16.2833 47.5682 15.89C47.3482 15.4967 47.2382 15.0467 47.2382 14.54C47.2382 14.0333 47.3482 13.5833 47.5682 13.19C47.7948 12.7967 48.1048 12.4867 48.4982 12.26C48.8915 12.0333 49.3382 11.92 49.8382 11.92C50.3448 11.92 50.7915 12.0333 51.1782 12.26C51.5715 12.4867 51.8782 12.7967 52.0982 13.19C52.3248 13.5833 52.4382 14.0333 52.4382 14.54C52.4382 15.0467 52.3248 15.4967 52.0982 15.89C51.8782 16.2833 51.5715 16.5933 51.1782 16.82C50.7915 17.0467 50.3448 17.16 49.8382 17.16ZM49.8382 16.51C50.1982 16.51 50.5148 16.4267 50.7882 16.26C51.0615 16.0933 51.2748 15.8633 51.4282 15.57C51.5815 15.27 51.6582 14.9267 51.6582 14.54C51.6582 14.1533 51.5815 13.8133 51.4282 13.52C51.2748 13.22 51.0615 12.9867 50.7882 12.82C50.5148 12.6533 50.1982 12.57 49.8382 12.57C49.4782 12.57 49.1615 12.6533 48.8882 12.82C48.6148 12.9867 48.4015 13.22 48.2482 13.52C48.0948 13.8133 48.0182 14.1533 48.0182 14.54C48.0182 14.9267 48.0948 15.27 48.2482 15.57C48.4015 15.8633 48.6148 16.0933 48.8882 16.26C49.1615 16.4267 49.4782 16.51 49.8382 16.51ZM54.2107 18.94H53.4707V12.08H54.2007V13.57H54.0207C54.0807 13.2433 54.2107 12.9567 54.4107 12.71C54.6174 12.4633 54.8707 12.27 55.1707 12.13C55.4774 11.99 55.8074 11.92 56.1607 11.92C56.6407 11.92 57.0674 12.0367 57.4407 12.27C57.8141 12.4967 58.1041 12.8067 58.3107 13.2C58.5241 13.5933 58.6307 14.04 58.6307 14.54C58.6307 15.0467 58.5207 15.4967 58.3007 15.89C58.0874 16.2833 57.7874 16.5933 57.4007 16.82C57.0207 17.0467 56.5841 17.16 56.0907 17.16C55.6441 17.16 55.2507 17.07 54.9107 16.89C54.5774 16.7033 54.3241 16.4533 54.1507 16.14C53.9841 15.82 53.9241 15.4633 53.9707 15.07L54.1107 14.87C54.1374 15.1833 54.2374 15.4667 54.4107 15.72C54.5841 15.9667 54.8107 16.16 55.0907 16.3C55.3707 16.44 55.6774 16.51 56.0107 16.51C56.3774 16.51 56.6974 16.4267 56.9707 16.26C57.2441 16.0867 57.4574 15.8533 57.6107 15.56C57.7707 15.26 57.8507 14.92 57.8507 14.54C57.8507 14.16 57.7741 13.8233 57.6207 13.53C57.4741 13.23 57.2674 12.9967 57.0007 12.83C56.7341 12.6567 56.4241 12.57 56.0707 12.57C55.7107 12.57 55.3907 12.66 55.1107 12.84C54.8307 13.02 54.6107 13.27 54.4507 13.59C54.2907 13.9033 54.2107 14.27 54.2107 14.69V18.94ZM19.1916 30V22.85H23.6216V23.54H19.5416L19.9616 23.02V30H19.1916ZM24.2193 31.94H23.4793V25.08H24.2093V26.57H24.0293C24.0893 26.2433 24.2193 25.9567 24.4193 25.71C24.626 25.4633 24.8793 25.27 25.1793 25.13C25.486 24.99 25.816 24.92 26.1693 24.92C26.6493 24.92 27.076 25.0367 27.4493 25.27C27.8227 25.4967 28.1127 25.8067 28.3193 26.2C28.5327 26.5933 28.6393 27.04 28.6393 27.54C28.6393 28.0467 28.5293 28.4967 28.3093 28.89C28.096 29.2833 27.796 29.5933 27.4093 29.82C27.0293 30.0467 26.5927 30.16 26.0993 30.16C25.6527 30.16 25.2593 30.07 24.9193 29.89C24.586 29.7033 24.3327 29.4533 24.1593 29.14C23.9927 28.82 23.9327 28.4633 23.9793 28.07L24.1193 27.87C24.146 28.1833 24.246 28.4667 24.4193 28.72C24.5927 28.9667 24.8193 29.16 25.0993 29.3C25.3793 29.44 25.686 29.51 26.0193 29.51C26.386 29.51 26.706 29.4267 26.9793 29.26C27.2527 29.0867 27.466 28.8533 27.6193 28.56C27.7793 28.26 27.8593 27.92 27.8593 27.54C27.8593 27.16 27.7827 26.8233 27.6293 26.53C27.4827 26.23 27.276 25.9967 27.0093 25.83C26.7427 25.6567 26.4327 25.57 26.0793 25.57C25.7193 25.57 25.3993 25.66 25.1193 25.84C24.8393 26.02 24.6193 26.27 24.4593 26.59C24.2993 26.9033 24.2193 27.27 24.2193 27.69V31.94ZM33.7351 30H33.0251V29.04L33.0151 28.76V26.92C33.0151 26.5067 32.8818 26.1767 32.6151 25.93C32.3485 25.6833 31.9885 25.56 31.5351 25.56C31.2085 25.56 30.9118 25.63 30.6451 25.77C30.3851 25.91 30.1551 26.1 29.9551 26.34L29.4351 25.84C29.7085 25.5467 30.0151 25.32 30.3551 25.16C30.7018 25 31.0951 24.92 31.5351 24.92C31.9751 24.92 32.3585 25.0033 32.6851 25.17C33.0185 25.33 33.2751 25.5567 33.4551 25.85C33.6418 26.1433 33.7351 26.49 33.7351 26.89V30ZM31.1451 30.16C30.7718 30.16 30.4418 30.0933 30.1551 29.96C29.8751 29.82 29.6551 29.6333 29.4951 29.4C29.3418 29.1667 29.2651 28.9 29.2651 28.6C29.2651 28.2533 29.3618 27.96 29.5551 27.72C29.7485 27.4733 30.0118 27.2867 30.3451 27.16C30.6851 27.0333 31.0685 26.97 31.4951 26.97H33.1151V27.57H31.5951C31.1485 27.57 30.7751 27.6533 30.4751 27.82C30.1818 27.98 30.0351 28.2333 30.0351 28.58C30.0351 28.8733 30.1451 29.1067 30.3651 29.28C30.5851 29.4533 30.8751 29.54 31.2351 29.54C31.5818 29.54 31.8951 29.4733 32.1751 29.34C32.4551 29.2 32.6785 29.0067 32.8451 28.76C33.0185 28.5133 33.1151 28.23 33.1351 27.91L33.4351 28.08C33.4351 28.48 33.3351 28.8367 33.1351 29.15C32.9418 29.4633 32.6718 29.71 32.3251 29.89C31.9785 30.07 31.5851 30.16 31.1451 30.16ZM34.9232 30V25.08H35.7832L37.8232 28.88H37.6632L39.7032 25.08H40.6032V30H39.8732V25.33H40.2932L38.0332 29.55H37.4032L35.1632 25.33H35.6332V30H34.9232ZM44.2286 30.16C43.7286 30.16 43.2819 30.0467 42.8886 29.82C42.4952 29.5933 42.1852 29.2833 41.9586 28.89C41.7386 28.4967 41.6286 28.0467 41.6286 27.54C41.6286 27.0333 41.7386 26.5833 41.9586 26.19C42.1852 25.7967 42.4952 25.4867 42.8886 25.26C43.2819 25.0333 43.7286 24.92 44.2286 24.92C44.7352 24.92 45.1819 25.0333 45.5686 25.26C45.9619 25.4867 46.2686 25.7967 46.4886 26.19C46.7152 26.5833 46.8286 27.0333 46.8286 27.54C46.8286 28.0467 46.7152 28.4967 46.4886 28.89C46.2686 29.2833 45.9619 29.5933 45.5686 29.82C45.1819 30.0467 44.7352 30.16 44.2286 30.16ZM44.2286 29.51C44.5886 29.51 44.9052 29.4267 45.1786 29.26C45.4519 29.0933 45.6652 28.8633 45.8186 28.57C45.9719 28.27 46.0486 27.9267 46.0486 27.54C46.0486 27.1533 45.9719 26.8133 45.8186 26.52C45.6652 26.22 45.4519 25.9867 45.1786 25.82C44.9052 25.6533 44.5886 25.57 44.2286 25.57C43.8686 25.57 43.5519 25.6533 43.2786 25.82C43.0052 25.9867 42.7919 26.22 42.6386 26.52C42.4852 26.8133 42.4086 27.1533 42.4086 27.54C42.4086 27.9267 42.4852 28.27 42.6386 28.57C42.7919 28.8633 43.0052 29.0933 43.2786 29.26C43.5519 29.4267 43.8686 29.51 44.2286 29.51ZM48.9458 30V25.29H49.6858V30H48.9458ZM47.1158 25.71V25.08H51.5058V25.71H47.1158Z" fill="#959596"/>
</svg>
