<svg width="24" height="24" viewBox="0 0 24 24" fill="none" xmlns="http://www.w3.org/2000/svg">
<g id="Icons/printer" clip-path="url(#clip0_1183_4340)">
<path id="Vector" d="M21.55 7.2H19.95V1.6C19.95 0.719979 19.2299 0 18.35 0H6.35C5.46998 0 4.75 0.719979 4.75 1.6V7.2H3.15C1.78998 7.2 0.75 8.23998 0.75 9.6V16.8C0.749958 18.16 1.78998 19.2 3.15 19.2H4.75V22.4C4.75 23.28 5.46998 24 6.35 24H18.35C19.23 24 19.95 23.28 19.95 22.4V19.2H21.55C22.91 19.2 23.95 18.16 23.95 16.8V9.6C23.95 8.23998 22.91 7.2 21.55 7.2ZM5.54996 1.6C5.54996 1.20002 5.86996 0.8 6.34996 0.8H18.35C18.7499 0.8 19.15 1.12 19.15 1.6V7.2H5.54996V1.6ZM19.15 22.4C19.15 22.8 18.83 23.2 18.35 23.2H6.35C5.95002 23.2 5.55 22.88 5.55 22.4V16.8H19.15V22.4ZM23.15 16.8C23.15 17.68 22.4299 18.4 21.55 18.4H19.95V16H4.75V18.4H3.15C2.26998 18.4 1.55 17.68 1.55 16.8V9.6C1.55 8.71998 2.26998 8 3.15 8H21.55C22.43 8 23.15 8.71998 23.15 9.6L23.15 16.8Z" fill="#2B2B2E" stroke="#2B2B2E" stroke-width="0.5"/>
<path id="Vector_2" d="M18.9501 11.2004C18.9501 11.0899 19.0396 11.0004 19.1501 11.0004C19.2606 11.0004 19.3501 11.0899 19.3501 11.2004C19.3501 11.3108 19.2606 11.4004 19.1501 11.4004C19.0396 11.4004 18.9501 11.3108 18.9501 11.2004Z" fill="#2B2B2E" stroke="#2B2B2E" stroke-width="2"/>
<g id="Vector_3">
<mask id="path-3-inside-1_1183_4340" fill="white">
<path d="M18.3501 20.8008H6.3501V21.6008H18.3501V20.8008Z"/>
</mask>
<path d="M18.3501 20.8008H6.3501V21.6008H18.3501V20.8008Z" fill="#2B2B2E"/>
<path d="M6.3501 20.8008V18.8008H4.3501V20.8008H6.3501ZM18.3501 20.8008H20.3501V18.8008H18.3501V20.8008ZM18.3501 21.6008V23.6008H20.3501V21.6008H18.3501ZM6.3501 21.6008H4.3501V23.6008H6.3501V21.6008ZM6.3501 22.8008H18.3501V18.8008H6.3501V22.8008ZM16.3501 20.8008V21.6008H20.3501V20.8008H16.3501ZM18.3501 19.6008H6.3501V23.6008H18.3501V19.6008ZM8.3501 21.6008V20.8008H4.3501V21.6008H8.3501Z" fill="#2B2B2E" mask="url(#path-3-inside-1_1183_4340)"/>
</g>
<g id="Vector_4">
<mask id="path-5-inside-2_1183_4340" fill="white">
<path d="M18.3501 18.4014H6.3501V19.2014H18.3501V18.4014Z"/>
</mask>
<path d="M18.3501 18.4014H6.3501V19.2014H18.3501V18.4014Z" fill="#2B2B2E"/>
<path d="M6.3501 18.4014V16.4014H4.3501V18.4014H6.3501ZM18.3501 18.4014H20.3501V16.4014H18.3501V18.4014ZM18.3501 19.2014V21.2014H20.3501V19.2014H18.3501ZM6.3501 19.2014H4.3501V21.2014H6.3501V19.2014ZM6.3501 20.4014H18.3501V16.4014H6.3501V20.4014ZM16.3501 18.4014V19.2014H20.3501V18.4014H16.3501ZM18.3501 17.2014H6.3501V21.2014H18.3501V17.2014ZM8.3501 19.2014V18.4014H4.3501V19.2014H8.3501Z" fill="#2B2B2E" mask="url(#path-5-inside-2_1183_4340)"/>
</g>
</g>
<defs>
<clipPath id="clip0_1183_4340">
<rect width="24" height="24" fill="white"/>
</clipPath>
</defs>
</svg>
