<svg width="161" height="48" viewBox="0 0 161 48" fill="none" xmlns="http://www.w3.org/2000/svg">
<rect width="161" height="48" rx="16" fill="#E9F993"/>
<path d="M34.272 27.232L35.168 28.08C34.6773 28.752 34.032 29.2853 33.232 29.68C32.4427 30.064 31.5733 30.256 30.624 30.256C29.8027 30.256 29.04 30.1067 28.336 29.808C27.6427 29.5093 27.0347 29.0933 26.512 28.56C26 28.016 25.6 27.3813 25.312 26.656C25.024 25.9307 24.88 25.1413 24.88 24.288C24.88 23.4347 25.024 22.6453 25.312 21.92C25.6107 21.184 26.0213 20.5493 26.544 20.016C27.0667 19.472 27.6747 19.0507 28.368 18.752C29.072 18.4533 29.8347 18.304 30.656 18.304C31.6053 18.304 32.4693 18.5013 33.248 18.896C34.0373 19.28 34.6773 19.808 35.168 20.48L34.272 21.328C33.8773 20.7413 33.376 20.2773 32.768 19.936C32.16 19.5947 31.456 19.424 30.656 19.424C29.8027 19.424 29.0347 19.6373 28.352 20.064C27.68 20.48 27.1467 21.056 26.752 21.792C26.3573 22.5173 26.16 23.3493 26.16 24.288C26.16 25.216 26.3573 26.048 26.752 26.784C27.1467 27.5093 27.68 28.0853 28.352 28.512C29.0347 28.928 29.8027 29.136 30.656 29.136C31.456 29.136 32.16 28.9653 32.768 28.624C33.376 28.2827 33.8773 27.8187 34.272 27.232ZM43.4521 30L38.8761 25.92H39.0361L43.1641 22.128H44.7801L40.4441 26.064L40.0441 25.488L45.1801 30H43.4521ZM38.1081 30V22.128H39.2921V30H38.1081ZM53.8858 30H52.7498V28.464L52.7338 28.016V25.072C52.7338 24.4107 52.5204 23.8827 52.0938 23.488C51.6671 23.0933 51.0911 22.896 50.3658 22.896C49.8431 22.896 49.3684 23.008 48.9418 23.232C48.5258 23.456 48.1578 23.76 47.8378 24.144L47.0058 23.344C47.4431 22.8747 47.9338 22.512 48.4778 22.256C49.0324 22 49.6618 21.872 50.3658 21.872C51.0698 21.872 51.6831 22.0053 52.2058 22.272C52.7391 22.528 53.1498 22.8907 53.4378 23.36C53.7364 23.8293 53.8858 24.384 53.8858 25.024V30ZM49.7418 30.256C49.1444 30.256 48.6164 30.1493 48.1578 29.936C47.7098 29.712 47.3578 29.4133 47.1018 29.04C46.8564 28.6667 46.7338 28.24 46.7338 27.76C46.7338 27.2053 46.8884 26.736 47.1978 26.352C47.5071 25.9573 47.9284 25.6587 48.4618 25.456C49.0058 25.2533 49.6191 25.152 50.3018 25.152H52.8938V26.112H50.4618C49.7471 26.112 49.1498 26.2453 48.6698 26.512C48.2004 26.768 47.9658 27.1733 47.9658 27.728C47.9658 28.1973 48.1418 28.5707 48.4938 28.848C48.8458 29.1253 49.3098 29.264 49.8858 29.264C50.4404 29.264 50.9418 29.1573 51.3898 28.944C51.8378 28.72 52.1951 28.4107 52.4618 28.016C52.7391 27.6213 52.8938 27.168 52.9258 26.656L53.4058 26.928C53.4058 27.568 53.2458 28.1387 52.9258 28.64C52.6164 29.1413 52.1844 29.536 51.6298 29.824C51.0751 30.112 50.4458 30.256 49.7418 30.256ZM59.7626 27.328C58.7493 27.328 57.976 27.072 57.4426 26.56C56.9093 26.0373 56.6426 25.2853 56.6426 24.304V22.128H57.8266V24.176C57.8266 24.9867 58.008 25.5467 58.3706 25.856C58.744 26.1547 59.2666 26.304 59.9386 26.304C60.7493 26.304 61.5813 26.0107 62.4346 25.424L62.8506 26.208C62.552 26.4533 62.232 26.6613 61.8906 26.832C61.56 26.992 61.2133 27.1147 60.8506 27.2C60.4986 27.2853 60.136 27.328 59.7626 27.328ZM62.3546 30V22.128H63.5386V30H62.3546ZM73.6045 30H72.4685V28.464L72.4525 28.016V25.072C72.4525 24.4107 72.2392 23.8827 71.8125 23.488C71.3858 23.0933 70.8098 22.896 70.0845 22.896C69.5618 22.896 69.0872 23.008 68.6605 23.232C68.2445 23.456 67.8765 23.76 67.5565 24.144L66.7245 23.344C67.1618 22.8747 67.6525 22.512 68.1965 22.256C68.7512 22 69.3805 21.872 70.0845 21.872C70.7885 21.872 71.4018 22.0053 71.9245 22.272C72.4578 22.528 72.8685 22.8907 73.1565 23.36C73.4552 23.8293 73.6045 24.384 73.6045 25.024V30ZM69.4605 30.256C68.8632 30.256 68.3352 30.1493 67.8765 29.936C67.4285 29.712 67.0765 29.4133 66.8205 29.04C66.5752 28.6667 66.4525 28.24 66.4525 27.76C66.4525 27.2053 66.6072 26.736 66.9165 26.352C67.2258 25.9573 67.6472 25.6587 68.1805 25.456C68.7245 25.2533 69.3378 25.152 70.0205 25.152H72.6125V26.112H70.1805C69.4658 26.112 68.8685 26.2453 68.3885 26.512C67.9192 26.768 67.6845 27.1733 67.6845 27.728C67.6845 28.1973 67.8605 28.5707 68.2125 28.848C68.5645 29.1253 69.0285 29.264 69.6045 29.264C70.1592 29.264 70.6605 29.1573 71.1085 28.944C71.5565 28.72 71.9138 28.4107 72.1805 28.016C72.4578 27.6213 72.6125 27.168 72.6445 26.656L73.1245 26.928C73.1245 27.568 72.9645 28.1387 72.6445 28.64C72.3352 29.1413 71.9032 29.536 71.3485 29.824C70.7938 30.112 70.1645 30.256 69.4605 30.256ZM78.9374 30V22.464H80.1214V30H78.9374ZM76.0094 23.136V22.128H83.0334V23.136H76.0094ZM85.7175 30V22.128H86.9015V29.808L86.1655 28.992H89.4775C90.0108 28.992 90.4215 28.864 90.7095 28.608C91.0082 28.3413 91.1575 27.9787 91.1575 27.52C91.1575 27.072 91.0082 26.72 90.7095 26.464C90.4215 26.208 90.0108 26.08 89.4775 26.08H86.2455V25.072H89.4775C90.3415 25.072 91.0402 25.3013 91.5735 25.76C92.1175 26.208 92.3895 26.7947 92.3895 27.52C92.3895 27.9893 92.2615 28.4107 92.0055 28.784C91.7495 29.1573 91.4028 29.456 90.9655 29.68C90.5282 29.8933 90.0322 30 89.4775 30H85.7175Z" fill="#2B2B2E"/>
<path d="M115 19L125 29L135 19" stroke="#2B2B2E" stroke-width="2" stroke-linecap="round" stroke-linejoin="round"/>
</svg>
