<svg width="24" height="24" viewBox="0 0 24 24" fill="none" xmlns="http://www.w3.org/2000/svg">
<g clip-path="url(#clip0_1466_1898)">
<path d="M9.75688 13.6812C9.6376 13.839 9.51133 14.0499 9.46014 14.3093C9.31271 15.0565 9.84562 15.5837 10.3909 15.943C10.8757 16.2625 11.2636 16.5266 11.6548 16.7931L11.6561 16.794C12.083 17.0847 12.5136 17.3779 13.0704 17.7429C13.1967 17.8257 13.3191 17.9128 13.4515 18.0072C13.4732 18.0227 13.4954 18.0386 13.5183 18.055C13.9599 18.3717 14.616 18.8423 15.4513 18.7655C16.3095 18.6865 16.7583 17.897 16.9399 16.9263C17.3369 14.8037 18.1246 10.1677 18.3088 8.23203C18.3328 7.9805 18.3047 7.69821 18.2814 7.56206C18.2574 7.42188 18.1843 7.05738 17.8439 6.78121C17.6529 6.62618 17.4427 6.55491 17.2965 6.51997C17.1454 6.48388 17.0019 6.47229 16.8932 6.4742C16.5327 6.48055 16.145 6.58303 15.4928 6.81968C14.8277 7.06102 13.8055 7.47452 12.142 8.16644C10.9693 8.65422 8.6344 9.65997 5.14313 11.181C4.83681 11.3035 4.55659 11.4422 4.3355 11.6064C4.1312 11.7581 3.84697 12.0284 3.79499 12.443C3.76121 12.7125 3.82331 12.9735 3.97368 13.1947C4.10952 13.3945 4.29011 13.5218 4.43474 13.6041C4.69268 13.7509 5.03033 13.8568 5.3036 13.9425C5.31877 13.9472 5.33375 13.9519 5.3485 13.9566C5.43368 13.9834 5.51807 14.0099 5.60408 14.0379C5.92071 14.1408 6.29726 14.2542 6.65528 14.344C6.99589 14.4294 7.37981 14.5093 7.68509 14.5159C8.29017 14.5289 8.87757 14.2805 9.4246 13.9054C9.53725 13.8293 9.64801 13.7546 9.75688 13.6812ZM23.25 12C23.25 18.2132 18.2132 23.25 12 23.25C5.7868 23.25 0.75 18.2132 0.75 12C0.75 5.7868 5.7868 0.75 12 0.75C18.2132 0.75 23.25 5.7868 23.25 12Z" stroke="#2B2B2E" stroke-width="1.5"/>
</g>
<defs>
<clipPath id="clip0_1466_1898">
<rect width="24" height="24" fill="white"/>
</clipPath>
</defs>
</svg>
