<svg width="44" height="44" viewBox="0 0 44 44" fill="none" xmlns="http://www.w3.org/2000/svg">
<path d="M25.1932 32.2668L25.4593 31.8936L25.1932 32.2668C25.214 32.2816 25.2348 32.2965 25.2556 32.3113C26.116 32.9253 27.0607 33.5994 28.2434 33.4906C29.1598 33.4062 29.8389 32.5552 30.1554 30.8629C30.8839 26.9683 32.3204 18.5073 32.6537 15.0052C32.6876 14.6483 32.6462 14.2158 32.6124 14.0184C32.5782 13.8186 32.4927 13.4332 32.1363 13.144C31.9317 12.978 31.6915 12.8913 31.4972 12.8448C31.2999 12.7977 31.114 12.7837 30.9869 12.7859C30.4908 12.7946 29.9044 12.9333 28.7162 13.3644C27.5201 13.7985 25.6655 14.5483 22.6124 15.8182C20.4692 16.7096 16.1912 18.5523 9.78214 21.3446C9.2482 21.5574 8.81225 21.7786 8.49496 22.0143C8.18825 22.242 7.91536 22.5408 7.86703 22.9262C7.8324 23.2025 7.8948 23.4567 8.04311 23.6748C8.18255 23.8799 8.38132 24.029 8.58365 24.1441C8.96846 24.363 9.50225 24.5308 10.0408 24.7001L10.0805 24.7126C10.2361 24.7615 10.395 24.8115 10.5575 24.8643C11.1255 25.0489 11.7946 25.2503 12.4243 25.4082C13.0434 25.5634 13.6607 25.6863 14.1091 25.696C14.954 25.7142 15.8432 25.3665 16.7627 24.7354C19.7578 22.7136 22.0272 21.1926 23.5717 20.1717C24.3444 19.661 24.9338 19.2767 25.3411 19.0179C25.4418 18.9539 25.5307 18.8981 25.6079 18.8502C25.5523 18.9103 25.4905 18.9758 25.4229 19.0462C25.0824 19.4009 24.6152 19.8611 24.0934 20.3635C23.0507 21.3673 21.8052 22.5253 20.953 23.3176L20.9057 23.3615C20.4079 23.8243 20.0362 24.1698 19.9503 24.2591C19.7847 24.4311 19.615 24.5948 19.4452 24.7585L19.4334 24.7698C19.1814 25.0128 18.921 25.2638 18.7134 25.5155C18.5036 25.7697 18.3108 26.0673 18.2429 26.4112C18.0912 27.18 18.598 27.8332 19.5544 28.4635C20.4496 29.0534 21.1659 29.5412 21.8831 30.0296L21.8835 30.0299C22.6667 30.5632 23.4507 31.0972 24.465 31.762C24.7139 31.9251 24.9526 32.0953 25.1932 32.2668ZM25.9219 18.4796C25.9238 18.4759 25.9251 18.4739 25.9252 18.4738C25.9254 18.4737 25.9244 18.4756 25.9219 18.4796ZM43.5417 22C43.5417 33.8971 33.8971 43.5417 22 43.5417C10.1029 43.5417 0.458333 33.8971 0.458333 22C0.458333 10.1029 10.1029 0.458333 22 0.458333C33.8971 0.458333 43.5417 10.1029 43.5417 22Z" fill="#C3BEFF" stroke="#2B2B2E" stroke-width="0.916667"/>
</svg>
