<svg width="24" height="24" viewBox="0 0 24 24" fill="none" xmlns="http://www.w3.org/2000/svg">
<path d="M18 7.0056C17.4777 7.38205 16.8993 7.66997 16.2873 7.85827C15.9588 7.47235 15.5222 7.19882 15.0366 7.07467C14.5509 6.95052 14.0397 6.98175 13.572 7.16413C13.1044 7.34651 12.7028 7.67124 12.4216 8.09441C12.1405 8.51757 11.9933 9.01876 12 9.53017V10.0875C11.0414 10.1129 10.0916 9.89565 9.2351 9.45518C8.37859 9.01471 7.64199 8.36465 7.09091 7.5629C7.09091 7.5629 4.90909 12.5786 9.81818 14.8078C8.69483 15.5869 7.35663 15.9775 6 15.9224C10.9091 18.7089 16.9091 15.9224 16.9091 9.51345C16.9086 9.35822 16.894 9.20337 16.8655 9.05089C17.4221 8.48997 17.815 7.78176 18 7.0056V7.0056Z" stroke="#2B2B2E" stroke-width="1.5" stroke-linecap="round" stroke-linejoin="round"/>
<rect x="0.75" y="0.75" width="22.5" height="22.5" rx="11.25" stroke="#2B2B2E" stroke-width="1.5"/>
</svg>
