<svg width="304" height="461" viewBox="0 0 304 461" fill="none" xmlns="http://www.w3.org/2000/svg">
<g clip-path="url(#clip0_615_1272)">
<rect y="0.5" width="304" height="460" rx="12" fill="white"/>
<path opacity="0.2" d="M65.8072 371.5V360.06H72.8952V361.164H66.3672L67.0392 360.332V371.5H65.8072ZM75.9511 371.756C75.1511 371.756 74.4364 371.575 73.8071 371.212C73.1777 370.849 72.6817 370.353 72.3191 369.724C71.9671 369.095 71.7911 368.375 71.7911 367.564C71.7911 366.753 71.9671 366.033 72.3191 365.404C72.6817 364.775 73.1777 364.279 73.8071 363.916C74.4364 363.553 75.1511 363.372 75.9511 363.372C76.7617 363.372 77.4764 363.553 78.0951 363.916C78.7244 364.279 79.2151 364.775 79.5671 365.404C79.9297 366.033 80.1111 366.753 80.1111 367.564C80.1111 368.375 79.9297 369.095 79.5671 369.724C79.2151 370.353 78.7244 370.849 78.0951 371.212C77.4764 371.575 76.7617 371.756 75.9511 371.756ZM75.9511 370.716C76.5271 370.716 77.0337 370.583 77.4711 370.316C77.9084 370.049 78.2497 369.681 78.4951 369.212C78.7404 368.732 78.8631 368.183 78.8631 367.564C78.8631 366.945 78.7404 366.401 78.4951 365.932C78.2497 365.452 77.9084 365.079 77.4711 364.812C77.0337 364.545 76.5271 364.412 75.9511 364.412C75.3751 364.412 74.8684 364.545 74.4311 364.812C73.9937 365.079 73.6524 365.452 73.4071 365.932C73.1617 366.401 73.0391 366.945 73.0391 367.564C73.0391 368.183 73.1617 368.732 73.4071 369.212C73.6524 369.681 73.9937 370.049 74.4311 370.316C74.8684 370.583 75.3751 370.716 75.9511 370.716ZM80.7747 371.18V370.492H81.0947C81.308 370.492 81.4734 370.444 81.5907 370.348C81.7187 370.241 81.8147 370.071 81.8787 369.836C81.9534 369.601 82.012 369.281 82.0547 368.876L82.6787 363.628H88.1187V371.02H86.9347V363.868L87.7667 364.636H82.8547L83.8147 363.868L83.1747 368.972C83.1107 369.516 83.0094 369.948 82.8707 370.268C82.732 370.588 82.5347 370.823 82.2787 370.972C82.0334 371.111 81.692 371.18 81.2547 371.18H80.7747ZM80.4547 373.548V370.492H89.2387V373.548H88.1187V370.652L88.9507 371.5H81.1107L81.5747 370.652V373.548H80.4547Z" fill="#959596"/>
<path d="M122 378.5H32V380.5H122V378.5Z" fill="#959596" mask="url(#path-3-inside-1_615_1272)"/>
<path opacity="0.2" d="M195.827 371.5V360.06H204.915V371.5H203.683V360.332L204.355 361.164H196.387L197.059 360.332V371.5H195.827ZM210.924 371.756C210.124 371.756 209.409 371.575 208.78 371.212C208.151 370.849 207.655 370.353 207.292 369.724C206.94 369.095 206.764 368.375 206.764 367.564C206.764 366.753 206.94 366.033 207.292 365.404C207.655 364.775 208.151 364.279 208.78 363.916C209.409 363.553 210.124 363.372 210.924 363.372C211.735 363.372 212.449 363.553 213.068 363.916C213.697 364.279 214.188 364.775 214.54 365.404C214.903 366.033 215.084 366.753 215.084 367.564C215.084 368.375 214.903 369.095 214.54 369.724C214.188 370.353 213.697 370.849 213.068 371.212C212.449 371.575 211.735 371.756 210.924 371.756ZM210.924 370.716C211.5 370.716 212.007 370.583 212.444 370.316C212.881 370.049 213.223 369.681 213.468 369.212C213.713 368.732 213.836 368.183 213.836 367.564C213.836 366.945 213.713 366.401 213.468 365.932C213.223 365.452 212.881 365.079 212.444 364.812C212.007 364.545 211.5 364.412 210.924 364.412C210.348 364.412 209.841 364.545 209.404 364.812C208.967 365.079 208.625 365.452 208.38 365.932C208.135 366.401 208.012 366.945 208.012 367.564C208.012 368.183 208.135 368.732 208.38 369.212C208.625 369.681 208.967 370.049 209.404 370.316C209.841 370.583 210.348 370.716 210.924 370.716ZM215.747 371.18V370.492H216.067C216.281 370.492 216.446 370.444 216.563 370.348C216.691 370.241 216.787 370.071 216.851 369.836C216.926 369.601 216.985 369.281 217.027 368.876L217.651 363.628H223.091V371.02H221.907V363.868L222.739 364.636H217.827L218.787 363.868L218.147 368.972C218.083 369.516 217.982 369.948 217.843 370.268C217.705 370.588 217.507 370.823 217.251 370.972C217.006 371.111 216.665 371.18 216.227 371.18H215.747ZM215.427 373.548V370.492H224.211V373.548H223.091V370.652L223.923 371.5H216.083L216.547 370.652V373.548H215.427ZM225.858 371.5V363.628H232.818V371.5H231.634V363.868L232.466 364.636H226.05L227.042 363.868V371.5H225.858ZM234.954 371.5V363.628H236.138V369.916L236.01 369.868L241.13 363.628H242.154V371.5H240.97V365.212L241.098 365.26L235.978 371.5H234.954ZM250.299 369.452L251.147 370.236C250.785 370.705 250.326 371.079 249.771 371.356C249.227 371.623 248.609 371.756 247.915 371.756C247.115 371.756 246.401 371.575 245.771 371.212C245.153 370.849 244.662 370.353 244.299 369.724C243.947 369.095 243.771 368.375 243.771 367.564C243.771 366.753 243.947 366.033 244.299 365.404C244.662 364.775 245.158 364.279 245.787 363.916C246.417 363.553 247.131 363.372 247.931 363.372C248.625 363.372 249.243 363.511 249.787 363.788C250.331 364.055 250.785 364.423 251.147 364.892L250.299 365.676C250.043 365.292 249.723 364.988 249.339 364.764C248.955 364.529 248.486 364.412 247.931 364.412C247.355 364.412 246.849 364.545 246.411 364.812C245.974 365.079 245.633 365.452 245.387 365.932C245.142 366.401 245.019 366.945 245.019 367.564C245.019 368.183 245.142 368.732 245.387 369.212C245.633 369.681 245.974 370.049 246.411 370.316C246.849 370.583 247.355 370.716 247.931 370.716C248.486 370.716 248.955 370.604 249.339 370.38C249.723 370.145 250.043 369.836 250.299 369.452ZM252.598 371.5V363.628H253.782V371.308L253.046 370.492H256.358C256.891 370.492 257.302 370.364 257.59 370.108C257.889 369.841 258.038 369.479 258.038 369.02C258.038 368.572 257.889 368.22 257.59 367.964C257.302 367.708 256.891 367.58 256.358 367.58H253.126V366.572H256.358C257.222 366.572 257.921 366.801 258.454 367.26C258.998 367.708 259.27 368.295 259.27 369.02C259.27 369.489 259.142 369.911 258.886 370.284C258.63 370.657 258.283 370.956 257.846 371.18C257.409 371.393 256.913 371.5 256.358 371.5H252.598Z" fill="#959596"/>
<path d="M272 378.5H182V380.5H272V378.5Z" fill="#959596" mask="url(#path-6-inside-2_615_1272)"/>
<path d="M73.4675 269.5V252.34H75.3155V268.324H74.2355L85.1315 252.34H87.1955V269.5H85.3475V253.636H86.3075L75.4595 269.5H73.4675ZM91.3888 269.5V257.692H93.4528L98.3488 266.812H97.9648L102.861 257.692H105.021V269.5H103.269V258.292H104.277L98.8528 268.42H97.3408L91.9648 258.292H93.0928V269.5H91.3888ZM116.554 269.5V257.98L117.658 259.204H113.002C112.33 259.204 111.738 259.364 111.226 259.684C110.73 259.988 110.482 260.516 110.482 261.268C110.482 261.908 110.698 262.412 111.13 262.78C111.578 263.148 112.202 263.332 113.002 263.332H117.538V264.844H113.002C111.69 264.844 110.634 264.516 109.834 263.86C109.034 263.204 108.634 262.34 108.634 261.268C108.634 260.596 108.826 259.996 109.21 259.468C109.594 258.924 110.114 258.492 110.77 258.172C111.442 257.852 112.186 257.692 113.002 257.692H118.33V269.5H116.554ZM108.13 269.5L112.45 263.98H114.466L110.29 269.5H108.13ZM135.298 267.724C132.338 267.724 130.09 267.148 128.554 265.996C127.018 264.828 126.25 263.132 126.25 260.908C126.25 258.684 127.018 256.996 128.554 255.844C130.09 254.692 132.338 254.116 135.298 254.116C138.258 254.116 140.498 254.692 142.018 255.844C143.554 256.996 144.322 258.684 144.322 260.908C144.322 263.132 143.554 264.828 142.018 265.996C140.498 267.148 138.258 267.724 135.298 267.724ZM135.298 266.044C137.666 266.044 139.442 265.62 140.626 264.772C141.81 263.924 142.402 262.636 142.402 260.908C142.402 259.196 141.802 257.916 140.602 257.068C139.418 256.22 137.65 255.796 135.298 255.796C132.93 255.796 131.146 256.22 129.946 257.068C128.762 257.9 128.17 259.18 128.17 260.908C128.17 262.604 128.77 263.884 129.97 264.748C131.17 265.612 132.946 266.044 135.298 266.044ZM134.362 270.22V267.388L134.434 266.332V255.484L134.362 254.548V251.62H136.21V254.548L136.138 255.484V266.332L136.21 267.388V270.22H134.362ZM157.336 269.5H155.632V267.196L155.608 266.524V262.108C155.608 261.116 155.288 260.324 154.648 259.732C154.008 259.14 153.144 258.844 152.056 258.844C151.272 258.844 150.56 259.012 149.92 259.348C149.296 259.684 148.744 260.14 148.264 260.716L147.016 259.516C147.672 258.812 148.408 258.268 149.224 257.884C150.056 257.5 151 257.308 152.056 257.308C153.112 257.308 154.032 257.508 154.816 257.908C155.616 258.292 156.232 258.836 156.664 259.54C157.112 260.244 157.336 261.076 157.336 262.036V269.5ZM151.12 269.884C150.224 269.884 149.432 269.724 148.744 269.404C148.072 269.068 147.544 268.62 147.16 268.06C146.792 267.5 146.608 266.86 146.608 266.14C146.608 265.308 146.84 264.604 147.304 264.028C147.768 263.436 148.4 262.988 149.2 262.684C150.016 262.38 150.936 262.228 151.96 262.228H155.848V263.668H152.2C151.128 263.668 150.232 263.868 149.512 264.268C148.808 264.652 148.456 265.26 148.456 266.092C148.456 266.796 148.72 267.356 149.248 267.772C149.776 268.188 150.472 268.396 151.336 268.396C152.168 268.396 152.92 268.236 153.592 267.916C154.264 267.58 154.8 267.116 155.2 266.524C155.616 265.932 155.848 265.252 155.896 264.484L156.616 264.892C156.616 265.852 156.376 266.708 155.896 267.46C155.432 268.212 154.784 268.804 153.952 269.236C153.12 269.668 152.176 269.884 151.12 269.884ZM160.764 269.5V257.692H162.828L167.724 266.812H167.34L172.236 257.692H174.396V269.5H172.644V258.292H173.652L168.228 268.42H166.716L161.34 258.292H162.468V269.5H160.764ZM178.225 269.5V257.692H180.001V267.124L179.809 267.052L187.489 257.692H189.025V269.5H187.249V260.068L187.441 260.14L179.761 269.5H178.225ZM191.433 269.5V267.964H192.393C192.825 267.964 193.153 267.852 193.377 267.628C193.601 267.388 193.737 266.956 193.785 266.332L194.529 257.692H202.929V269.5H201.153V258.052L202.401 259.204H194.913L196.281 258.052L195.489 266.62C195.393 267.676 195.113 268.42 194.649 268.852C194.201 269.284 193.529 269.5 192.633 269.5H191.433ZM206.772 269.5V257.692H208.548V267.124L208.356 267.052L216.036 257.692H217.572V269.5H215.796V260.068L215.988 260.14L208.308 269.5H206.772ZM229.124 269.5V257.98L230.228 259.204H225.572C224.9 259.204 224.308 259.364 223.796 259.684C223.3 259.988 223.052 260.516 223.052 261.268C223.052 261.908 223.268 262.412 223.7 262.78C224.148 263.148 224.772 263.332 225.572 263.332H230.108V264.844H225.572C224.26 264.844 223.204 264.516 222.404 263.86C221.604 263.204 221.204 262.34 221.204 261.268C221.204 260.596 221.396 259.996 221.78 259.468C222.164 258.924 222.684 258.492 223.34 258.172C224.012 257.852 224.756 257.692 225.572 257.692H230.9V269.5H229.124ZM220.7 269.5L225.02 263.98H227.036L222.86 269.5H220.7Z" fill="#2B2B2E"/>
<path d="M78.3057 229.5V212.34H85.4337C86.5697 212.34 87.5617 212.524 88.4097 212.892C89.2577 213.26 89.9137 213.78 90.3777 214.452C90.8417 215.124 91.0737 215.916 91.0737 216.828C91.0737 217.66 90.8417 218.404 90.3777 219.06C89.9137 219.7 89.2577 220.204 88.4097 220.572C87.5617 220.94 86.5697 221.124 85.4337 221.124H81.7857V219.9H85.6497C86.8817 219.9 87.9537 220.092 88.8657 220.476C89.7937 220.844 90.5137 221.38 91.0257 222.084C91.5537 222.772 91.8177 223.596 91.8177 224.556C91.8177 225.532 91.5617 226.396 91.0497 227.148C90.5377 227.9 89.8177 228.484 88.8897 228.9C87.9617 229.3 86.8817 229.5 85.6497 229.5H78.3057ZM81.5457 226.788H85.6737C86.5537 226.788 87.2497 226.58 87.7617 226.164C88.2737 225.732 88.5297 225.132 88.5297 224.364C88.5297 223.628 88.2737 223.06 87.7617 222.66C87.2497 222.244 86.5537 222.036 85.6737 222.036H81.3057V219.372H85.2657C86.0497 219.372 86.6657 219.18 87.1137 218.796C87.5777 218.396 87.8097 217.852 87.8097 217.164C87.8097 216.492 87.5777 215.972 87.1137 215.604C86.6657 215.236 86.0497 215.052 85.2657 215.052H81.5457V226.788ZM98.4726 229.5H95.2326V212.34H102.193C103.425 212.34 104.497 212.564 105.409 213.012C106.337 213.444 107.057 214.052 107.569 214.836C108.097 215.62 108.361 216.532 108.361 217.572C108.361 218.612 108.097 219.532 107.569 220.332C107.057 221.116 106.337 221.732 105.409 222.18C104.497 222.612 103.425 222.828 102.193 222.828H98.2326V220.092H102.193C103.089 220.092 103.793 219.868 104.305 219.42C104.817 218.972 105.073 218.356 105.073 217.572C105.073 216.804 104.817 216.196 104.305 215.748C103.793 215.3 103.089 215.076 102.193 215.076H98.4726V229.5ZM110.933 229.5V226.764H113.165C113.725 226.764 114.197 226.676 114.581 226.5C114.981 226.324 115.333 226.028 115.637 225.612C115.957 225.196 116.285 224.62 116.621 223.884L122.021 212.34H125.333L118.733 225.852C118.301 226.716 117.837 227.42 117.341 227.964C116.845 228.492 116.269 228.884 115.613 229.14C114.973 229.38 114.213 229.5 113.333 229.5H110.933ZM116.261 225.66L109.541 212.34H112.853L118.661 224.22L116.261 225.66ZM133.286 223.428C131.382 223.428 129.894 222.956 128.822 222.012C127.766 221.068 127.238 219.748 127.238 218.052V212.34H130.478V217.668C130.478 218.676 130.758 219.428 131.318 219.924C131.894 220.404 132.742 220.644 133.862 220.644C134.614 220.644 135.342 220.54 136.046 220.332C136.766 220.124 137.374 219.852 137.87 219.516L138.734 221.508C138.094 222.132 137.302 222.612 136.358 222.948C135.414 223.268 134.39 223.428 133.286 223.428ZM137.654 229.5V212.34H140.894V229.5H137.654ZM157.62 225.732H147.444V222.996H157.62V225.732ZM161.124 229.5H157.644L152.028 214.62H152.988L147.372 229.5H144.012L150.78 212.34H154.356L161.124 229.5ZM176.348 229.5H164.276V212.34H176.348V215.076H167.516V226.764H176.348V229.5ZM175.892 222.18H167.276V219.444H175.892V222.18ZM187.187 229.5H183.947V214.86H187.187V229.5ZM192.563 215.1H178.571V212.34H192.563V215.1ZM207.881 224.508L210.017 226.668C209.265 227.628 208.273 228.404 207.041 228.996C205.825 229.588 204.489 229.884 203.033 229.884C201.705 229.884 200.489 229.668 199.385 229.236C198.281 228.788 197.321 228.164 196.505 227.364C195.705 226.548 195.081 225.596 194.633 224.508C194.201 223.42 193.985 222.22 193.985 220.908C193.985 219.628 194.209 218.444 194.657 217.356C195.121 216.252 195.761 215.3 196.577 214.5C197.393 213.684 198.353 213.06 199.457 212.628C200.577 212.18 201.793 211.956 203.105 211.956C204.561 211.956 205.889 212.252 207.089 212.844C208.289 213.436 209.265 214.212 210.017 215.172L207.881 217.332C207.353 216.564 206.673 215.956 205.841 215.508C205.025 215.044 204.113 214.812 203.105 214.812C202.017 214.812 201.041 215.076 200.177 215.604C199.329 216.132 198.657 216.852 198.161 217.764C197.665 218.676 197.417 219.724 197.417 220.908C197.417 222.092 197.665 223.148 198.161 224.076C198.657 224.988 199.329 225.708 200.177 226.236C201.041 226.764 202.017 227.028 203.105 227.028C204.113 227.028 205.025 226.804 205.841 226.356C206.673 225.892 207.353 225.276 207.881 224.508ZM222.455 229.5V215.076H218.735C217.839 215.076 217.135 215.3 216.623 215.748C216.111 216.196 215.855 216.804 215.855 217.572C215.855 218.356 216.111 218.972 216.623 219.42C217.135 219.868 217.839 220.092 218.735 220.092H222.695V222.828H218.735C217.503 222.828 216.423 222.612 215.495 222.18C214.583 221.732 213.863 221.116 213.335 220.332C212.823 219.532 212.567 218.612 212.567 217.572C212.567 216.532 212.823 215.62 213.335 214.836C213.863 214.052 214.583 213.444 215.495 213.012C216.423 212.564 217.503 212.34 218.735 212.34H225.695V229.5H222.455ZM211.295 229.5L217.031 221.508H220.631L215.135 229.5H211.295Z" fill="#2B2B2E"/>
<path d="M64.2548 176.5V150.76H81.2828V154.9H66.4868L69.1148 151.912V176.5H64.2548ZM90.0964 176.5H85.2364V150.76H95.6764C97.5244 150.76 99.1324 151.096 100.5 151.768C101.892 152.416 102.972 153.328 103.74 154.504C104.532 155.68 104.928 157.048 104.928 158.608C104.928 160.168 104.532 161.548 103.74 162.748C102.972 163.924 101.892 164.848 100.5 165.52C99.1324 166.168 97.5244 166.492 95.6764 166.492H89.7364V162.388H95.6764C97.0204 162.388 98.0764 162.052 98.8444 161.38C99.6124 160.708 99.9964 159.784 99.9964 158.608C99.9964 157.456 99.6124 156.544 98.8444 155.872C98.0764 155.2 97.0204 154.864 95.6764 154.864H90.0964V176.5ZM124.367 170.848H109.103V166.744H124.367V170.848ZM129.623 176.5H124.403L115.979 154.18H117.419L108.995 176.5H103.955L114.107 150.76H119.471L129.623 176.5ZM149.964 173.728H146.364L136.32 152.74L138.84 152.704V176.5H134.16V150.76H139.776L149.172 170.488H147.192L156.588 150.76H162.132V176.5H157.38V152.704L160.008 152.74L149.964 173.728ZM181.168 177.076C179.176 177.076 177.34 176.74 175.66 176.068C174.004 175.396 172.552 174.46 171.304 173.26C170.056 172.06 169.096 170.644 168.424 169.012C167.752 167.356 167.416 165.556 167.416 163.612C167.416 161.668 167.752 159.88 168.424 158.248C169.096 156.616 170.056 155.2 171.304 154C172.552 152.8 174.004 151.864 175.66 151.192C177.34 150.52 179.176 150.184 181.168 150.184C183.16 150.184 184.984 150.52 186.64 151.192C188.32 151.864 189.784 152.8 191.032 154C192.28 155.2 193.24 156.616 193.912 158.248C194.584 159.88 194.92 161.668 194.92 163.612C194.92 165.556 194.584 167.356 193.912 169.012C193.24 170.644 192.28 172.06 191.032 173.26C189.784 174.46 188.32 175.396 186.64 176.068C184.984 176.74 183.16 177.076 181.168 177.076ZM181.168 172.792C182.872 172.792 184.372 172.396 185.668 171.604C186.964 170.812 187.972 169.732 188.692 168.364C189.436 166.972 189.808 165.388 189.808 163.612C189.808 161.836 189.436 160.264 188.692 158.896C187.972 157.528 186.964 156.448 185.668 155.656C184.372 154.864 182.872 154.468 181.168 154.468C179.488 154.468 177.988 154.864 176.668 155.656C175.372 156.448 174.352 157.528 173.608 158.896C172.888 160.264 172.528 161.836 172.528 163.612C172.528 165.388 172.888 166.972 173.608 168.364C174.352 169.732 175.372 170.812 176.668 171.604C177.988 172.396 179.488 172.792 181.168 172.792ZM209.744 176.5H204.884V154.54H209.744V176.5ZM217.808 154.9H196.82V150.76H217.808V154.9ZM236.524 170.848H221.26V166.744H236.524V170.848ZM241.78 176.5H236.56L228.136 154.18H229.576L221.152 176.5H216.112L226.264 150.76H231.628L241.78 176.5Z" fill="#2B2B2E"/>
<rect x="-67.0879" y="60.623" width="215.446" height="100" transform="rotate(-41.4255 -67.0879 60.623)" fill="#1D242C"/>
<rect x="-33.1621" y="164.104" width="168.311" height="13.3287" transform="rotate(-41.6604 -33.1621 164.104)" fill="url(#paint0_linear_615_1272)"/>
<rect x="238.995" y="445.119" width="90.7983" height="10.878" transform="rotate(-27.5569 238.995 445.119)" fill="url(#paint1_linear_615_1272)"/>
<rect x="-2.72852" y="114.801" width="175.321" height="2.15561" transform="rotate(-41.6604 -2.72852 114.801)" fill="url(#paint2_linear_615_1272)"/>
<path d="M212.999 -56.5012L375.831 6.58848L309.988 116.22L138 13L212.999 -56.5012Z" fill="#215774"/>
<path d="M200.242 476.272L322.8 413.434L332.676 538.192L187.138 577.671L200.242 476.272Z" fill="#215774"/>
<g filter="url(#filter0_f_615_1272)">
<path d="M188.686 -10.458L308.953 58.2422L304.61 65.8448L172.517 -6.28171L188.686 -10.458Z" fill="url(#paint3_linear_615_1272)"/>
</g>
<g filter="url(#filter1_f_615_1272)">
<path d="M195.773 497.03L313.055 427.761L315.877 435.822L189.392 513.738L195.773 497.03Z" fill="url(#paint4_linear_615_1272)"/>
</g>
<g filter="url(#filter2_f_615_1272)">
<path d="M264.17 54.4375L384.437 123.138L380.094 130.74L280.5 72L264.17 54.4375Z" fill="url(#paint5_linear_615_1272)"/>
</g>
<path fill-rule="evenodd" clip-rule="evenodd" d="M276.211 -40.2754L193.512 55.7785L193.96 56.1646L193.655 56.6832L308.841 124.385L309.686 122.948L195.609 55.8977L277.474 -39.1875L276.211 -40.2754Z" fill="url(#paint6_linear_615_1272)"/>
<rect x="-19.418" y="386.5" width="215.446" height="100" transform="rotate(28.4131 -19.418 386.5)" fill="#1D242C"/>
<rect x="-64.4175" y="407.5" width="215.446" height="100" transform="rotate(28.4131 -64.4175 407.5)" fill="#373E46"/>
<rect x="-51" y="412.5" width="114" height="2" fill="url(#paint7_linear_615_1272)"/>
<rect x="62.5684" y="412.457" width="107.995" height="2.18723" transform="rotate(28.7634 62.5684 412.457)" fill="url(#paint8_linear_615_1272)"/>
<rect x="171.069" y="470.926" width="170.927" height="2" transform="rotate(-27.8197 171.069 470.926)" fill="url(#paint9_linear_615_1272)"/>
</g>
<rect x="0.5" y="1" width="303" height="459" rx="11.5" stroke="#959596"/>
<defs>
<filter id="filter0_f_615_1272" x="170.518" y="-12.457" width="140.436" height="80.3027" filterUnits="userSpaceOnUse" color-interpolation-filters="sRGB">
<feFlood flood-opacity="0" result="BackgroundImageFix"/>
<feBlend mode="normal" in="SourceGraphic" in2="BackgroundImageFix" result="shape"/>
<feGaussianBlur stdDeviation="1" result="effect1_foregroundBlur_615_1272"/>
</filter>
<filter id="filter1_f_615_1272" x="187.393" y="425.762" width="130.484" height="89.9766" filterUnits="userSpaceOnUse" color-interpolation-filters="sRGB">
<feFlood flood-opacity="0" result="BackgroundImageFix"/>
<feBlend mode="normal" in="SourceGraphic" in2="BackgroundImageFix" result="shape"/>
<feGaussianBlur stdDeviation="1" result="effect1_foregroundBlur_615_1272"/>
</filter>
<filter id="filter2_f_615_1272" x="262.17" y="52.4375" width="124.267" height="80.3027" filterUnits="userSpaceOnUse" color-interpolation-filters="sRGB">
<feFlood flood-opacity="0" result="BackgroundImageFix"/>
<feBlend mode="normal" in="SourceGraphic" in2="BackgroundImageFix" result="shape"/>
<feGaussianBlur stdDeviation="1" result="effect1_foregroundBlur_615_1272"/>
</filter>
<linearGradient id="paint0_linear_615_1272" x1="29.2426" y1="172.309" x2="138.848" y2="164.796" gradientUnits="userSpaceOnUse">
<stop stop-color="#E7C263"/>
<stop offset="0.489583" stop-color="#F3D278"/>
<stop offset="1" stop-color="#B1772B"/>
</linearGradient>
<linearGradient id="paint1_linear_615_1272" x1="237.898" y1="447.232" x2="331.749" y2="450.307" gradientUnits="userSpaceOnUse">
<stop stop-color="#E7C263"/>
<stop offset="0.0001" stop-color="#CA9946"/>
<stop offset="0.489583" stop-color="#F3D278"/>
<stop offset="1" stop-color="#B1772B"/>
</linearGradient>
<linearGradient id="paint2_linear_615_1272" x1="62.2753" y1="116.128" x2="158.273" y2="73.7479" gradientUnits="userSpaceOnUse">
<stop stop-color="#E7C263"/>
<stop offset="0.489583" stop-color="#F3D278"/>
<stop offset="1" stop-color="#B1772B"/>
</linearGradient>
<linearGradient id="paint3_linear_615_1272" x1="208.329" y1="6.67263" x2="302.444" y2="60.3479" gradientUnits="userSpaceOnUse">
<stop stop-color="white"/>
<stop offset="0.34946" stop-color="#5A869F"/>
<stop offset="0.593966" stop-color="#5D87A0"/>
<stop offset="1" stop-color="#427797"/>
</linearGradient>
<linearGradient id="paint4_linear_615_1272" x1="219.065" y1="488.975" x2="317.68" y2="454.377" gradientUnits="userSpaceOnUse">
<stop stop-color="white"/>
<stop offset="0.34946" stop-color="#5A869F"/>
<stop offset="0.593966" stop-color="#5D87A0"/>
<stop offset="1" stop-color="#427797"/>
</linearGradient>
<linearGradient id="paint5_linear_615_1272" x1="283.813" y1="71.5671" x2="377.927" y2="125.242" gradientUnits="userSpaceOnUse">
<stop stop-color="#3D7495"/>
<stop offset="0.107292" stop-color="#5A869F"/>
<stop offset="0.593966" stop-color="#5D87A0"/>
<stop offset="1" stop-color="#427797"/>
</linearGradient>
<linearGradient id="paint6_linear_615_1272" x1="194" y1="59.5" x2="317.554" y2="72.2213" gradientUnits="userSpaceOnUse">
<stop stop-color="#E7C263"/>
<stop offset="0.0001" stop-color="#B1772B"/>
<stop offset="0.386663" stop-color="#F3D278"/>
</linearGradient>
<linearGradient id="paint7_linear_615_1272" x1="-8.7321" y1="413.731" x2="59.3385" y2="392.671" gradientUnits="userSpaceOnUse">
<stop stop-color="#E7C263"/>
<stop offset="0.489583" stop-color="#F3D278"/>
<stop offset="1" stop-color="#E7C263"/>
</linearGradient>
<linearGradient id="paint8_linear_615_1272" x1="62.0912" y1="412.768" x2="166.33" y2="386.417" gradientUnits="userSpaceOnUse">
<stop stop-color="#E7C263"/>
<stop offset="0.406937" stop-color="#F3D278"/>
<stop offset="0.72466" stop-color="#B1772B"/>
</linearGradient>
<linearGradient id="paint9_linear_615_1272" x1="170.314" y1="471.21" x2="317.633" y2="406.748" gradientUnits="userSpaceOnUse">
<stop stop-color="#E7C263"/>
<stop offset="0.406937" stop-color="#F3D278"/>
<stop offset="0.72466" stop-color="#B1772B"/>
</linearGradient>
<clipPath id="clip0_615_1272">
<rect y="0.5" width="304" height="460" rx="12" fill="white"/>
</clipPath>
</defs>
</svg>
