<svg width="208" height="24" viewBox="0 0 208 24" fill="none" xmlns="http://www.w3.org/2000/svg">
<path d="M12 15V3" stroke="#2B2B2E" stroke-width="1.5" stroke-linecap="round" stroke-linejoin="round"/>
<path d="M7 10L12 15L17 10" stroke="#2B2B2E" stroke-width="1.5" stroke-linecap="round" stroke-linejoin="round"/>
<path d="M21 15V19C21 19.5304 20.7893 20.0391 20.4142 20.4142C20.0391 20.7893 19.5304 21 19 21H5C4.46957 21 3.96086 20.7893 3.58579 20.4142C3.21071 20.0391 3 19.5304 3 19V15" stroke="#2B2B2E" stroke-width="1.5" stroke-linecap="round" stroke-linejoin="round"/>
<path d="M40.988 14.578L41.772 15.32C41.3427 15.908 40.778 16.3747 40.078 16.72C39.3873 17.056 38.6267 17.224 37.796 17.224C37.0773 17.224 36.41 17.0933 35.794 16.832C35.1873 16.5707 34.6553 16.2067 34.198 15.74C33.75 15.264 33.4 14.7087 33.148 14.074C32.896 13.4393 32.77 12.7487 32.77 12.002C32.77 11.2553 32.896 10.5647 33.148 9.93C33.4093 9.286 33.7687 8.73067 34.226 8.264C34.6833 7.788 35.2153 7.41933 35.822 7.158C36.438 6.89667 37.1053 6.766 37.824 6.766C38.6547 6.766 39.4107 6.93867 40.092 7.284C40.7827 7.62 41.3427 8.082 41.772 8.67L40.988 9.412C40.6427 8.89867 40.204 8.49267 39.672 8.194C39.14 7.89533 38.524 7.746 37.824 7.746C37.0773 7.746 36.4053 7.93267 35.808 8.306C35.22 8.67 34.7533 9.174 34.408 9.818C34.0627 10.4527 33.89 11.1807 33.89 12.002C33.89 12.814 34.0627 13.542 34.408 14.186C34.7533 14.8207 35.22 15.3247 35.808 15.698C36.4053 16.062 37.0773 16.244 37.824 16.244C38.524 16.244 39.14 16.0947 39.672 15.796C40.204 15.4973 40.6427 15.0913 40.988 14.578ZM49.1456 17L45.1416 13.43H45.2816L48.8936 10.112H50.3076L46.5136 13.556L46.1636 13.052L50.6576 17H49.1456ZM44.4696 17V10.112H45.5056V17H44.4696ZM58.4 17H57.406V15.656L57.392 15.264V12.688C57.392 12.1093 57.2054 11.6473 56.832 11.302C56.4587 10.9567 55.9547 10.784 55.32 10.784C54.8627 10.784 54.4474 10.882 54.074 11.078C53.71 11.274 53.388 11.54 53.108 11.876L52.38 11.176C52.7627 10.7653 53.192 10.448 53.668 10.224C54.1534 10 54.704 9.888 55.32 9.888C55.936 9.888 56.4727 10.0047 56.93 10.238C57.3967 10.462 57.756 10.7793 58.008 11.19C58.2694 11.6007 58.4 12.086 58.4 12.646V17ZM54.774 17.224C54.2514 17.224 53.7894 17.1307 53.388 16.944C52.996 16.748 52.688 16.4867 52.464 16.16C52.2494 15.8333 52.142 15.46 52.142 15.04C52.142 14.5547 52.2774 14.144 52.548 13.808C52.8187 13.4627 53.1874 13.2013 53.654 13.024C54.13 12.8467 54.6667 12.758 55.264 12.758H57.532V13.598H55.404C54.7787 13.598 54.256 13.7147 53.836 13.948C53.4254 14.172 53.22 14.5267 53.22 15.012C53.22 15.4227 53.374 15.7493 53.682 15.992C53.99 16.2347 54.396 16.356 54.9 16.356C55.3854 16.356 55.824 16.2627 56.216 16.076C56.608 15.88 56.9207 15.6093 57.154 15.264C57.3967 14.9187 57.532 14.522 57.56 14.074L57.98 14.312C57.98 14.872 57.84 15.3713 57.56 15.81C57.2894 16.2487 56.9114 16.594 56.426 16.846C55.9407 17.098 55.39 17.224 54.774 17.224ZM63.6673 14.662C62.7806 14.662 62.104 14.438 61.6373 13.99C61.1706 13.5327 60.9373 12.8747 60.9373 12.016V10.112H61.9733V11.904C61.9733 12.6133 62.132 13.1033 62.4493 13.374C62.776 13.6353 63.2333 13.766 63.8213 13.766C64.5306 13.766 65.2586 13.5093 66.0053 12.996L66.3693 13.682C66.108 13.8967 65.828 14.0787 65.5293 14.228C65.24 14.368 64.9366 14.4753 64.6193 14.55C64.3113 14.6247 63.994 14.662 63.6673 14.662ZM65.9353 17V10.112H66.9713V17H65.9353ZM75.9039 17H74.9099V15.656L74.8959 15.264V12.688C74.8959 12.1093 74.7093 11.6473 74.3359 11.302C73.9626 10.9567 73.4586 10.784 72.8239 10.784C72.3666 10.784 71.9513 10.882 71.5779 11.078C71.2139 11.274 70.8919 11.54 70.6119 11.876L69.8839 11.176C70.2666 10.7653 70.6959 10.448 71.1719 10.224C71.6573 10 72.2079 9.888 72.8239 9.888C73.4399 9.888 73.9766 10.0047 74.4339 10.238C74.9006 10.462 75.2599 10.7793 75.5119 11.19C75.7733 11.6007 75.9039 12.086 75.9039 12.646V17ZM72.2779 17.224C71.7553 17.224 71.2933 17.1307 70.8919 16.944C70.4999 16.748 70.1919 16.4867 69.9679 16.16C69.7533 15.8333 69.6459 15.46 69.6459 15.04C69.6459 14.5547 69.7813 14.144 70.0519 13.808C70.3226 13.4627 70.6913 13.2013 71.1579 13.024C71.6339 12.8467 72.1706 12.758 72.7679 12.758H75.0359V13.598H72.9079C72.2826 13.598 71.7599 13.7147 71.3399 13.948C70.9293 14.172 70.7239 14.5267 70.7239 15.012C70.7239 15.4227 70.8779 15.7493 71.1859 15.992C71.4939 16.2347 71.8999 16.356 72.4039 16.356C72.8893 16.356 73.3279 16.2627 73.7199 16.076C74.1119 15.88 74.4246 15.6093 74.6579 15.264C74.9006 14.9187 75.0359 14.522 75.0639 14.074L75.4839 14.312C75.4839 14.872 75.3439 15.3713 75.0639 15.81C74.7933 16.2487 74.4153 16.594 73.9299 16.846C73.4446 17.098 72.8939 17.224 72.2779 17.224ZM80.6952 17V10.406H81.7312V17H80.6952ZM78.1332 10.994V10.112H84.2792V10.994H78.1332ZM86.7528 17V10.112H87.7888V16.832L87.1448 16.118H90.0428C90.5095 16.118 90.8688 16.006 91.1208 15.782C91.3821 15.5487 91.5128 15.2313 91.5128 14.83C91.5128 14.438 91.3821 14.13 91.1208 13.906C90.8688 13.682 90.5095 13.57 90.0428 13.57H87.2148V12.688H90.0428C90.7988 12.688 91.4101 12.8887 91.8768 13.29C92.3528 13.682 92.5908 14.1953 92.5908 14.83C92.5908 15.2407 92.4788 15.6093 92.2548 15.936C92.0308 16.2627 91.7275 16.524 91.3448 16.72C90.9621 16.9067 90.5281 17 90.0428 17H86.7528ZM104.135 17V10.112H105.171V17H104.135ZM98.8153 17V10.112H99.8513V17H98.8153ZM99.3193 13.822V12.94H104.709V13.822H99.3193ZM114.113 17H113.119V15.656L113.105 15.264V12.688C113.105 12.1093 112.918 11.6473 112.545 11.302C112.172 10.9567 111.668 10.784 111.033 10.784C110.576 10.784 110.16 10.882 109.787 11.078C109.423 11.274 109.101 11.54 108.821 11.876L108.093 11.176C108.476 10.7653 108.905 10.448 109.381 10.224C109.866 10 110.417 9.888 111.033 9.888C111.649 9.888 112.186 10.0047 112.643 10.238C113.11 10.462 113.469 10.7793 113.721 11.19C113.982 11.6007 114.113 12.086 114.113 12.646V17ZM110.487 17.224C109.964 17.224 109.502 17.1307 109.101 16.944C108.709 16.748 108.401 16.4867 108.177 16.16C107.962 15.8333 107.855 15.46 107.855 15.04C107.855 14.5547 107.99 14.144 108.261 13.808C108.532 13.4627 108.9 13.2013 109.367 13.024C109.843 12.8467 110.38 12.758 110.977 12.758H113.245V13.598H111.117C110.492 13.598 109.969 13.7147 109.549 13.948C109.138 14.172 108.933 14.5267 108.933 15.012C108.933 15.4227 109.087 15.7493 109.395 15.992C109.703 16.2347 110.109 16.356 110.613 16.356C111.098 16.356 111.537 16.2627 111.929 16.076C112.321 15.88 112.634 15.6093 112.867 15.264C113.11 14.9187 113.245 14.522 113.273 14.074L113.693 14.312C113.693 14.872 113.553 15.3713 113.273 15.81C113.002 16.2487 112.624 16.594 112.139 16.846C111.654 17.098 111.103 17.224 110.487 17.224ZM125.901 10.112H126.965L123.465 18.246C123.269 18.7033 123.026 19.0627 122.737 19.324C122.447 19.5853 122.009 19.716 121.421 19.716H120.735V18.82H121.421C121.719 18.82 121.962 18.7453 122.149 18.596C122.345 18.4467 122.503 18.2273 122.625 17.938L122.989 17.028L120.007 10.112H121.127L123.731 16.454H123.283L125.901 10.112ZM134.343 15.208L135.085 15.894C134.767 16.3047 134.366 16.6313 133.881 16.874C133.405 17.1073 132.863 17.224 132.257 17.224C131.557 17.224 130.931 17.0653 130.381 16.748C129.839 16.4307 129.41 15.9967 129.093 15.446C128.785 14.8953 128.631 14.2653 128.631 13.556C128.631 12.8467 128.785 12.2167 129.093 11.666C129.41 11.1153 129.844 10.6813 130.395 10.364C130.945 10.0467 131.571 9.888 132.271 9.888C132.877 9.888 133.419 10.0093 133.895 10.252C134.371 10.4853 134.767 10.8073 135.085 11.218L134.343 11.904C134.119 11.568 133.839 11.302 133.503 11.106C133.167 10.9007 132.756 10.798 132.271 10.798C131.767 10.798 131.323 10.9147 130.941 11.148C130.558 11.3813 130.259 11.708 130.045 12.128C129.83 12.5387 129.723 13.0147 129.723 13.556C129.723 14.0973 129.83 14.578 130.045 14.998C130.259 15.4087 130.558 15.7307 130.941 15.964C131.323 16.1973 131.767 16.314 132.271 16.314C132.756 16.314 133.167 16.216 133.503 16.02C133.839 15.8147 134.119 15.544 134.343 15.208ZM139.514 17V10.406H140.55V17H139.514ZM136.952 10.994V10.112H143.098V10.994H136.952ZM146.607 19.716H145.571V10.112H146.593V12.198H146.341C146.425 11.7407 146.607 11.3393 146.887 10.994C147.177 10.6487 147.531 10.378 147.951 10.182C148.381 9.986 148.843 9.888 149.337 9.888C150.009 9.888 150.607 10.0513 151.129 10.378C151.652 10.6953 152.058 11.1293 152.347 11.68C152.646 12.2307 152.795 12.856 152.795 13.556C152.795 14.2653 152.641 14.8953 152.333 15.446C152.035 15.9967 151.615 16.4307 151.073 16.748C150.541 17.0653 149.93 17.224 149.239 17.224C148.614 17.224 148.063 17.098 147.587 16.846C147.121 16.5847 146.766 16.2347 146.523 15.796C146.29 15.348 146.206 14.8487 146.271 14.298L146.467 14.018C146.505 14.4567 146.645 14.8533 146.887 15.208C147.13 15.5533 147.447 15.824 147.839 16.02C148.231 16.216 148.661 16.314 149.127 16.314C149.641 16.314 150.089 16.1973 150.471 15.964C150.854 15.7213 151.153 15.3947 151.367 14.984C151.591 14.564 151.703 14.088 151.703 13.556C151.703 13.024 151.596 12.5527 151.381 12.142C151.176 11.722 150.887 11.3953 150.513 11.162C150.14 10.9193 149.706 10.798 149.211 10.798C148.707 10.798 148.259 10.924 147.867 11.176C147.475 11.428 147.167 11.778 146.943 12.226C146.719 12.6647 146.607 13.178 146.607 13.766V19.716ZM158.745 17.224C158.045 17.224 157.42 17.0653 156.869 16.748C156.319 16.4307 155.885 15.9967 155.567 15.446C155.259 14.8953 155.105 14.2653 155.105 13.556C155.105 12.8467 155.259 12.2167 155.567 11.666C155.885 11.1153 156.319 10.6813 156.869 10.364C157.42 10.0467 158.045 9.888 158.745 9.888C159.455 9.888 160.08 10.0467 160.621 10.364C161.172 10.6813 161.601 11.1153 161.909 11.666C162.227 12.2167 162.385 12.8467 162.385 13.556C162.385 14.2653 162.227 14.8953 161.909 15.446C161.601 15.9967 161.172 16.4307 160.621 16.748C160.08 17.0653 159.455 17.224 158.745 17.224ZM158.745 16.314C159.249 16.314 159.693 16.1973 160.075 15.964C160.458 15.7307 160.757 15.4087 160.971 14.998C161.186 14.578 161.293 14.0973 161.293 13.556C161.293 13.0147 161.186 12.5387 160.971 12.128C160.757 11.708 160.458 11.3813 160.075 11.148C159.693 10.9147 159.249 10.798 158.745 10.798C158.241 10.798 157.798 10.9147 157.415 11.148C157.033 11.3813 156.734 11.708 156.519 12.128C156.305 12.5387 156.197 13.0147 156.197 13.556C156.197 14.0973 156.305 14.578 156.519 14.998C156.734 15.4087 157.033 15.7307 157.415 15.964C157.798 16.1973 158.241 16.314 158.745 16.314ZM165.167 17V10.112H166.203V15.614L166.091 15.572L170.571 10.112H171.467V17H170.431V11.498L170.543 11.54L166.063 17H165.167ZM168.387 8.824C167.762 8.824 167.234 8.66533 166.805 8.348C166.385 8.02133 166.147 7.57333 166.091 7.004H167.029C167.085 7.40533 167.23 7.69933 167.463 7.886C167.706 8.07267 168.014 8.166 168.387 8.166C168.751 8.166 169.05 8.07267 169.283 7.886C169.526 7.69933 169.675 7.40533 169.731 7.004H170.669C170.613 7.57333 170.375 8.02133 169.955 8.348C169.535 8.66533 169.012 8.824 168.387 8.824ZM179.962 15.208L180.704 15.894C180.386 16.3047 179.985 16.6313 179.5 16.874C179.024 17.1073 178.482 17.224 177.876 17.224C177.176 17.224 176.55 17.0653 176 16.748C175.458 16.4307 175.029 15.9967 174.712 15.446C174.404 14.8953 174.25 14.2653 174.25 13.556C174.25 12.8467 174.404 12.2167 174.712 11.666C175.029 11.1153 175.463 10.6813 176.014 10.364C176.564 10.0467 177.19 9.888 177.89 9.888C178.496 9.888 179.038 10.0093 179.514 10.252C179.99 10.4853 180.386 10.8073 180.704 11.218L179.962 11.904C179.738 11.568 179.458 11.302 179.122 11.106C178.786 10.9007 178.375 10.798 177.89 10.798C177.386 10.798 176.942 10.9147 176.56 11.148C176.177 11.3813 175.878 11.708 175.664 12.128C175.449 12.5387 175.342 13.0147 175.342 13.556C175.342 14.0973 175.449 14.578 175.664 14.998C175.878 15.4087 176.177 15.7307 176.56 15.964C176.942 16.1973 177.386 16.314 177.89 16.314C178.375 16.314 178.786 16.216 179.122 16.02C179.458 15.8147 179.738 15.544 179.962 15.208ZM185.133 17V10.406H186.169V17H185.133ZM182.571 10.994V10.112H188.717V10.994H182.571ZM191.19 17V10.112H194.69C195.381 10.112 195.932 10.28 196.342 10.616C196.753 10.9427 196.958 11.3813 196.958 11.932C196.958 12.2773 196.856 12.5807 196.65 12.842C196.445 13.1033 196.165 13.304 195.81 13.444L195.796 13.318C196.235 13.4393 196.59 13.6447 196.86 13.934C197.14 14.214 197.28 14.564 197.28 14.984C197.28 15.3667 197.164 15.712 196.93 16.02C196.706 16.328 196.398 16.5707 196.006 16.748C195.624 16.916 195.199 17 194.732 17H191.19ZM192.226 16.776L191.582 16.118H194.732C195.18 16.118 195.535 16.02 195.796 15.824C196.058 15.6187 196.188 15.3387 196.188 14.984C196.188 14.6293 196.058 14.354 195.796 14.158C195.535 13.9527 195.18 13.85 194.732 13.85H191.736V12.968H194.69C195.12 12.968 195.423 12.8747 195.6 12.688C195.778 12.5013 195.866 12.2493 195.866 11.932C195.866 11.624 195.778 11.3907 195.6 11.232C195.423 11.0733 195.12 10.994 194.69 10.994H191.596L192.226 10.336V16.776ZM203.025 17.224C202.325 17.224 201.699 17.0653 201.149 16.748C200.598 16.4307 200.164 15.9967 199.847 15.446C199.539 14.8953 199.385 14.2653 199.385 13.556C199.385 12.8467 199.539 12.2167 199.847 11.666C200.164 11.1153 200.598 10.6813 201.149 10.364C201.699 10.0467 202.325 9.888 203.025 9.888C203.734 9.888 204.359 10.0467 204.901 10.364C205.451 10.6813 205.881 11.1153 206.189 11.666C206.506 12.2167 206.665 12.8467 206.665 13.556C206.665 14.2653 206.506 14.8953 206.189 15.446C205.881 15.9967 205.451 16.4307 204.901 16.748C204.359 17.0653 203.734 17.224 203.025 17.224ZM203.025 16.314C203.529 16.314 203.972 16.1973 204.355 15.964C204.737 15.7307 205.036 15.4087 205.251 14.998C205.465 14.578 205.573 14.0973 205.573 13.556C205.573 13.0147 205.465 12.5387 205.251 12.128C205.036 11.708 204.737 11.3813 204.355 11.148C203.972 10.9147 203.529 10.798 203.025 10.798C202.521 10.798 202.077 10.9147 201.695 11.148C201.312 11.3813 201.013 11.708 200.799 12.128C200.584 12.5387 200.477 13.0147 200.477 13.556C200.477 14.0973 200.584 14.578 200.799 14.998C201.013 15.4087 201.312 15.7307 201.695 15.964C202.077 16.1973 202.521 16.314 203.025 16.314Z" fill="#2B2B2E"/>
</svg>
