<svg width="48" height="48" viewBox="0 0 48 48" fill="none" xmlns="http://www.w3.org/2000/svg">
<rect x="0.5" y="0.5" width="47" height="47" rx="23.5" fill="#E9F993"/>
<path d="M35.8516 32.1355C37.0108 31.3204 37.8801 30.1571 38.3333 28.8144C38.7866 27.4717 38.8002 26.0196 38.3722 24.6686C37.9441 23.3177 37.0968 22.1383 35.9531 21.3016C34.8093 20.4649 33.4287 20.0144 32.0116 20.0155H30.3316C29.9306 18.4527 29.1803 17.0012 28.1371 15.7703C27.094 14.5394 25.7852 13.5612 24.3092 12.9093C22.8333 12.2575 21.2288 11.9489 19.6163 12.0069C18.0039 12.0649 16.4256 12.4879 15.0004 13.2441C13.5751 14.0003 12.3399 15.07 11.3879 16.3726C10.4358 17.6753 9.7917 19.1769 9.50398 20.7645C9.21626 22.3521 9.29244 23.9843 9.7268 25.5382C10.1612 27.0921 10.9424 28.5272 12.0116 29.7355" stroke="#2B2B2E" stroke-width="2" stroke-linecap="round" stroke-linejoin="round"/>
<path d="M24.0117 24.0156V36.0156" stroke="#2B2B2E" stroke-width="2" stroke-linecap="round" stroke-linejoin="round"/>
<path d="M18.6787 30.6816L24.012 36.015L29.3454 30.6816" stroke="#2B2B2E" stroke-width="2" stroke-linecap="round" stroke-linejoin="round"/>
<rect x="0.5" y="0.5" width="47" height="47" rx="23.5" stroke="#959596"/>
</svg>
