<svg width="32" height="32" viewBox="0 0 32 32" fill="none" xmlns="http://www.w3.org/2000/svg">
<rect width="32" height="32" rx="16" fill="#C3BEFF"/>
<path d="M23.8943 9.41452C23.4382 8.96607 22.8966 8.61034 22.3006 8.36763C21.7045 8.12492 21.0657 8 20.4205 8C19.7753 8 19.1364 8.12492 18.5404 8.36763C17.9443 8.61034 17.4028 8.96607 16.9467 9.41452L16.0001 10.3448L15.0535 9.41452C14.1322 8.50912 12.8826 8.00047 11.5797 8.00047C10.2768 8.00047 9.0272 8.50912 8.10589 9.41452C7.18458 10.3199 6.66699 11.5479 6.66699 12.8283C6.66699 14.1088 7.18458 15.3367 8.10589 16.2421L9.05248 17.1724L16.0001 24L22.9477 17.1724L23.8943 16.2421C24.3506 15.7939 24.7126 15.2617 24.9596 14.676C25.2065 14.0902 25.3337 13.4624 25.3337 12.8283C25.3337 12.1943 25.2065 11.5664 24.9596 10.9807C24.7126 10.3949 24.3506 9.86275 23.8943 9.41452V9.41452Z" stroke="white" stroke-width="1.5" stroke-linecap="round" stroke-linejoin="round"/>
</svg>
