<svg width="460" height="305" viewBox="0 0 460 305" fill="none" xmlns="http://www.w3.org/2000/svg">
<g clip-path="url(#clip0_617_1588)">
<rect y="304.5" width="304" height="460" rx="12" transform="rotate(-90 0 304.5)" fill="white"/>
<path opacity="0.2" d="M144.211 263.996V252.556H151.299V253.66H144.771L145.443 252.828V263.996H144.211ZM154.355 264.252C153.555 264.252 152.841 264.071 152.211 263.708C151.582 263.345 151.086 262.849 150.723 262.22C150.371 261.591 150.195 260.871 150.195 260.06C150.195 259.249 150.371 258.529 150.723 257.9C151.086 257.271 151.582 256.775 152.211 256.412C152.841 256.049 153.555 255.868 154.355 255.868C155.166 255.868 155.881 256.049 156.499 256.412C157.129 256.775 157.619 257.271 157.971 257.9C158.334 258.529 158.515 259.249 158.515 260.06C158.515 260.871 158.334 261.591 157.971 262.22C157.619 262.849 157.129 263.345 156.499 263.708C155.881 264.071 155.166 264.252 154.355 264.252ZM154.355 263.212C154.931 263.212 155.438 263.079 155.875 262.812C156.313 262.545 156.654 262.177 156.899 261.708C157.145 261.228 157.267 260.679 157.267 260.06C157.267 259.441 157.145 258.897 156.899 258.428C156.654 257.948 156.313 257.575 155.875 257.308C155.438 257.041 154.931 256.908 154.355 256.908C153.779 256.908 153.273 257.041 152.835 257.308C152.398 257.575 152.057 257.948 151.811 258.428C151.566 258.897 151.443 259.441 151.443 260.06C151.443 260.679 151.566 261.228 151.811 261.708C152.057 262.177 152.398 262.545 152.835 262.812C153.273 263.079 153.779 263.212 154.355 263.212ZM159.179 263.676V262.988H159.499C159.712 262.988 159.878 262.94 159.995 262.844C160.123 262.737 160.219 262.567 160.283 262.332C160.358 262.097 160.416 261.777 160.459 261.372L161.083 256.124H166.523V263.516H165.339V256.364L166.171 257.132H161.259L162.219 256.364L161.579 261.468C161.515 262.012 161.414 262.444 161.275 262.764C161.136 263.084 160.939 263.319 160.683 263.468C160.438 263.607 160.096 263.676 159.659 263.676H159.179ZM158.859 266.044V262.988H167.643V266.044H166.523V263.148L167.355 263.996H159.515L159.979 263.148V266.044H158.859Z" fill="#959596"/>
<path d="M200.404 270.996H110.404V272.996H200.404V270.996Z" fill="#959596" mask="url(#path-3-inside-1_617_1588)"/>
<path opacity="0.2" d="M274.231 263.996V252.556H283.319V263.996H282.087V252.828L282.759 253.66H274.791L275.463 252.828V263.996H274.231ZM289.328 264.252C288.528 264.252 287.814 264.071 287.184 263.708C286.555 263.345 286.059 262.849 285.696 262.22C285.344 261.591 285.168 260.871 285.168 260.06C285.168 259.249 285.344 258.529 285.696 257.9C286.059 257.271 286.555 256.775 287.184 256.412C287.814 256.049 288.528 255.868 289.328 255.868C290.139 255.868 290.854 256.049 291.472 256.412C292.102 256.775 292.592 257.271 292.944 257.9C293.307 258.529 293.488 259.249 293.488 260.06C293.488 260.871 293.307 261.591 292.944 262.22C292.592 262.849 292.102 263.345 291.472 263.708C290.854 264.071 290.139 264.252 289.328 264.252ZM289.328 263.212C289.904 263.212 290.411 263.079 290.848 262.812C291.286 262.545 291.627 262.177 291.872 261.708C292.118 261.228 292.24 260.679 292.24 260.06C292.24 259.441 292.118 258.897 291.872 258.428C291.627 257.948 291.286 257.575 290.848 257.308C290.411 257.041 289.904 256.908 289.328 256.908C288.752 256.908 288.246 257.041 287.808 257.308C287.371 257.575 287.03 257.948 286.784 258.428C286.539 258.897 286.416 259.441 286.416 260.06C286.416 260.679 286.539 261.228 286.784 261.708C287.03 262.177 287.371 262.545 287.808 262.812C288.246 263.079 288.752 263.212 289.328 263.212ZM294.152 263.676V262.988H294.472C294.685 262.988 294.85 262.94 294.968 262.844C295.096 262.737 295.192 262.567 295.256 262.332C295.33 262.097 295.389 261.777 295.432 261.372L296.056 256.124H301.496V263.516H300.312V256.364L301.144 257.132H296.232L297.192 256.364L296.552 261.468C296.488 262.012 296.386 262.444 296.248 262.764C296.109 263.084 295.912 263.319 295.656 263.468C295.41 263.607 295.069 263.676 294.632 263.676H294.152ZM293.832 266.044V262.988H302.616V266.044H301.496V263.148L302.328 263.996H294.488L294.952 263.148V266.044H293.832ZM304.262 263.996V256.124H311.222V263.996H310.038V256.364L310.87 257.132H304.454L305.446 256.364V263.996H304.262ZM313.358 263.996V256.124H314.542V262.412L314.414 262.364L319.534 256.124H320.558V263.996H319.374V257.708L319.502 257.756L314.382 263.996H313.358ZM328.704 261.948L329.552 262.732C329.189 263.201 328.73 263.575 328.176 263.852C327.632 264.119 327.013 264.252 326.32 264.252C325.52 264.252 324.805 264.071 324.176 263.708C323.557 263.345 323.066 262.849 322.704 262.22C322.352 261.591 322.176 260.871 322.176 260.06C322.176 259.249 322.352 258.529 322.704 257.9C323.066 257.271 323.562 256.775 324.192 256.412C324.821 256.049 325.536 255.868 326.336 255.868C327.029 255.868 327.648 256.007 328.192 256.284C328.736 256.551 329.189 256.919 329.552 257.388L328.704 258.172C328.448 257.788 328.128 257.484 327.744 257.26C327.36 257.025 326.89 256.908 326.336 256.908C325.76 256.908 325.253 257.041 324.816 257.308C324.378 257.575 324.037 257.948 323.792 258.428C323.546 258.897 323.424 259.441 323.424 260.06C323.424 260.679 323.546 261.228 323.792 261.708C324.037 262.177 324.378 262.545 324.816 262.812C325.253 263.079 325.76 263.212 326.336 263.212C326.89 263.212 327.36 263.1 327.744 262.876C328.128 262.641 328.448 262.332 328.704 261.948ZM331.002 263.996V256.124H332.186V263.804L331.45 262.988H334.762C335.296 262.988 335.706 262.86 335.994 262.604C336.293 262.337 336.442 261.975 336.442 261.516C336.442 261.068 336.293 260.716 335.994 260.46C335.706 260.204 335.296 260.076 334.762 260.076H331.53V259.068H334.762C335.626 259.068 336.325 259.297 336.858 259.756C337.402 260.204 337.674 260.791 337.674 261.516C337.674 261.985 337.546 262.407 337.29 262.78C337.034 263.153 336.688 263.452 336.25 263.676C335.813 263.889 335.317 263.996 334.762 263.996H331.002Z" fill="#959596"/>
<path d="M350.404 270.996H260.404V272.996H350.404V270.996Z" fill="#959596" mask="url(#path-6-inside-2_617_1588)"/>
<path d="M150.971 162V144.84H152.819V160.824H151.739L162.635 144.84H164.699V162H162.851V146.136H163.811L152.963 162H150.971ZM168.893 162V150.192H170.957L175.853 159.312H175.469L180.365 150.192H182.525V162H180.773V150.792H181.781L176.357 160.92H174.845L169.469 150.792H170.597V162H168.893ZM194.058 162V150.48L195.162 151.704H190.506C189.834 151.704 189.242 151.864 188.73 152.184C188.234 152.488 187.986 153.016 187.986 153.768C187.986 154.408 188.202 154.912 188.634 155.28C189.082 155.648 189.706 155.832 190.506 155.832H195.042V157.344H190.506C189.194 157.344 188.138 157.016 187.338 156.36C186.538 155.704 186.138 154.84 186.138 153.768C186.138 153.096 186.33 152.496 186.714 151.968C187.098 151.424 187.618 150.992 188.274 150.672C188.946 150.352 189.69 150.192 190.506 150.192H195.834V162H194.058ZM185.634 162L189.954 156.48H191.97L187.794 162H185.634ZM212.802 160.224C209.842 160.224 207.594 159.648 206.058 158.496C204.522 157.328 203.754 155.632 203.754 153.408C203.754 151.184 204.522 149.496 206.058 148.344C207.594 147.192 209.842 146.616 212.802 146.616C215.762 146.616 218.002 147.192 219.522 148.344C221.058 149.496 221.826 151.184 221.826 153.408C221.826 155.632 221.058 157.328 219.522 158.496C218.002 159.648 215.762 160.224 212.802 160.224ZM212.802 158.544C215.17 158.544 216.946 158.12 218.13 157.272C219.314 156.424 219.906 155.136 219.906 153.408C219.906 151.696 219.306 150.416 218.106 149.568C216.922 148.72 215.154 148.296 212.802 148.296C210.434 148.296 208.65 148.72 207.45 149.568C206.266 150.4 205.674 151.68 205.674 153.408C205.674 155.104 206.274 156.384 207.474 157.248C208.674 158.112 210.45 158.544 212.802 158.544ZM211.866 162.72V159.888L211.938 158.832V147.984L211.866 147.048V144.12H213.714V147.048L213.642 147.984V158.832L213.714 159.888V162.72H211.866ZM234.84 162H233.136V159.696L233.112 159.024V154.608C233.112 153.616 232.792 152.824 232.152 152.232C231.512 151.64 230.648 151.344 229.56 151.344C228.776 151.344 228.064 151.512 227.424 151.848C226.8 152.184 226.248 152.64 225.768 153.216L224.52 152.016C225.176 151.312 225.912 150.768 226.728 150.384C227.56 150 228.504 149.808 229.56 149.808C230.616 149.808 231.536 150.008 232.32 150.408C233.12 150.792 233.736 151.336 234.168 152.04C234.616 152.744 234.84 153.576 234.84 154.536V162ZM228.624 162.384C227.728 162.384 226.936 162.224 226.248 161.904C225.576 161.568 225.048 161.12 224.664 160.56C224.296 160 224.112 159.36 224.112 158.64C224.112 157.808 224.344 157.104 224.808 156.528C225.272 155.936 225.904 155.488 226.704 155.184C227.52 154.88 228.44 154.728 229.464 154.728H233.352V156.168H229.704C228.632 156.168 227.736 156.368 227.016 156.768C226.312 157.152 225.96 157.76 225.96 158.592C225.96 159.296 226.224 159.856 226.752 160.272C227.28 160.688 227.976 160.896 228.84 160.896C229.672 160.896 230.424 160.736 231.096 160.416C231.768 160.08 232.304 159.616 232.704 159.024C233.12 158.432 233.352 157.752 233.4 156.984L234.12 157.392C234.12 158.352 233.88 159.208 233.4 159.96C232.936 160.712 232.288 161.304 231.456 161.736C230.624 162.168 229.68 162.384 228.624 162.384ZM238.268 162V150.192H240.332L245.228 159.312H244.844L249.74 150.192H251.9V162H250.148V150.792H251.156L245.732 160.92H244.22L238.844 150.792H239.972V162H238.268ZM255.729 162V150.192H257.505V159.624L257.313 159.552L264.993 150.192H266.529V162H264.753V152.568L264.945 152.64L257.265 162H255.729ZM268.937 162V160.464H269.897C270.329 160.464 270.657 160.352 270.881 160.128C271.105 159.888 271.241 159.456 271.289 158.832L272.033 150.192H280.433V162H278.657V150.552L279.905 151.704H272.417L273.785 150.552L272.993 159.12C272.897 160.176 272.617 160.92 272.153 161.352C271.705 161.784 271.033 162 270.137 162H268.937ZM284.275 162V150.192H286.051V159.624L285.859 159.552L293.539 150.192H295.075V162H293.299V152.568L293.491 152.64L285.811 162H284.275ZM306.628 162V150.48L307.732 151.704H303.076C302.404 151.704 301.812 151.864 301.3 152.184C300.804 152.488 300.556 153.016 300.556 153.768C300.556 154.408 300.772 154.912 301.204 155.28C301.652 155.648 302.276 155.832 303.076 155.832H307.612V157.344H303.076C301.764 157.344 300.708 157.016 299.908 156.36C299.108 155.704 298.708 154.84 298.708 153.768C298.708 153.096 298.9 152.496 299.284 151.968C299.668 151.424 300.188 150.992 300.844 150.672C301.516 150.352 302.26 150.192 303.076 150.192H308.404V162H306.628ZM298.204 162L302.524 156.48H304.54L300.364 162H298.204Z" fill="#2B2B2E"/>
<path d="M155.474 122V104.84H162.602C163.738 104.84 164.73 105.024 165.578 105.392C166.426 105.76 167.082 106.28 167.546 106.952C168.01 107.624 168.242 108.416 168.242 109.328C168.242 110.16 168.01 110.904 167.546 111.56C167.082 112.2 166.426 112.704 165.578 113.072C164.73 113.44 163.738 113.624 162.602 113.624H158.954V112.4H162.818C164.05 112.4 165.122 112.592 166.034 112.976C166.962 113.344 167.682 113.88 168.194 114.584C168.722 115.272 168.986 116.096 168.986 117.056C168.986 118.032 168.73 118.896 168.218 119.648C167.706 120.4 166.986 120.984 166.058 121.4C165.13 121.8 164.05 122 162.818 122H155.474ZM158.714 119.288H162.842C163.722 119.288 164.418 119.08 164.93 118.664C165.442 118.232 165.698 117.632 165.698 116.864C165.698 116.128 165.442 115.56 164.93 115.16C164.418 114.744 163.722 114.536 162.842 114.536H158.474V111.872H162.434C163.218 111.872 163.834 111.68 164.282 111.296C164.746 110.896 164.978 110.352 164.978 109.664C164.978 108.992 164.746 108.472 164.282 108.104C163.834 107.736 163.218 107.552 162.434 107.552H158.714V119.288ZM175.641 122H172.401V104.84H179.361C180.593 104.84 181.665 105.064 182.577 105.512C183.505 105.944 184.225 106.552 184.737 107.336C185.265 108.12 185.529 109.032 185.529 110.072C185.529 111.112 185.265 112.032 184.737 112.832C184.225 113.616 183.505 114.232 182.577 114.68C181.665 115.112 180.593 115.328 179.361 115.328H175.401V112.592H179.361C180.257 112.592 180.961 112.368 181.473 111.92C181.985 111.472 182.241 110.856 182.241 110.072C182.241 109.304 181.985 108.696 181.473 108.248C180.961 107.8 180.257 107.576 179.361 107.576H175.641V122ZM188.101 122V119.264H190.333C190.893 119.264 191.365 119.176 191.749 119C192.149 118.824 192.501 118.528 192.805 118.112C193.125 117.696 193.453 117.12 193.789 116.384L199.189 104.84H202.501L195.901 118.352C195.469 119.216 195.005 119.92 194.509 120.464C194.013 120.992 193.437 121.384 192.781 121.64C192.141 121.88 191.381 122 190.501 122H188.101ZM193.429 118.16L186.709 104.84H190.021L195.829 116.72L193.429 118.16ZM210.454 115.928C208.55 115.928 207.062 115.456 205.99 114.512C204.934 113.568 204.406 112.248 204.406 110.552V104.84H207.646V110.168C207.646 111.176 207.926 111.928 208.486 112.424C209.062 112.904 209.91 113.144 211.03 113.144C211.782 113.144 212.51 113.04 213.214 112.832C213.934 112.624 214.542 112.352 215.038 112.016L215.902 114.008C215.262 114.632 214.47 115.112 213.526 115.448C212.582 115.768 211.558 115.928 210.454 115.928ZM214.822 122V104.84H218.062V122H214.822ZM234.788 118.232H224.612V115.496H234.788V118.232ZM238.292 122H234.812L229.196 107.12H230.156L224.54 122H221.18L227.948 104.84H231.524L238.292 122ZM253.516 122H241.444V104.84H253.516V107.576H244.684V119.264H253.516V122ZM253.06 114.68H244.444V111.944H253.06V114.68ZM264.355 122H261.115V107.36H264.355V122ZM269.731 107.6H255.739V104.84H269.731V107.6ZM285.049 117.008L287.185 119.168C286.433 120.128 285.441 120.904 284.209 121.496C282.993 122.088 281.657 122.384 280.201 122.384C278.873 122.384 277.657 122.168 276.553 121.736C275.449 121.288 274.489 120.664 273.673 119.864C272.873 119.048 272.249 118.096 271.801 117.008C271.369 115.92 271.153 114.72 271.153 113.408C271.153 112.128 271.377 110.944 271.825 109.856C272.289 108.752 272.929 107.8 273.745 107C274.561 106.184 275.521 105.56 276.625 105.128C277.745 104.68 278.961 104.456 280.273 104.456C281.729 104.456 283.057 104.752 284.257 105.344C285.457 105.936 286.433 106.712 287.185 107.672L285.049 109.832C284.521 109.064 283.841 108.456 283.009 108.008C282.193 107.544 281.281 107.312 280.273 107.312C279.185 107.312 278.209 107.576 277.345 108.104C276.497 108.632 275.825 109.352 275.329 110.264C274.833 111.176 274.585 112.224 274.585 113.408C274.585 114.592 274.833 115.648 275.329 116.576C275.825 117.488 276.497 118.208 277.345 118.736C278.209 119.264 279.185 119.528 280.273 119.528C281.281 119.528 282.193 119.304 283.009 118.856C283.841 118.392 284.521 117.776 285.049 117.008ZM299.623 122V107.576H295.903C295.007 107.576 294.303 107.8 293.791 108.248C293.279 108.696 293.023 109.304 293.023 110.072C293.023 110.856 293.279 111.472 293.791 111.92C294.303 112.368 295.007 112.592 295.903 112.592H299.863V115.328H295.903C294.671 115.328 293.591 115.112 292.663 114.68C291.751 114.232 291.031 113.616 290.503 112.832C289.991 112.032 289.735 111.112 289.735 110.072C289.735 109.032 289.991 108.12 290.503 107.336C291.031 106.552 291.751 105.944 292.663 105.512C293.591 105.064 294.671 104.84 295.903 104.84H302.863V122H299.623ZM288.463 122L294.199 114.008H297.799L292.303 122H288.463Z" fill="#2B2B2E"/>
<path d="M140.938 69.0039V43.2639H157.966V47.4039H143.17L145.798 44.4159V69.0039H140.938ZM166.78 69.0039H161.92V43.2639H172.36C174.208 43.2639 175.816 43.5999 177.184 44.2719C178.576 44.9199 179.656 45.8319 180.424 47.0079C181.216 48.1839 181.612 49.5519 181.612 51.1119C181.612 52.6719 181.216 54.0519 180.424 55.2519C179.656 56.4279 178.576 57.3519 177.184 58.0239C175.816 58.6719 174.208 58.9959 172.36 58.9959H166.42V54.8919H172.36C173.704 54.8919 174.76 54.5559 175.528 53.8839C176.296 53.2119 176.68 52.2879 176.68 51.1119C176.68 49.9599 176.296 49.0479 175.528 48.3759C174.76 47.7039 173.704 47.3679 172.36 47.3679H166.78V69.0039ZM201.051 63.3519H185.787V59.2479H201.051V63.3519ZM206.307 69.0039H201.087L192.663 46.6839H194.103L185.679 69.0039H180.639L190.791 43.2639H196.155L206.307 69.0039ZM226.648 66.2319H223.048L213.004 45.2439L215.524 45.2079V69.0039H210.844V43.2639H216.46L225.856 62.9919H223.876L233.272 43.2639H238.816V69.0039H234.064V45.2079L236.692 45.2439L226.648 66.2319ZM257.852 69.5799C255.86 69.5799 254.024 69.2439 252.344 68.5719C250.688 67.8999 249.236 66.9639 247.988 65.7639C246.74 64.5639 245.78 63.1479 245.108 61.5159C244.436 59.8599 244.1 58.0599 244.1 56.1159C244.1 54.1719 244.436 52.3839 245.108 50.7519C245.78 49.1199 246.74 47.7039 247.988 46.5039C249.236 45.3039 250.688 44.3679 252.344 43.6959C254.024 43.0239 255.86 42.6879 257.852 42.6879C259.844 42.6879 261.668 43.0239 263.324 43.6959C265.004 44.3679 266.468 45.3039 267.716 46.5039C268.964 47.7039 269.924 49.1199 270.596 50.7519C271.268 52.3839 271.604 54.1719 271.604 56.1159C271.604 58.0599 271.268 59.8599 270.596 61.5159C269.924 63.1479 268.964 64.5639 267.716 65.7639C266.468 66.9639 265.004 67.8999 263.324 68.5719C261.668 69.2439 259.844 69.5799 257.852 69.5799ZM257.852 65.2959C259.556 65.2959 261.056 64.8999 262.352 64.1079C263.648 63.3159 264.656 62.2359 265.376 60.8679C266.12 59.4759 266.492 57.8919 266.492 56.1159C266.492 54.3399 266.12 52.7679 265.376 51.3999C264.656 50.0319 263.648 48.9519 262.352 48.1599C261.056 47.3679 259.556 46.9719 257.852 46.9719C256.172 46.9719 254.672 47.3679 253.352 48.1599C252.056 48.9519 251.036 50.0319 250.292 51.3999C249.572 52.7679 249.212 54.3399 249.212 56.1159C249.212 57.8919 249.572 59.4759 250.292 60.8679C251.036 62.2359 252.056 63.3159 253.352 64.1079C254.672 64.8999 256.172 65.2959 257.852 65.2959ZM286.428 69.0039H281.568V47.0439H286.428V69.0039ZM294.492 47.4039H273.504V43.2639H294.492V47.4039ZM313.207 63.3519H297.943V59.2479H313.207V63.3519ZM318.463 69.0039H313.243L304.819 46.6839H306.259L297.835 69.0039H292.795L302.947 43.2639H308.311L318.463 69.0039Z" fill="#2B2B2E"/>
<rect y="304.5" width="304" height="88" transform="rotate(-90 0 304.5)" fill="#C3BEFF"/>
<g filter="url(#filter0_d_617_1588)">
<path d="M7.73798 79.9686L39.4232 24.5005L42.9295 26.5035L9.66413 87.426L7.73798 79.9686Z" fill="#B7FB96"/>
</g>
<g filter="url(#filter1_d_617_1588)">
<path d="M46.738 168.969L78.4232 113.501L81.9295 115.503L48.6641 176.426L46.738 168.969Z" fill="#B7FB96"/>
</g>
<g filter="url(#filter2_d_617_1588)">
<path d="M2.73798 296.969L34.4232 241.501L37.9295 243.503L4.66413 304.426L2.73798 296.969Z" fill="#B7FB96"/>
</g>
<g filter="url(#filter3_d_617_1588)">
<path d="M5 195.5H25" stroke="#E9F993" stroke-width="3"/>
</g>
<g filter="url(#filter4_d_617_1588)">
<path d="M5 159.5L15 144.5" stroke="#F8C3C3" stroke-width="3"/>
</g>
<g filter="url(#filter5_d_617_1588)">
<path d="M24 128.5H44" stroke="#F8C3C3" stroke-width="3"/>
</g>
<g filter="url(#filter6_d_617_1588)">
<path d="M432 304.5L432 0.500004" stroke="#F8C3C3" stroke-width="3"/>
</g>
<g filter="url(#filter7_d_617_1588)">
<path d="M28 109.5L40 90.5" stroke="#E9F993" stroke-width="3"/>
</g>
<g filter="url(#filter8_d_617_1588)">
<path d="M54 197.5H74" stroke="#F8C3C3" stroke-width="3"/>
</g>
<g filter="url(#filter9_d_617_1588)">
<path d="M39 272.5H59" stroke="#E9F993" stroke-width="3"/>
</g>
<g filter="url(#filter10_d_617_1588)">
<path d="M423 304.5L423 0.500004" stroke="#E9F993" stroke-width="3"/>
</g>
<g filter="url(#filter11_d_617_1588)">
<path d="M44 241.5L54 226.5" stroke="#F8C3C3" stroke-width="3"/>
</g>
<g filter="url(#filter12_d_617_1588)">
<path d="M64 75.5H84" stroke="#F8C3C3" stroke-width="3"/>
</g>
<g filter="url(#filter13_d_617_1588)">
<path d="M5 12.5H25" stroke="#E9F993" stroke-width="3"/>
</g>
<g filter="url(#filter14_d_617_1588)">
<path d="M58.1445 46.6074L69.8552 30.3944" stroke="#F8C3C3" stroke-width="3"/>
</g>
</g>
<rect x="0.5" y="304" width="303" height="459" rx="11.5" transform="rotate(-90 0.5 304)" stroke="#959596"/>
<defs>
<filter id="filter0_d_617_1588" x="5.73828" y="24.5" width="39.1914" height="68.9258" filterUnits="userSpaceOnUse" color-interpolation-filters="sRGB">
<feFlood flood-opacity="0" result="BackgroundImageFix"/>
<feColorMatrix in="SourceAlpha" type="matrix" values="0 0 0 0 0 0 0 0 0 0 0 0 0 0 0 0 0 0 127 0" result="hardAlpha"/>
<feOffset dy="4"/>
<feGaussianBlur stdDeviation="1"/>
<feComposite in2="hardAlpha" operator="out"/>
<feColorMatrix type="matrix" values="0 0 0 0 0 0 0 0 0 0 0 0 0 0 0 0 0 0 0.25 0"/>
<feBlend mode="normal" in2="BackgroundImageFix" result="effect1_dropShadow_617_1588"/>
<feBlend mode="normal" in="SourceGraphic" in2="effect1_dropShadow_617_1588" result="shape"/>
</filter>
<filter id="filter1_d_617_1588" x="44.7383" y="113.5" width="39.1914" height="68.9258" filterUnits="userSpaceOnUse" color-interpolation-filters="sRGB">
<feFlood flood-opacity="0" result="BackgroundImageFix"/>
<feColorMatrix in="SourceAlpha" type="matrix" values="0 0 0 0 0 0 0 0 0 0 0 0 0 0 0 0 0 0 127 0" result="hardAlpha"/>
<feOffset dy="4"/>
<feGaussianBlur stdDeviation="1"/>
<feComposite in2="hardAlpha" operator="out"/>
<feColorMatrix type="matrix" values="0 0 0 0 0 0 0 0 0 0 0 0 0 0 0 0 0 0 0.25 0"/>
<feBlend mode="normal" in2="BackgroundImageFix" result="effect1_dropShadow_617_1588"/>
<feBlend mode="normal" in="SourceGraphic" in2="effect1_dropShadow_617_1588" result="shape"/>
</filter>
<filter id="filter2_d_617_1588" x="0.738281" y="241.5" width="39.1914" height="68.9258" filterUnits="userSpaceOnUse" color-interpolation-filters="sRGB">
<feFlood flood-opacity="0" result="BackgroundImageFix"/>
<feColorMatrix in="SourceAlpha" type="matrix" values="0 0 0 0 0 0 0 0 0 0 0 0 0 0 0 0 0 0 127 0" result="hardAlpha"/>
<feOffset dy="4"/>
<feGaussianBlur stdDeviation="1"/>
<feComposite in2="hardAlpha" operator="out"/>
<feColorMatrix type="matrix" values="0 0 0 0 0 0 0 0 0 0 0 0 0 0 0 0 0 0 0.25 0"/>
<feBlend mode="normal" in2="BackgroundImageFix" result="effect1_dropShadow_617_1588"/>
<feBlend mode="normal" in="SourceGraphic" in2="effect1_dropShadow_617_1588" result="shape"/>
</filter>
<filter id="filter3_d_617_1588" x="1" y="194" width="28" height="11" filterUnits="userSpaceOnUse" color-interpolation-filters="sRGB">
<feFlood flood-opacity="0" result="BackgroundImageFix"/>
<feColorMatrix in="SourceAlpha" type="matrix" values="0 0 0 0 0 0 0 0 0 0 0 0 0 0 0 0 0 0 127 0" result="hardAlpha"/>
<feOffset dy="4"/>
<feGaussianBlur stdDeviation="2"/>
<feComposite in2="hardAlpha" operator="out"/>
<feColorMatrix type="matrix" values="0 0 0 0 0 0 0 0 0 0 0 0 0 0 0 0 0 0 0.25 0"/>
<feBlend mode="normal" in2="BackgroundImageFix" result="effect1_dropShadow_617_1588"/>
<feBlend mode="normal" in="SourceGraphic" in2="effect1_dropShadow_617_1588" result="shape"/>
</filter>
<filter id="filter4_d_617_1588" x="-0.248047" y="143.668" width="20.4961" height="24.6641" filterUnits="userSpaceOnUse" color-interpolation-filters="sRGB">
<feFlood flood-opacity="0" result="BackgroundImageFix"/>
<feColorMatrix in="SourceAlpha" type="matrix" values="0 0 0 0 0 0 0 0 0 0 0 0 0 0 0 0 0 0 127 0" result="hardAlpha"/>
<feOffset dy="4"/>
<feGaussianBlur stdDeviation="2"/>
<feComposite in2="hardAlpha" operator="out"/>
<feColorMatrix type="matrix" values="0 0 0 0 0 0 0 0 0 0 0 0 0 0 0 0 0 0 0.25 0"/>
<feBlend mode="normal" in2="BackgroundImageFix" result="effect1_dropShadow_617_1588"/>
<feBlend mode="normal" in="SourceGraphic" in2="effect1_dropShadow_617_1588" result="shape"/>
</filter>
<filter id="filter5_d_617_1588" x="20" y="127" width="28" height="11" filterUnits="userSpaceOnUse" color-interpolation-filters="sRGB">
<feFlood flood-opacity="0" result="BackgroundImageFix"/>
<feColorMatrix in="SourceAlpha" type="matrix" values="0 0 0 0 0 0 0 0 0 0 0 0 0 0 0 0 0 0 127 0" result="hardAlpha"/>
<feOffset dy="4"/>
<feGaussianBlur stdDeviation="2"/>
<feComposite in2="hardAlpha" operator="out"/>
<feColorMatrix type="matrix" values="0 0 0 0 0 0 0 0 0 0 0 0 0 0 0 0 0 0 0.25 0"/>
<feBlend mode="normal" in2="BackgroundImageFix" result="effect1_dropShadow_617_1588"/>
<feBlend mode="normal" in="SourceGraphic" in2="effect1_dropShadow_617_1588" result="shape"/>
</filter>
<filter id="filter6_d_617_1588" x="426.5" y="0.5" width="11" height="312" filterUnits="userSpaceOnUse" color-interpolation-filters="sRGB">
<feFlood flood-opacity="0" result="BackgroundImageFix"/>
<feColorMatrix in="SourceAlpha" type="matrix" values="0 0 0 0 0 0 0 0 0 0 0 0 0 0 0 0 0 0 127 0" result="hardAlpha"/>
<feOffset dy="4"/>
<feGaussianBlur stdDeviation="2"/>
<feComposite in2="hardAlpha" operator="out"/>
<feColorMatrix type="matrix" values="0 0 0 0 0 0 0 0 0 0 0 0 0 0 0 0 0 0 0.25 0"/>
<feBlend mode="normal" in2="BackgroundImageFix" result="effect1_dropShadow_617_1588"/>
<feBlend mode="normal" in="SourceGraphic" in2="effect1_dropShadow_617_1588" result="shape"/>
</filter>
<filter id="filter7_d_617_1588" x="22.7314" y="89.6992" width="22.5371" height="28.6016" filterUnits="userSpaceOnUse" color-interpolation-filters="sRGB">
<feFlood flood-opacity="0" result="BackgroundImageFix"/>
<feColorMatrix in="SourceAlpha" type="matrix" values="0 0 0 0 0 0 0 0 0 0 0 0 0 0 0 0 0 0 127 0" result="hardAlpha"/>
<feOffset dy="4"/>
<feGaussianBlur stdDeviation="2"/>
<feComposite in2="hardAlpha" operator="out"/>
<feColorMatrix type="matrix" values="0 0 0 0 0 0 0 0 0 0 0 0 0 0 0 0 0 0 0.25 0"/>
<feBlend mode="normal" in2="BackgroundImageFix" result="effect1_dropShadow_617_1588"/>
<feBlend mode="normal" in="SourceGraphic" in2="effect1_dropShadow_617_1588" result="shape"/>
</filter>
<filter id="filter8_d_617_1588" x="50" y="196" width="28" height="11" filterUnits="userSpaceOnUse" color-interpolation-filters="sRGB">
<feFlood flood-opacity="0" result="BackgroundImageFix"/>
<feColorMatrix in="SourceAlpha" type="matrix" values="0 0 0 0 0 0 0 0 0 0 0 0 0 0 0 0 0 0 127 0" result="hardAlpha"/>
<feOffset dy="4"/>
<feGaussianBlur stdDeviation="2"/>
<feComposite in2="hardAlpha" operator="out"/>
<feColorMatrix type="matrix" values="0 0 0 0 0 0 0 0 0 0 0 0 0 0 0 0 0 0 0.25 0"/>
<feBlend mode="normal" in2="BackgroundImageFix" result="effect1_dropShadow_617_1588"/>
<feBlend mode="normal" in="SourceGraphic" in2="effect1_dropShadow_617_1588" result="shape"/>
</filter>
<filter id="filter9_d_617_1588" x="35" y="271" width="28" height="11" filterUnits="userSpaceOnUse" color-interpolation-filters="sRGB">
<feFlood flood-opacity="0" result="BackgroundImageFix"/>
<feColorMatrix in="SourceAlpha" type="matrix" values="0 0 0 0 0 0 0 0 0 0 0 0 0 0 0 0 0 0 127 0" result="hardAlpha"/>
<feOffset dy="4"/>
<feGaussianBlur stdDeviation="2"/>
<feComposite in2="hardAlpha" operator="out"/>
<feColorMatrix type="matrix" values="0 0 0 0 0 0 0 0 0 0 0 0 0 0 0 0 0 0 0.25 0"/>
<feBlend mode="normal" in2="BackgroundImageFix" result="effect1_dropShadow_617_1588"/>
<feBlend mode="normal" in="SourceGraphic" in2="effect1_dropShadow_617_1588" result="shape"/>
</filter>
<filter id="filter10_d_617_1588" x="417.5" y="0.5" width="11" height="312" filterUnits="userSpaceOnUse" color-interpolation-filters="sRGB">
<feFlood flood-opacity="0" result="BackgroundImageFix"/>
<feColorMatrix in="SourceAlpha" type="matrix" values="0 0 0 0 0 0 0 0 0 0 0 0 0 0 0 0 0 0 127 0" result="hardAlpha"/>
<feOffset dy="4"/>
<feGaussianBlur stdDeviation="2"/>
<feComposite in2="hardAlpha" operator="out"/>
<feColorMatrix type="matrix" values="0 0 0 0 0 0 0 0 0 0 0 0 0 0 0 0 0 0 0.25 0"/>
<feBlend mode="normal" in2="BackgroundImageFix" result="effect1_dropShadow_617_1588"/>
<feBlend mode="normal" in="SourceGraphic" in2="effect1_dropShadow_617_1588" result="shape"/>
</filter>
<filter id="filter11_d_617_1588" x="38.752" y="225.668" width="20.4961" height="24.6641" filterUnits="userSpaceOnUse" color-interpolation-filters="sRGB">
<feFlood flood-opacity="0" result="BackgroundImageFix"/>
<feColorMatrix in="SourceAlpha" type="matrix" values="0 0 0 0 0 0 0 0 0 0 0 0 0 0 0 0 0 0 127 0" result="hardAlpha"/>
<feOffset dy="4"/>
<feGaussianBlur stdDeviation="2"/>
<feComposite in2="hardAlpha" operator="out"/>
<feColorMatrix type="matrix" values="0 0 0 0 0 0 0 0 0 0 0 0 0 0 0 0 0 0 0.25 0"/>
<feBlend mode="normal" in2="BackgroundImageFix" result="effect1_dropShadow_617_1588"/>
<feBlend mode="normal" in="SourceGraphic" in2="effect1_dropShadow_617_1588" result="shape"/>
</filter>
<filter id="filter12_d_617_1588" x="60" y="74" width="28" height="11" filterUnits="userSpaceOnUse" color-interpolation-filters="sRGB">
<feFlood flood-opacity="0" result="BackgroundImageFix"/>
<feColorMatrix in="SourceAlpha" type="matrix" values="0 0 0 0 0 0 0 0 0 0 0 0 0 0 0 0 0 0 127 0" result="hardAlpha"/>
<feOffset dy="4"/>
<feGaussianBlur stdDeviation="2"/>
<feComposite in2="hardAlpha" operator="out"/>
<feColorMatrix type="matrix" values="0 0 0 0 0 0 0 0 0 0 0 0 0 0 0 0 0 0 0.25 0"/>
<feBlend mode="normal" in2="BackgroundImageFix" result="effect1_dropShadow_617_1588"/>
<feBlend mode="normal" in="SourceGraphic" in2="effect1_dropShadow_617_1588" result="shape"/>
</filter>
<filter id="filter13_d_617_1588" x="1" y="11" width="28" height="11" filterUnits="userSpaceOnUse" color-interpolation-filters="sRGB">
<feFlood flood-opacity="0" result="BackgroundImageFix"/>
<feColorMatrix in="SourceAlpha" type="matrix" values="0 0 0 0 0 0 0 0 0 0 0 0 0 0 0 0 0 0 127 0" result="hardAlpha"/>
<feOffset dy="4"/>
<feGaussianBlur stdDeviation="2"/>
<feComposite in2="hardAlpha" operator="out"/>
<feColorMatrix type="matrix" values="0 0 0 0 0 0 0 0 0 0 0 0 0 0 0 0 0 0 0.25 0"/>
<feBlend mode="normal" in2="BackgroundImageFix" result="effect1_dropShadow_617_1588"/>
<feBlend mode="normal" in="SourceGraphic" in2="effect1_dropShadow_617_1588" result="shape"/>
</filter>
<filter id="filter14_d_617_1588" x="52.9287" y="29.5156" width="22.1426" height="25.9707" filterUnits="userSpaceOnUse" color-interpolation-filters="sRGB">
<feFlood flood-opacity="0" result="BackgroundImageFix"/>
<feColorMatrix in="SourceAlpha" type="matrix" values="0 0 0 0 0 0 0 0 0 0 0 0 0 0 0 0 0 0 127 0" result="hardAlpha"/>
<feOffset dy="4"/>
<feGaussianBlur stdDeviation="2"/>
<feComposite in2="hardAlpha" operator="out"/>
<feColorMatrix type="matrix" values="0 0 0 0 0 0 0 0 0 0 0 0 0 0 0 0 0 0 0.25 0"/>
<feBlend mode="normal" in2="BackgroundImageFix" result="effect1_dropShadow_617_1588"/>
<feBlend mode="normal" in="SourceGraphic" in2="effect1_dropShadow_617_1588" result="shape"/>
</filter>
<clipPath id="clip0_617_1588">
<rect y="304.5" width="304" height="460" rx="12" transform="rotate(-90 0 304.5)" fill="white"/>
</clipPath>
</defs>
</svg>
